<svg width="30" height="47" viewBox="0 0 30 47" fill="none" xmlns="http://www.w3.org/2000/svg">
<path fill-rule="evenodd" clip-rule="evenodd" d="M4.34832 4.34832C7.13251 1.56414 10.9087 0 14.8461 0C18.7835 0 22.5597 1.56414 25.3439 4.34832C28.1281 7.13251 29.6922 10.9087 29.6922 14.8461C29.6922 18.109 28.445 21.4479 25.8531 23.8055C24.3216 25.3431 23.5935 26.462 23.2884 27.9873C23.0587 29.1359 21.9414 29.8807 20.7928 29.651C19.6442 29.4213 18.8993 28.304 19.129 27.1554C19.6699 24.451 21.0534 22.6064 22.8903 20.7695C22.9166 20.7432 22.9436 20.7176 22.9712 20.6927C24.5911 19.2349 25.4505 17.0789 25.4505 14.8461C25.4505 12.0337 24.3332 9.33639 22.3445 7.34769C20.3558 5.35899 17.6586 4.24174 14.8461 4.24174C12.0337 4.24174 9.33639 5.35899 7.34769 7.34769C5.35899 9.33639 4.24174 12.0337 4.24174 14.8461C4.24174 16.5518 4.53577 18.5034 6.80186 20.7695C8.40574 22.3734 10.0187 24.433 10.5632 27.1554C10.7929 28.304 10.048 29.4213 8.89943 29.651C7.75085 29.8807 6.63352 29.1359 6.4038 27.9873C6.09993 26.4679 5.16784 25.1342 3.8025 23.7688C0.554323 20.5207 0 17.3821 0 14.8461C0 10.9087 1.56414 7.13251 4.34832 4.34832ZM6.36262 36.0548C6.36262 34.8835 7.31216 33.934 8.48349 33.934H21.2087C22.3801 33.934 23.3296 34.8835 23.3296 36.0548C23.3296 37.2262 22.3801 38.1757 21.2087 38.1757H8.48349C7.31216 38.1757 6.36262 37.2262 6.36262 36.0548ZM10.6044 42.4174C9.43304 42.4174 8.48349 43.367 8.48349 44.5383C8.48349 45.7096 9.43304 46.6592 10.6044 46.6592H19.0879C20.2592 46.6592 21.2087 45.7096 21.2087 44.5383C21.2087 43.367 20.2592 42.4174 19.0879 42.4174H10.6044Z" fill="#001EBE"/>
</svg>
