<svg width="130" height="72" viewBox="0 0 130 72" fill="none" xmlns="http://www.w3.org/2000/svg">
    <path fill-rule="evenodd" clip-rule="evenodd"
        d="M0.511719 0H18.9864V6.97158H7.4833V25.7949H18.9864V32.7664H0.511719V0ZM0.511719 39.0378H7.4833V64.6583H18.9864V71.6299H0.511719V39.0378ZM41.6378 0H23.1631V32.7664H41.6378V25.7949H30.1347V6.97158H41.6378V0ZM23.1631 71.8045V39.3867H30.1347V71.8045H23.1631ZM129.486 0H45.8268V32.7664H129.486V0ZM52.7984 25.7949V6.97158H122.514V25.7949H52.7984ZM34.6802 39.0378H120.082V51.9382H128.797V71.8072H34.6802V58.9068V51.9382V39.0378ZM41.6518 46.0093V51.9352H113.11V46.0093H41.6518ZM41.6518 64.8356V58.9098H121.825V64.8356H41.6518Z"
        fill="#001EBE" />
</svg>