<svg width="41" height="23" viewBox="0 0 41 23" fill="none" xmlns="http://www.w3.org/2000/svg">
<path fill-rule="evenodd" clip-rule="evenodd" d="M0 0H5.84309V2.20494H2.20494V8.15827H5.84309V10.3632H0V0ZM0 12.3464H2.20494V20.4496H5.84309V22.6545H0V12.3464ZM13.0079 0H7.16481V10.3632H13.0079V8.15827H9.36975V2.20494H13.0079V0ZM7.16481 22.71V12.457H9.36975V22.71H7.16481ZM40.792 0H14.3328V10.3632H40.792V0ZM16.5377 8.15827V2.20494H38.5871V8.15827H16.5377ZM10.8057 12.3464H37.8162V16.4266H40.5723V22.7107H10.8057V18.6305V16.4266V12.3464ZM13.0106 14.5514V16.4256H35.6112V14.5514H13.0106ZM13.0106 20.5057V18.6315H38.3674V20.5057H13.0106Z" fill="#E2E2E2"/>
</svg>
