<svg width="110" height="26" viewBox="0 0 110 26" fill="none" xmlns="http://www.w3.org/2000/svg">
<path d="M106.911 6.84295H109.417L103.652 13.4431L109.686 20.3126H107.235L102.224 14.7092L100.661 16.5411V20.3126H98.668V1.45508H100.661V14.1974L106.911 6.84295Z" fill="white"/>
<path d="M93.8535 1.45508H95.8201V20.3126H93.8535V1.45508Z" fill="white"/>
<path d="M90.9798 16.4606C90.9798 18.0949 91.1055 19.379 91.3569 20.3129H89.3365C89.1569 19.5945 89.0491 18.7773 89.0132 17.8614C88.5104 18.6875 87.8369 19.352 86.9928 19.8549C86.1666 20.3578 85.2327 20.6092 84.1911 20.6092C82.898 20.6092 81.8294 20.2321 80.9853 19.4778C80.1592 18.7235 79.7461 17.7626 79.7461 16.5952C79.7461 15.4997 80.0873 14.6287 80.7698 13.9821C81.4522 13.3356 82.4041 12.9764 83.6254 12.9046L87.3969 12.6352C87.9716 12.5992 88.3757 12.4825 88.6091 12.285C88.8606 12.0694 88.9863 11.7372 88.9863 11.2882V11.2343C88.9863 10.3902 88.654 9.6898 87.9895 9.13305C87.325 8.55834 86.5168 8.27099 85.565 8.27099C83.3739 8.27099 82.1616 9.21387 81.9282 11.0996H79.8538C79.9436 9.71674 80.5004 8.61222 81.5241 7.78608C82.5657 6.95994 83.9037 6.54688 85.5381 6.54688C86.5797 6.54688 87.5046 6.76239 88.3128 7.19342C89.1389 7.60649 89.7855 8.1812 90.2524 8.91754C90.7373 9.63592 90.9798 10.4531 90.9798 11.369V16.4606ZM81.7665 16.4875C81.7665 17.2059 82.0359 17.7806 82.5747 18.2116C83.1315 18.6247 83.8678 18.8312 84.7837 18.8312C85.5919 18.8312 86.3103 18.6426 86.9389 18.2655C87.5675 17.8883 88.0614 17.3765 88.4206 16.7299C88.7977 16.0834 88.9863 15.3471 88.9863 14.5209V14.1168L84.2988 14.4132C82.6106 14.5389 81.7665 15.2303 81.7665 16.4875Z" fill="white"/>
<path d="M81.8065 2.80176V4.68751H76.5533V20.3123H74.5598V4.68751H69.3066V2.80176H81.8065Z" fill="white"/>
<path d="M57.4258 6.84326H59.6079L63.8643 18.077L68.0129 6.84326H70.222L64.9419 20.3129H62.7059L57.4258 6.84326Z" fill="white"/>
<path d="M44.9141 13.5241C44.9141 11.3869 45.4798 9.69869 46.6112 8.45948C47.7427 7.20232 49.2693 6.57373 51.1909 6.57373C52.4122 6.57373 53.4898 6.86108 54.4237 7.43579C55.3755 8.01049 56.1208 8.80072 56.6596 9.80645C57.1984 10.8122 57.4678 11.9616 57.4678 13.2547V14.0898H46.9884C47.0602 15.6164 47.4643 16.7748 48.2007 17.565C48.955 18.3552 50.0056 18.7503 51.3526 18.7503C52.4481 18.7503 53.3191 18.5079 53.9657 18.023C54.6302 17.538 55.0433 16.8825 55.2049 16.0564H57.3062C57.0188 17.4931 56.3723 18.5977 55.3665 19.3699C54.3787 20.1422 53.0408 20.5283 51.3526 20.5283C50.0415 20.5283 48.9011 20.2499 47.9313 19.6932C46.9615 19.1185 46.2161 18.3103 45.6953 17.2686C45.1745 16.209 44.9141 14.9608 44.9141 13.5241ZM51.1909 8.27091C48.6766 8.27091 47.2847 9.67175 47.0153 12.4734H55.3396C55.2318 11.1983 54.8008 10.1836 54.0465 9.4293C53.3102 8.65704 52.3583 8.27091 51.1909 8.27091Z" fill="white"/>
<path d="M36.3181 2.80176C37.8447 2.80176 39.1737 3.17891 40.3052 3.93321C41.4546 4.68751 42.3436 5.74712 42.9722 7.11205C43.6007 8.47698 43.915 10.0664 43.915 11.8803C43.915 13.5685 43.6187 15.0502 43.026 16.3253C42.4513 17.5825 41.6342 18.5613 40.5746 19.2617C39.5149 19.9621 38.2757 20.3123 36.8569 20.3123H29.7988V2.80176H36.3181ZM31.7923 4.63363V18.4805H36.5875C38.2578 18.4805 39.5509 17.9057 40.4668 16.7563C41.4007 15.6069 41.8677 13.9816 41.8677 11.8803C41.8677 9.58149 41.3558 7.8035 40.3321 6.54633C39.3264 5.2712 37.8986 4.63363 36.0488 4.63363H31.7923Z" fill="white"/>
<path d="M6.24971 13.0377V5.18158C6.24971 5.09213 6.32391 5.01962 6.41545 5.01962H14.9511C15.6798 5.01962 16.2705 5.59689 16.2705 6.309V15.9712C16.2705 16.6833 15.6798 17.2605 14.9511 17.2605H6.41545C6.32391 17.2605 6.24971 17.188 6.24971 17.0986V15.6541C6.24971 15.5646 6.32391 15.4921 6.41545 15.4921H13.6325C13.9952 15.4921 14.2893 15.2047 14.2893 14.8502V7.51282C14.2893 7.15833 13.9953 6.87096 13.6325 6.87096H8.45406C8.36253 6.87096 8.28833 6.94347 8.28833 7.03292V12.3358C8.28833 12.401 8.24835 12.4598 8.18687 12.4851L6.47972 13.187C6.37048 13.2319 6.24971 13.1535 6.24971 13.0377Z" fill="white"/>
<path fill-rule="evenodd" clip-rule="evenodd" d="M0.167013 0C0.074774 0 0 0.0730727 0 0.163212V22.623C0 22.7131 0.0747743 22.7862 0.167013 22.7862H11.2021C11.2239 22.7862 11.2456 22.7904 11.2658 22.7985L19.1781 25.9875C19.288 26.0318 19.4088 25.9528 19.4088 25.8366V22.9494C19.4088 22.8592 19.4836 22.7862 19.5758 22.7862H21.7705C21.8627 22.7862 21.9375 22.7131 21.9375 22.623V0.163212C21.9375 0.0730719 21.8627 0 21.7705 0H0.167013ZM11.6562 20.8729C11.636 20.8648 11.6143 20.8606 11.5925 20.8606H2.13745C2.04521 20.8606 1.97043 20.7875 1.97043 20.6974V2.0888C1.97043 1.99866 2.04521 1.92559 2.13745 1.92559H19.8001C19.8923 1.92559 19.9671 1.99866 19.9671 2.0888V20.6974C19.9671 20.7875 19.8923 20.8606 19.8001 20.8606H17.6054C17.5131 20.8606 17.4383 20.9337 17.4383 21.0238V22.9595C17.4383 23.0757 17.3176 23.1547 17.2077 23.1104L11.6562 20.8729Z" fill="white"/>
</svg>
