<svg width="364" height="86" viewBox="0 0 364 86" fill="none" xmlns="http://www.w3.org/2000/svg">
    <path
        d="M354.141 22.6344H362.428L343.359 44.4656L363.319 67.1879H355.21L338.636 48.6537L333.468 54.7129V67.1879H326.874V4.81299H333.468V46.9606L354.141 22.6344Z"
        fill="#001EBE" />
    <path d="M310.949 4.81299H317.454V67.1879H310.949V4.81299Z" fill="#001EBE" />
    <path
        d="M301.443 54.4462C301.443 59.852 301.859 64.0994 302.69 67.1885H296.007C295.413 64.8123 295.057 62.1094 294.938 59.0798C293.275 61.8124 291.047 64.0103 288.255 65.6737C285.522 67.337 282.433 68.1687 278.988 68.1687C274.711 68.1687 271.176 66.9212 268.384 64.4262C265.651 61.9312 264.285 58.753 264.285 54.8917C264.285 51.268 265.414 48.3869 267.671 46.2483C269.929 44.1098 273.077 42.9217 277.117 42.684L289.592 41.793C291.492 41.6742 292.829 41.288 293.601 40.6346C294.433 39.9217 294.849 38.8227 294.849 37.3376V37.1594C294.849 34.3674 293.75 32.0506 291.552 30.2091C289.354 28.3081 286.681 27.3576 283.532 27.3576C276.285 27.3576 272.275 30.4764 271.503 36.7139H264.642C264.939 32.1397 266.78 28.4863 270.166 25.7537C273.612 23.0211 278.037 21.6548 283.443 21.6548C286.889 21.6548 289.948 22.3676 292.621 23.7934C295.354 25.1597 297.492 27.0606 299.037 29.4962C300.641 31.8724 301.443 34.5753 301.443 37.6049V54.4462ZM270.968 54.5353C270.968 56.9115 271.859 58.8124 273.641 60.2381C275.483 61.6044 277.919 62.2876 280.948 62.2876C283.621 62.2876 285.998 61.6639 288.077 60.4164C290.156 59.1689 291.79 57.4758 292.978 55.3372C294.225 53.1987 294.849 50.7631 294.849 48.0305V46.6939L279.344 47.674C273.76 48.0899 270.968 50.377 270.968 54.5353Z"
        fill="#001EBE" />
    <path d="M271.102 9.26904V15.5065H253.726V67.1886H247.132V15.5065H229.757V9.26904H271.102Z" fill="#001EBE" />
    <path d="M190.457 22.6335H197.674L211.753 59.7912L225.476 22.6335H232.783L215.318 67.1871H207.922L190.457 22.6335Z"
        fill="#001EBE" />
    <path
        d="M149.073 44.7333C149.073 37.6641 150.944 32.0801 154.687 27.9811C158.429 23.8228 163.479 21.7437 169.835 21.7437C173.875 21.7437 177.439 22.6941 180.528 24.5951C183.676 26.496 186.142 29.1098 187.924 32.4365C189.706 35.7632 190.597 39.5651 190.597 43.8422V46.6045H155.934C156.172 51.6539 157.509 55.4855 159.944 58.0993C162.439 60.7131 165.914 62.02 170.37 62.02C173.993 62.02 176.875 61.2181 179.013 59.6141C181.211 58.0102 182.577 55.8419 183.112 53.1093H190.062C189.112 57.8617 186.973 61.5151 183.647 64.0695C180.379 66.6239 175.954 67.9011 170.37 67.9011C166.033 67.9011 162.261 66.9803 159.053 65.1388C155.845 63.2378 153.38 60.5646 151.657 57.1192C149.935 53.6143 149.073 49.4856 149.073 44.7333ZM169.835 27.3574C161.518 27.3574 156.915 31.991 156.024 41.2581H183.558C183.201 37.0404 181.775 33.684 179.281 31.189C176.845 28.6346 173.696 27.3574 169.835 27.3574Z"
        fill="#001EBE" />
    <path
        d="M120.641 9.26904C125.69 9.26904 130.086 10.5165 133.829 13.0115C137.631 15.5065 140.571 19.0114 142.65 23.5262C144.729 28.0409 145.769 33.2982 145.769 39.2981C145.769 44.8822 144.789 49.783 142.828 54.0008C140.928 58.1591 138.225 61.3967 134.72 63.7135C131.215 66.0302 127.116 67.1886 122.423 67.1886H99.0769V9.26904H120.641ZM105.671 15.3283V61.1293H121.532C127.057 61.1293 131.334 59.2284 134.363 55.4265C137.452 51.6246 138.997 46.2485 138.997 39.2981C138.997 31.6943 137.304 25.8133 133.918 21.6549C130.591 17.4372 125.868 15.3283 119.75 15.3283H105.671Z"
        fill="#001EBE" />
    <path
        d="M21.1838 43.1247V17.1391C21.1838 16.8432 21.4293 16.6034 21.732 16.6034H49.9654C52.3756 16.6034 54.3295 18.5128 54.3295 20.8682V52.8277C54.3295 55.1831 52.3756 57.0926 49.9654 57.0926H21.732C21.4293 57.0926 21.1838 56.8527 21.1838 56.5569V51.7788C21.1838 51.483 21.4293 51.2431 21.732 51.2431H45.6038C46.8037 51.2431 47.7764 50.2926 47.7764 49.12V24.8501C47.7764 23.6775 46.8037 22.727 45.6038 22.727H28.4751C28.1724 22.727 27.927 22.9669 27.927 23.2627V40.803C27.927 41.0185 27.7947 41.2131 27.5914 41.2967L21.9446 43.6185C21.5833 43.767 21.1838 43.5078 21.1838 43.1247Z"
        fill="#001EBE" />
    <path fill-rule="evenodd" clip-rule="evenodd"
        d="M1.06415 0C0.759048 0 0.511719 0.241702 0.511719 0.539856V74.8298C0.511719 75.1279 0.759049 75.3696 1.06415 75.3696H37.5648C37.637 75.3696 37.7086 75.3835 37.7754 75.4104L63.9469 85.9587C64.3106 86.1052 64.71 85.844 64.71 85.4596V75.9095C64.71 75.6113 64.9573 75.3696 65.2624 75.3696H72.5218C72.8269 75.3696 73.0742 75.1279 73.0742 74.8298V0.539854C73.0742 0.241699 72.8269 0 72.5218 0H1.06415ZM39.0667 69.0412C38.9999 69.0142 38.9283 69.0004 38.8561 69.0004H7.58174C7.27664 69.0004 7.02931 68.7587 7.02931 68.4605V6.90912C7.02931 6.61097 7.27664 6.36927 7.58174 6.36927H66.0042C66.3093 6.36927 66.5566 6.61096 66.5566 6.90912V68.4605C66.5566 68.7587 66.3093 69.0004 66.0042 69.0004H58.7448C58.4397 69.0004 58.1924 69.2421 58.1924 69.5402V75.943C58.1924 76.3274 57.793 76.5887 57.4293 76.4421L39.0667 69.0412Z"
        fill="#001EBE" />
</svg>