<svg width="125" height="122" viewBox="0 0 125 122" fill="none" xmlns="http://www.w3.org/2000/svg">
<path d="M8 58.5L6.5 58.5L6.5 59.1213L6.93934 59.5607L8 58.5ZM109 113.5C109 117.918 112.582 121.5 117 121.5C121.418 121.5 125 117.918 125 113.5C125 109.082 121.418 105.5 117 105.5C112.582 105.5 109 109.082 109 113.5ZM63 113.5L61.9394 114.561L62.3787 115L63 115L63 113.5ZM0 8C-3.86258e-07 12.4183 3.58172 16 8 16C12.4183 16 16 12.4183 16 8C16 3.58172 12.4183 3.86258e-07 8 0C3.58172 -3.86258e-07 3.86258e-07 3.58172 0 8ZM6.93934 59.5607L61.9394 114.561L64.0607 112.439L9.06066 57.4394L6.93934 59.5607ZM63 115L117 115L117 112L63 112L63 115ZM9.5 58.5L9.5 8L6.5 8L6.5 58.5L9.5 58.5Z" fill="#E2E2E2"/>
</svg>
