<svg width="1662" height="616" viewBox="0 0 1662 616" fill="none" xmlns="http://www.w3.org/2000/svg">
    <circle cx="209.5" cy="21.5" r="21.5" fill="#E2E2E2" />
    <circle cx="437.5" cy="168.5" r="21.5" fill="#E2E2E2" />
    <circle cx="549.5" cy="334.5" r="21.5" fill="#E2E2E2" />
    <circle cx="737.5" cy="514.5" r="21.5" fill="#E2E2E2" />
    <circle cx="983.5" cy="349.5" r="21.5" fill="#E2E2E2" />
    <circle cx="1279.5" cy="197.5" r="21.5" fill="#E2E2E2" />
    <circle cx="1640.5" cy="422.5" r="21.5" fill="#E2E2E2" />
    <path
        d="M18 49.72C18 51.376 17.388 52.924 16.344 54.04C17.784 55.228 18.72 57.028 18.72 59.08V60.52C18.72 64.12 15.84 67 12.24 67H2.88V41.8H11.52C15.12 41.8 18 44.68 18 48.28V49.72ZM6.48 63.4H12.24C13.86 63.4 15.12 62.14 15.12 60.52V59.08C15.12 57.46 13.86 56.2 12.24 56.2H6.48V63.4ZM6.48 52.6H11.52C13.14 52.6 14.4 51.34 14.4 49.72V48.28C14.4 46.66 13.14 45.4 11.52 45.4H6.48V52.6ZM40.3059 67H36.3459L31.7739 56.92H28.0659V67H24.4659V41.8H33.8259C37.4259 41.8 40.3059 44.68 40.3059 48.28V50.44C40.3059 53.428 38.3259 55.912 35.5899 56.668L40.3059 67ZM28.0659 53.32H33.8259C35.4459 53.32 36.7059 52.06 36.7059 50.44V48.28C36.7059 46.66 35.4459 45.4 33.8259 45.4H28.0659V53.32ZM46.0519 41.8H61.8919V45.4H55.7719V63.4H61.8919V67H46.0519V63.4H52.1719V45.4H46.0519V41.8ZM83.4778 41.8V45.4H71.2378V51.988H82.0378V55.588H71.2378V63.4H83.4778V67H67.6378V41.8H83.4778ZM105.064 41.8V45.4H92.8238V53.068H103.624V56.668H92.8238V67H89.2238V41.8H105.064ZM110.81 41.8H126.65V45.4H120.53V63.4H126.65V67H110.81V63.4H116.93V45.4H110.81V41.8ZM144.636 41.8H148.236V67H143.016L135.996 47.848V67H132.396V41.8H137.616L144.636 60.952V41.8ZM160.822 53.428H169.822V60.484C169.822 64.048 166.942 67 163.342 67H160.462C156.898 67 153.982 64.048 153.982 60.484V48.28C153.982 44.68 156.898 41.8 160.462 41.8H163.342C166.942 41.8 169.822 44.68 169.822 48.28V50.26H166.222V48.28C166.222 46.66 164.962 45.4 163.342 45.4H160.462C158.842 45.4 157.582 46.696 157.582 48.28V60.484C157.582 62.068 158.878 63.364 160.462 63.364H163.342C164.926 63.364 166.222 62.068 166.222 60.484V57.028H160.822V53.428Z"
        fill="#E2E2E2" />
    <path
        d="M84.6 105.48H86.6V106.28C86.6 107.22 87.38 108 88.32 108H89.66C90.68 108 91.4 107.36 91.4 106.48C91.4 103.72 84.8 103.12 84.8 99.32C84.8 97.36 86.34 96 88.52 96H89.46C91.52 96 93.2 97.66 93.2 99.72V100.32H91.2V99.72C91.2 98.76 90.42 98 89.46 98H88.52C87.44 98 86.8 98.5 86.8 99.32C86.8 101.44 93.4 102.26 93.4 106.48C93.4 108.48 91.78 110 89.66 110H88.32C86.26 110 84.6 108.34 84.6 106.28V105.48ZM96.5922 96H105.392V98H101.992V110H99.9922V98H96.5922V96ZM110.584 110H108.584V105.4L111.984 96H113.984L117.384 105.4V110H115.384V106.76H110.584V110ZM110.944 104.76H115.024L113.004 99.16H112.964L110.944 104.76ZM129.377 110H127.177L124.637 104.4H122.577V110H120.577V96H125.777C127.777 96 129.377 97.6 129.377 99.6V100.8C129.377 102.46 128.277 103.84 126.757 104.26L129.377 110ZM122.577 102.4H125.777C126.677 102.4 127.377 101.7 127.377 100.8V99.6C127.377 98.7 126.677 98 125.777 98H122.577V102.4ZM132.569 96H141.369V98H137.969V110H135.969V98H132.569V96ZM161.753 107.98C162.633 107.98 163.353 107.26 163.353 106.38V99.6C163.353 98.7 162.653 98 161.753 98H160.153C159.253 98 158.553 98.72 158.553 99.6V106.38C158.553 107.26 159.273 107.98 160.153 107.98H161.753ZM156.553 106.38V99.6C156.553 97.6 158.173 96 160.153 96H161.753C163.753 96 165.353 97.6 165.353 99.6V106.38C165.353 108.36 163.753 110 161.753 110H160.153C158.173 110 156.553 108.36 156.553 106.38ZM177.345 96V98H170.545V102.26H176.545V104.26H170.545V110H168.545V96H177.345ZM197.75 99.6L198.85 105.9L199.33 100V96H201.33V100.6L200.13 110H198.53L196.93 104.02L195.33 110H193.73L192.53 100.6V96H194.53V100L195.01 105.9L196.11 99.6H197.75ZM213.322 96V98H206.522V101.66H212.522V103.66H206.522V108H213.322V110H204.522V96H213.322ZM225.314 96V98H218.514V101.66H224.514V103.66H218.514V108H225.314V110H216.514V96H225.314ZM230.506 110H228.506V96H230.506V102H231.266L234.946 96H237.306L233.006 103L237.306 110H234.946L231.266 104H230.506V110ZM261.291 108V110H252.491V108H255.891V98.32L252.491 100.32V98L255.891 96H257.891V108H261.291ZM86.4 120H93.4V130.38C93.4 132.36 91.78 134 89.8 134H88.2C86.2 134 84.6 132.36 84.6 130.38V128.68H86.6V130.38C86.6 131.26 87.32 131.98 88.2 131.98H89.8C90.68 131.98 91.4 131.26 91.4 130.38V122H86.4V120ZM105.392 130.38C105.392 132.36 103.772 134 101.792 134H100.192C98.1922 134 96.5922 132.36 96.5922 130.38V120H98.5922V130.38C98.5922 131.26 99.3122 131.98 100.192 131.98H101.792C102.672 131.98 103.392 131.26 103.392 130.38V120H105.392V130.38ZM115.384 120H117.384V134H114.484L110.584 123.36V134H108.584V120H111.484L115.384 130.64V120ZM141.369 132V134H132.569V129.38L139.369 125.56V123.6C139.369 122.7 138.669 122 137.769 122H136.169C135.289 122 134.569 122.72 134.569 123.6V124.3H132.569V123.6C132.569 121.6 134.189 120 136.169 120H137.769C139.769 120 141.369 121.6 141.369 123.6V126.74L134.569 130.56V132H141.369ZM153.361 132V134H144.561V132H147.961V122.32L144.561 124.32V122L147.961 120H149.961V132H153.361Z"
        fill="#E2E2E2" />
    <path
        d="M232.6 253.48H234.6V254.28C234.6 255.22 235.38 256 236.32 256H237.66C238.68 256 239.4 255.36 239.4 254.48C239.4 251.72 232.8 251.12 232.8 247.32C232.8 245.36 234.34 244 236.52 244H237.46C239.52 244 241.2 245.66 241.2 247.72V248.32H239.2V247.72C239.2 246.76 238.42 246 237.46 246H236.52C235.44 246 234.8 246.5 234.8 247.32C234.8 249.44 241.4 250.26 241.4 254.48C241.4 256.48 239.78 258 237.66 258H236.32C234.26 258 232.6 256.34 232.6 254.28V253.48ZM244.592 244H253.392V246H249.992V258H247.992V246H244.592V244ZM258.584 258H256.584V253.4L259.984 244H261.984L265.384 253.4V258H263.384V254.76H258.584V258ZM258.944 252.76H263.024L261.004 247.16H260.964L258.944 252.76ZM277.377 258H275.177L272.637 252.4H270.577V258H268.577V244H273.777C275.777 244 277.377 245.6 277.377 247.6V248.8C277.377 250.46 276.277 251.84 274.757 252.26L277.377 258ZM270.577 250.4H273.777C274.677 250.4 275.377 249.7 275.377 248.8V247.6C275.377 246.7 274.677 246 273.777 246H270.577V250.4ZM280.569 244H289.369V246H285.969V258H283.969V246H280.569V244ZM309.753 255.98C310.633 255.98 311.353 255.26 311.353 254.38V247.6C311.353 246.7 310.653 246 309.753 246H308.153C307.253 246 306.553 246.72 306.553 247.6V254.38C306.553 255.26 307.273 255.98 308.153 255.98H309.753ZM304.553 254.38V247.6C304.553 245.6 306.173 244 308.153 244H309.753C311.753 244 313.353 245.6 313.353 247.6V254.38C313.353 256.36 311.753 258 309.753 258H308.153C306.173 258 304.553 256.36 304.553 254.38ZM325.345 244V246H318.545V250.26H324.545V252.26H318.545V258H316.545V244H325.345ZM345.75 247.6L346.85 253.9L347.33 248V244H349.33V248.6L348.13 258H346.53L344.93 252.02L343.33 258H341.73L340.53 248.6V244H342.53V248L343.01 253.9L344.11 247.6H345.75ZM361.322 244V246H354.522V249.66H360.522V251.66H354.522V256H361.322V258H352.522V244H361.322ZM373.314 244V246H366.514V249.66H372.514V251.66H366.514V256H373.314V258H364.514V244H373.314ZM378.506 258H376.506V244H378.506V250H379.266L382.946 244H385.306L381.006 251L385.306 258H382.946L379.266 252H378.506V258ZM409.291 256V258H400.491V256H403.891V246.32L400.491 248.32V246L403.891 244H405.891V256H409.291ZM425.275 251.66H432.475V253.66H425.275V251.66ZM241.4 268V270H234.6V273.66H240.6V275.66H234.6V280H241.4V282H232.6V268H241.4ZM251.392 268H253.392V282H250.492L246.592 271.36V282H244.592V268H247.492L251.392 278.64V268ZM261.784 268C263.764 268 265.384 269.6 265.384 271.6V278.38C265.384 280.36 263.764 282 261.784 282H256.584V268H261.784ZM258.584 279.98H261.784C262.664 279.98 263.384 279.26 263.384 278.38V271.6C263.384 270.72 262.684 270 261.784 270H258.584V279.98ZM285.769 279.98C286.649 279.98 287.369 279.26 287.369 278.38V271.6C287.369 270.7 286.669 270 285.769 270H284.169C283.269 270 282.569 270.72 282.569 271.6V278.38C282.569 279.26 283.289 279.98 284.169 279.98H285.769ZM280.569 278.38V271.6C280.569 269.6 282.189 268 284.169 268H285.769C287.769 268 289.369 269.6 289.369 271.6V278.38C289.369 280.36 287.769 282 285.769 282H284.169C282.189 282 280.569 280.36 280.569 278.38ZM301.361 268V270H294.561V274.26H300.561V276.26H294.561V282H292.561V268H301.361ZM321.765 271.6L322.865 277.9L323.345 272V268H325.345V272.6L324.145 282H322.545L320.945 276.02L319.345 282H317.745L316.545 272.6V268H318.545V272L319.025 277.9L320.125 271.6H321.765ZM337.338 268V270H330.538V273.66H336.538V275.66H330.538V280H337.338V282H328.538V268H337.338ZM349.33 268V270H342.53V273.66H348.53V275.66H342.53V280H349.33V282H340.53V268H349.33ZM354.522 282H352.522V268H354.522V274H355.282L358.962 268H361.322L357.022 275L361.322 282H358.962L355.282 276H354.522V282ZM385.306 280V282H376.506V280H379.906V270.32L376.506 272.32V270L379.906 268H381.906V280H385.306ZM234.4 292H241.4V302.38C241.4 304.36 239.78 306 237.8 306H236.2C234.2 306 232.6 304.36 232.6 302.38V300.68H234.6V302.38C234.6 303.26 235.32 303.98 236.2 303.98H237.8C238.68 303.98 239.4 303.26 239.4 302.38V294H234.4V292ZM253.392 302.38C253.392 304.36 251.772 306 249.792 306H248.192C246.192 306 244.592 304.36 244.592 302.38V292H246.592V302.38C246.592 303.26 247.312 303.98 248.192 303.98H249.792C250.672 303.98 251.392 303.26 251.392 302.38V292H253.392V302.38ZM263.384 292H265.384V306H262.484L258.584 295.36V306H256.584V292H259.484L263.384 302.64V292ZM289.369 304V306H280.569V301.38L287.369 297.56V295.6C287.369 294.7 286.669 294 285.769 294H284.169C283.289 294 282.569 294.72 282.569 295.6V296.3H280.569V295.6C280.569 293.6 282.189 292 284.169 292H285.769C287.769 292 289.369 293.6 289.369 295.6V298.74L282.569 302.56V304H289.369ZM301.361 304V306H292.561V304H295.961V294.32L292.561 296.32V294L295.961 292H297.961V304H301.361ZM317.345 299.66H324.545V301.66H317.345V299.66ZM342.33 292H349.33V302.38C349.33 304.36 347.71 306 345.73 306H344.13C342.13 306 340.53 304.36 340.53 302.38V300.68H342.53V302.38C342.53 303.26 343.25 303.98 344.13 303.98H345.73C346.61 303.98 347.33 303.26 347.33 302.38V294H342.33V292ZM361.322 302.38C361.322 304.36 359.702 306 357.722 306H356.122C354.122 306 352.522 304.36 352.522 302.38V292H354.522V302.38C354.522 303.26 355.242 303.98 356.122 303.98H357.722C358.602 303.98 359.322 303.26 359.322 302.38V292H361.322V302.38ZM371.314 292H373.314V306H370.414L366.514 295.36V306H364.514V292H367.414L371.314 302.64V292ZM397.298 304V306H388.498V301.38L395.298 297.56V295.6C395.298 294.7 394.598 294 393.698 294H392.098C391.218 294 390.498 294.72 390.498 295.6V296.3H388.498V295.6C388.498 293.6 390.118 292 392.098 292H393.698C395.698 292 397.298 293.6 397.298 295.6V298.74L390.498 302.56V304H397.298ZM405.691 304C406.571 304 407.291 303.28 407.291 302.38V301.4C407.291 300.5 406.591 299.8 405.691 299.8H404.091C403.191 299.8 402.491 300.52 402.491 301.4V302.38C402.491 303.28 403.211 304.02 404.091 304H405.691ZM400.491 302.38V301.4C400.491 300.32 400.971 299.36 401.711 298.7C401.091 298.04 400.691 297.16 400.691 296.18V295.6C400.691 293.6 402.311 292 404.291 292H405.491C407.491 292 409.091 293.6 409.091 295.6V296.18C409.091 297.16 408.711 298.04 408.071 298.7C408.831 299.36 409.291 300.32 409.291 301.4V302.38C409.291 304.36 407.691 306 405.691 306H404.091C402.111 306 400.491 304.36 400.491 302.38ZM402.691 296.18C402.691 297.06 403.371 297.78 404.231 297.8H405.491C406.371 297.8 407.091 297.08 407.091 296.18V295.6C407.091 294.7 406.391 294 405.491 294H404.291C403.391 294 402.691 294.72 402.691 295.6V296.18Z"
        fill="#E2E2E2" />
    <path
        d="M391.6 421.48H393.6V422.28C393.6 423.22 394.38 424 395.32 424H396.66C397.68 424 398.4 423.36 398.4 422.48C398.4 419.72 391.8 419.12 391.8 415.32C391.8 413.36 393.34 412 395.52 412H396.46C398.52 412 400.2 413.66 400.2 415.72V416.32H398.2V415.72C398.2 414.76 397.42 414 396.46 414H395.52C394.44 414 393.8 414.5 393.8 415.32C393.8 417.44 400.4 418.26 400.4 422.48C400.4 424.48 398.78 426 396.66 426H395.32C393.26 426 391.6 424.34 391.6 422.28V421.48ZM403.592 412H412.392V414H408.992V426H406.992V414H403.592V412ZM417.584 426H415.584V421.4L418.984 412H420.984L424.384 421.4V426H422.384V422.76H417.584V426ZM417.944 420.76H422.024L420.004 415.16H419.964L417.944 420.76ZM436.377 426H434.177L431.637 420.4H429.577V426H427.577V412H432.777C434.777 412 436.377 413.6 436.377 415.6V416.8C436.377 418.46 435.277 419.84 433.757 420.26L436.377 426ZM429.577 418.4H432.777C433.677 418.4 434.377 417.7 434.377 416.8V415.6C434.377 414.7 433.677 414 432.777 414H429.577V418.4ZM439.569 412H448.369V414H444.969V426H442.969V414H439.569V412ZM468.753 423.98C469.633 423.98 470.353 423.26 470.353 422.38V415.6C470.353 414.7 469.653 414 468.753 414H467.153C466.253 414 465.553 414.72 465.553 415.6V422.38C465.553 423.26 466.273 423.98 467.153 423.98H468.753ZM463.553 422.38V415.6C463.553 413.6 465.173 412 467.153 412H468.753C470.753 412 472.353 413.6 472.353 415.6V422.38C472.353 424.36 470.753 426 468.753 426H467.153C465.173 426 463.553 424.36 463.553 422.38ZM484.345 412V414H477.545V418.26H483.545V420.26H477.545V426H475.545V412H484.345ZM504.75 415.6L505.85 421.9L506.33 416V412H508.33V416.6L507.13 426H505.53L503.93 420.02L502.33 426H500.73L499.53 416.6V412H501.53V416L502.01 421.9L503.11 415.6H504.75ZM520.322 412V414H513.522V417.66H519.522V419.66H513.522V424H520.322V426H511.522V412H520.322ZM532.314 412V414H525.514V417.66H531.514V419.66H525.514V424H532.314V426H523.514V412H532.314ZM537.506 426H535.506V412H537.506V418H538.266L541.946 412H544.306L540.006 419L544.306 426H541.946L538.266 420H537.506V426ZM568.291 424V426H559.491V421.38L566.291 417.56V415.6C566.291 414.7 565.591 414 564.691 414H563.091C562.211 414 561.491 414.72 561.491 415.6V416.3H559.491V415.6C559.491 413.6 561.111 412 563.091 412H564.691C566.691 412 568.291 413.6 568.291 415.6V418.74L561.491 422.56V424H568.291ZM584.275 419.66H591.475V421.66H584.275V419.66ZM400.4 436V438H393.6V441.66H399.6V443.66H393.6V448H400.4V450H391.6V436H400.4ZM410.392 436H412.392V450H409.492L405.592 439.36V450H403.592V436H406.492L410.392 446.64V436ZM420.784 436C422.764 436 424.384 437.6 424.384 439.6V446.38C424.384 448.36 422.764 450 420.784 450H415.584V436H420.784ZM417.584 447.98H420.784C421.664 447.98 422.384 447.26 422.384 446.38V439.6C422.384 438.72 421.684 438 420.784 438H417.584V447.98ZM444.769 447.98C445.649 447.98 446.369 447.26 446.369 446.38V439.6C446.369 438.7 445.669 438 444.769 438H443.169C442.269 438 441.569 438.72 441.569 439.6V446.38C441.569 447.26 442.289 447.98 443.169 447.98H444.769ZM439.569 446.38V439.6C439.569 437.6 441.189 436 443.169 436H444.769C446.769 436 448.369 437.6 448.369 439.6V446.38C448.369 448.36 446.769 450 444.769 450H443.169C441.189 450 439.569 448.36 439.569 446.38ZM460.361 436V438H453.561V442.26H459.561V444.26H453.561V450H451.561V436H460.361ZM480.765 439.6L481.865 445.9L482.345 440V436H484.345V440.6L483.145 450H481.545L479.945 444.02L478.345 450H476.745L475.545 440.6V436H477.545V440L478.025 445.9L479.125 439.6H480.765ZM496.338 436V438H489.538V441.66H495.538V443.66H489.538V448H496.338V450H487.538V436H496.338ZM508.33 436V438H501.53V441.66H507.53V443.66H501.53V448H508.33V450H499.53V436H508.33ZM513.522 450H511.522V436H513.522V442H514.282L517.962 436H520.322L516.022 443L520.322 450H517.962L514.282 444H513.522V450ZM544.306 440.4C544.306 441.42 543.886 442.34 543.206 443C543.886 443.66 544.306 444.58 544.306 445.6V446.4C544.306 448.4 542.706 450 540.706 450H539.106C537.126 450 535.506 448.4 535.506 446.4V445.7H537.506V446.4C537.506 447.28 538.226 448 539.106 448H540.706C541.606 448 542.306 447.3 542.306 446.4V445.6C542.306 444.7 541.606 444 540.706 444H539.306V442H540.706C541.606 442 542.306 441.3 542.306 440.4V439.6C542.306 438.7 541.606 438 540.706 438H539.106C538.226 438 537.506 438.72 537.506 439.6V440.3H535.506V439.6C535.506 437.6 537.126 436 539.106 436H540.706C542.706 436 544.306 437.6 544.306 439.6V440.4ZM393.4 460H400.4V470.38C400.4 472.36 398.78 474 396.8 474H395.2C393.2 474 391.6 472.36 391.6 470.38V468.68H393.6V470.38C393.6 471.26 394.32 471.98 395.2 471.98H396.8C397.68 471.98 398.4 471.26 398.4 470.38V462H393.4V460ZM412.392 470.38C412.392 472.36 410.772 474 408.792 474H407.192C405.192 474 403.592 472.36 403.592 470.38V460H405.592V470.38C405.592 471.26 406.312 471.98 407.192 471.98H408.792C409.672 471.98 410.392 471.26 410.392 470.38V460H412.392V470.38ZM422.384 460H424.384V474H421.484L417.584 463.36V474H415.584V460H418.484L422.384 470.64V460ZM448.369 472V474H439.569V469.38L446.369 465.56V463.6C446.369 462.7 445.669 462 444.769 462H443.169C442.289 462 441.569 462.72 441.569 463.6V464.3H439.569V463.6C439.569 461.6 441.189 460 443.169 460H444.769C446.769 460 448.369 461.6 448.369 463.6V466.74L441.569 470.56V472H448.369ZM456.761 472C457.641 472 458.361 471.28 458.361 470.38V469.4C458.361 468.5 457.661 467.8 456.761 467.8H455.161C454.261 467.8 453.561 468.52 453.561 469.4V470.38C453.561 471.28 454.281 472.02 455.161 472H456.761ZM451.561 470.38V469.4C451.561 468.32 452.041 467.36 452.781 466.7C452.161 466.04 451.761 465.16 451.761 464.18V463.6C451.761 461.6 453.381 460 455.361 460H456.561C458.561 460 460.161 461.6 460.161 463.6V464.18C460.161 465.16 459.781 466.04 459.141 466.7C459.901 467.36 460.361 468.32 460.361 469.4V470.38C460.361 472.36 458.761 474 456.761 474H455.161C453.181 474 451.561 472.36 451.561 470.38ZM453.761 464.18C453.761 465.06 454.441 465.78 455.301 465.8H456.561C457.441 465.8 458.161 465.08 458.161 464.18V463.6C458.161 462.7 457.461 462 456.561 462H455.361C454.461 462 453.761 462.72 453.761 463.6V464.18ZM476.345 467.66H483.545V469.66H476.345V467.66ZM501.33 460H508.33V470.38C508.33 472.36 506.71 474 504.73 474H503.13C501.13 474 499.53 472.36 499.53 470.38V468.68H501.53V470.38C501.53 471.26 502.25 471.98 503.13 471.98H504.73C505.61 471.98 506.33 471.26 506.33 470.38V462H501.33V460ZM520.322 470.38C520.322 472.36 518.702 474 516.722 474H515.122C513.122 474 511.522 472.36 511.522 470.38V460H513.522V470.38C513.522 471.26 514.242 471.98 515.122 471.98H516.722C517.602 471.98 518.322 471.26 518.322 470.38V460H520.322V470.38ZM525.514 460V472H532.314V474H523.514V460H525.514ZM556.298 472V474H547.498V472H550.898V462.32L547.498 464.32V462L550.898 460H552.898V472H556.298ZM568.291 472V474H559.491V469.38L566.291 465.56V463.6C566.291 462.7 565.591 462 564.691 462H563.091C562.211 462 561.491 462.72 561.491 463.6V464.3H559.491V463.6C559.491 461.6 561.111 460 563.091 460H564.691C566.691 460 568.291 461.6 568.291 463.6V466.74L561.491 470.56V472H568.291Z"
        fill="#E2E2E2" />
    <path
        d="M536.6 587.48H538.6V588.28C538.6 589.22 539.38 590 540.32 590H541.66C542.68 590 543.4 589.36 543.4 588.48C543.4 585.72 536.8 585.12 536.8 581.32C536.8 579.36 538.34 578 540.52 578H541.46C543.52 578 545.2 579.66 545.2 581.72V582.32H543.2V581.72C543.2 580.76 542.42 580 541.46 580H540.52C539.44 580 538.8 580.5 538.8 581.32C538.8 583.44 545.4 584.26 545.4 588.48C545.4 590.48 543.78 592 541.66 592H540.32C538.26 592 536.6 590.34 536.6 588.28V587.48ZM548.592 578H557.392V580H553.992V592H551.992V580H548.592V578ZM562.584 592H560.584V587.4L563.984 578H565.984L569.384 587.4V592H567.384V588.76H562.584V592ZM562.944 586.76H567.024L565.004 581.16H564.964L562.944 586.76ZM581.377 592H579.177L576.637 586.4H574.577V592H572.577V578H577.777C579.777 578 581.377 579.6 581.377 581.6V582.8C581.377 584.46 580.277 585.84 578.757 586.26L581.377 592ZM574.577 584.4H577.777C578.677 584.4 579.377 583.7 579.377 582.8V581.6C579.377 580.7 578.677 580 577.777 580H574.577V584.4ZM584.569 578H593.369V580H589.969V592H587.969V580H584.569V578ZM613.753 589.98C614.633 589.98 615.353 589.26 615.353 588.38V581.6C615.353 580.7 614.653 580 613.753 580H612.153C611.253 580 610.553 580.72 610.553 581.6V588.38C610.553 589.26 611.273 589.98 612.153 589.98H613.753ZM608.553 588.38V581.6C608.553 579.6 610.173 578 612.153 578H613.753C615.753 578 617.353 579.6 617.353 581.6V588.38C617.353 590.36 615.753 592 613.753 592H612.153C610.173 592 608.553 590.36 608.553 588.38ZM629.345 578V580H622.545V584.26H628.545V586.26H622.545V592H620.545V578H629.345ZM649.75 581.6L650.85 587.9L651.33 582V578H653.33V582.6L652.13 592H650.53L648.93 586.02L647.33 592H645.73L644.53 582.6V578H646.53V582L647.01 587.9L648.11 581.6H649.75ZM665.322 578V580H658.522V583.66H664.522V585.66H658.522V590H665.322V592H656.522V578H665.322ZM677.314 578V580H670.514V583.66H676.514V585.66H670.514V590H677.314V592H668.514V578H677.314ZM682.506 592H680.506V578H682.506V584H683.266L686.946 578H689.306L685.006 585L689.306 592H686.946L683.266 586H682.506V592ZM709.291 579.2H711.291V584.2H713.291V586.2H711.291V592H709.291V586.2H704.491V578H706.491V584.2H709.291V579.2ZM538.4 602H545.4V612.38C545.4 614.36 543.78 616 541.8 616H540.2C538.2 616 536.6 614.36 536.6 612.38V610.68H538.6V612.38C538.6 613.26 539.32 613.98 540.2 613.98H541.8C542.68 613.98 543.4 613.26 543.4 612.38V604H538.4V602ZM557.392 612.38C557.392 614.36 555.772 616 553.792 616H552.192C550.192 616 548.592 614.36 548.592 612.38V602H550.592V612.38C550.592 613.26 551.312 613.98 552.192 613.98H553.792C554.672 613.98 555.392 613.26 555.392 612.38V602H557.392V612.38ZM562.584 602V614H569.384V616H560.584V602H562.584ZM593.369 614V616H584.569V614H587.969V604.32L584.569 606.32V604L587.969 602H589.969V614H593.369ZM596.561 610.06V602H604.161V604H598.561V607.64L600.221 606.52H601.761C603.741 606.52 605.361 608.12 605.361 610.12V612.4C605.361 614.4 603.761 616 601.761 616H600.161C598.181 616 596.561 614.4 596.561 612.4V612.2H598.561V612.4C598.561 613.28 599.281 614 600.161 614H601.761C602.661 614 603.361 613.3 603.361 612.4V610.12C603.361 609.24 602.641 608.52 601.761 608.52H600.841L598.561 610.06H596.561Z"
        fill="#E2E2E2" />
    <path
        d="M809.46 456.36L807.6 452.4V462H805.6V448H807.6L810 453.22L812.4 448H814.4V462H812.4V452.4L810.54 456.36H809.46ZM817.592 448H826.392V450H822.992V460H826.392V462H817.592V460H820.992V450H817.592V448ZM834.784 448C836.764 448 838.384 449.6 838.384 451.6V458.38C838.384 460.36 836.764 462 834.784 462H829.584V448H834.784ZM831.584 459.98H834.784C835.664 459.98 836.384 459.26 836.384 458.38V451.6C836.384 450.72 835.684 450 834.784 450H831.584V459.98ZM858.789 451.6L859.889 457.9L860.369 452V448H862.369V452.6L861.169 462H859.569L857.969 456.02L856.369 462H854.769L853.569 452.6V448H855.569V452L856.049 457.9L857.149 451.6H858.789ZM874.361 448V450H867.561V453.66H873.561V455.66H867.561V460H874.361V462H865.561V448H874.361ZM886.353 448V450H879.553V453.66H885.553V455.66H879.553V460H886.353V462H877.553V448H886.353ZM891.545 462H889.545V448H891.545V454H892.305L895.985 448H898.345L894.045 455L898.345 462H895.985L892.305 456H891.545V462ZM918.33 449.2H920.33V454.2H922.33V456.2H920.33V462H918.33V456.2H913.53V448H915.53V454.2H918.33V449.2ZM807.4 472H814.4V482.38C814.4 484.36 812.78 486 810.8 486H809.2C807.2 486 805.6 484.36 805.6 482.38V480.68H807.6V482.38C807.6 483.26 808.32 483.98 809.2 483.98H810.8C811.68 483.98 812.4 483.26 812.4 482.38V474H807.4V472ZM826.392 482.38C826.392 484.36 824.772 486 822.792 486H821.192C819.192 486 817.592 484.36 817.592 482.38V472H819.592V482.38C819.592 483.26 820.312 483.98 821.192 483.98H822.792C823.672 483.98 824.392 483.26 824.392 482.38V472H826.392V482.38ZM831.584 472V484H838.384V486H829.584V472H831.584ZM862.369 484V486H853.569V484H856.969V474.32L853.569 476.32V474L856.969 472H858.969V484H862.369ZM868.361 486H866.361V482.1L872.361 475.9V474H867.561V476.2H865.561V472H874.361V476.7L868.361 482.9V486Z"
        fill="#E2E2E2" />
    <path
        d="M1214.4 295V297H1207.6V300.66H1213.6V302.66H1207.6V307H1214.4V309H1205.6V295H1214.4ZM1224.39 295H1226.39V309H1223.49L1219.59 298.36V309H1217.59V295H1220.49L1224.39 305.64V295ZM1234.78 295C1236.76 295 1238.38 296.6 1238.38 298.6V305.38C1238.38 307.36 1236.76 309 1234.78 309H1229.58V295H1234.78ZM1231.58 306.98H1234.78C1235.66 306.98 1236.38 306.26 1236.38 305.38V298.6C1236.38 297.72 1235.68 297 1234.78 297H1231.58V306.98ZM1258.77 306.98C1259.65 306.98 1260.37 306.26 1260.37 305.38V298.6C1260.37 297.7 1259.67 297 1258.77 297H1257.17C1256.27 297 1255.57 297.72 1255.57 298.6V305.38C1255.57 306.26 1256.29 306.98 1257.17 306.98H1258.77ZM1253.57 305.38V298.6C1253.57 296.6 1255.19 295 1257.17 295H1258.77C1260.77 295 1262.37 296.6 1262.37 298.6V305.38C1262.37 307.36 1260.77 309 1258.77 309H1257.17C1255.19 309 1253.57 307.36 1253.57 305.38ZM1274.36 295V297H1267.56V301.26H1273.56V303.26H1267.56V309H1265.56V295H1274.36ZM1294.77 298.6L1295.87 304.9L1296.35 299V295H1298.35V299.6L1297.15 309H1295.55L1293.95 303.02L1292.35 309H1290.75L1289.55 299.6V295H1291.55V299L1292.03 304.9L1293.13 298.6H1294.77ZM1310.34 295V297H1303.54V300.66H1309.54V302.66H1303.54V307H1310.34V309H1301.54V295H1310.34ZM1322.33 295V297H1315.53V300.66H1321.53V302.66H1315.53V307H1322.33V309H1313.53V295H1322.33ZM1327.52 309H1325.52V295H1327.52V301H1328.28L1331.96 295H1334.32L1330.02 302L1334.32 309H1331.96L1328.28 303H1327.52V309ZM1354.31 296.2H1356.31V301.2H1358.31V303.2H1356.31V309H1354.31V303.2H1349.51V295H1351.51V301.2H1354.31V296.2ZM1207.4 319H1214.4V329.38C1214.4 331.36 1212.78 333 1210.8 333H1209.2C1207.2 333 1205.6 331.36 1205.6 329.38V327.68H1207.6V329.38C1207.6 330.26 1208.32 330.98 1209.2 330.98H1210.8C1211.68 330.98 1212.4 330.26 1212.4 329.38V321H1207.4V319ZM1226.39 329.38C1226.39 331.36 1224.77 333 1222.79 333H1221.19C1219.19 333 1217.59 331.36 1217.59 329.38V319H1219.59V329.38C1219.59 330.26 1220.31 330.98 1221.19 330.98H1222.79C1223.67 330.98 1224.39 330.26 1224.39 329.38V319H1226.39V329.38ZM1231.58 319V331H1238.38V333H1229.58V319H1231.58ZM1262.37 331V333H1253.57V331H1256.97V321.32L1253.57 323.32V321L1256.97 319H1258.97V331H1262.37ZM1272.36 322.6C1272.36 321.72 1271.64 321 1270.76 321H1269.16C1268.26 321 1267.56 321.7 1267.56 322.6V324.28C1267.56 325.16 1268.28 325.88 1269.16 325.88H1270.08L1272.36 324.34V322.6ZM1265.56 329.4V328.8H1267.56V329.4C1267.56 330.3 1268.26 331 1269.16 331H1270.76C1271.66 331 1272.36 330.3 1272.36 329.4V326.76L1270.7 327.88H1269.16C1267.18 327.88 1265.56 326.28 1265.56 324.28V322.6C1265.56 320.6 1267.16 319 1269.16 319H1270.76C1272.74 319 1274.36 320.6 1274.36 322.6V329.4C1274.36 331.4 1272.76 333 1270.76 333H1269.16C1267.16 333 1265.56 331.4 1265.56 329.4Z"
        fill="#E2E2E2" />
    <path
        d="M1438.4 502V504H1431.6V507.66H1437.6V509.66H1431.6V514H1438.4V516H1429.6V502H1438.4ZM1448.39 502H1450.39V506.6L1446.99 516H1444.99L1441.59 506.6V502H1443.59V506.24L1445.97 512.84H1446.01L1448.39 506.24V502ZM1462.38 502V504H1455.58V507.66H1461.58V509.66H1455.58V514H1462.38V516H1453.58V502H1462.38ZM1474.38 516H1472.18L1469.64 510.4H1467.58V516H1465.58V502H1470.78C1472.78 502 1474.38 503.6 1474.38 505.6V506.8C1474.38 508.46 1473.28 509.84 1471.76 510.26L1474.38 516ZM1467.58 508.4H1470.78C1471.68 508.4 1472.38 507.7 1472.38 506.8V505.6C1472.38 504.7 1471.68 504 1470.78 504H1467.58V508.4ZM1480.97 516V511.02L1477.57 506.8V502H1479.57V506.08L1481.93 509.02H1481.97L1484.37 505.88V502H1486.37V506.56L1482.97 511.02V516H1480.97ZM1505.41 510.36L1503.55 506.4V516H1501.55V502H1503.55L1505.95 507.22L1508.35 502H1510.35V516H1508.35V506.4L1506.49 510.36H1505.41ZM1518.75 513.98C1519.63 513.98 1520.35 513.26 1520.35 512.38V505.6C1520.35 504.7 1519.65 504 1518.75 504H1517.15C1516.25 504 1515.55 504.72 1515.55 505.6V512.38C1515.55 513.26 1516.27 513.98 1517.15 513.98H1518.75ZM1513.55 512.38V505.6C1513.55 503.6 1515.17 502 1517.15 502H1518.75C1520.75 502 1522.35 503.6 1522.35 505.6V512.38C1522.35 514.36 1520.75 516 1518.75 516H1517.15C1515.17 516 1513.55 514.36 1513.55 512.38ZM1532.34 502H1534.34V516H1531.44L1527.54 505.36V516H1525.54V502H1528.44L1532.34 512.64V502ZM1537.53 502H1546.33V504H1542.93V516H1540.93V504H1537.53V502ZM1551.52 502V507.6H1556.32V502H1558.32V516H1556.32V509.6H1551.52V516H1549.52V502H1551.52ZM1438.4 526V528H1431.6V532.26H1437.6V534.26H1431.6V540H1429.6V526H1438.4ZM1446.79 537.98C1447.67 537.98 1448.39 537.26 1448.39 536.38V529.6C1448.39 528.7 1447.69 528 1446.79 528H1445.19C1444.29 528 1443.59 528.72 1443.59 529.6V536.38C1443.59 537.26 1444.31 537.98 1445.19 537.98H1446.79ZM1441.59 536.38V529.6C1441.59 527.6 1443.21 526 1445.19 526H1446.79C1448.79 526 1450.39 527.6 1450.39 529.6V536.38C1450.39 538.36 1448.79 540 1446.79 540H1445.19C1443.21 540 1441.59 538.36 1441.59 536.38ZM1462.38 540H1460.18L1457.64 534.4H1455.58V540H1453.58V526H1458.78C1460.78 526 1462.38 527.6 1462.38 529.6V530.8C1462.38 532.46 1461.28 533.84 1459.76 534.26L1462.38 540ZM1455.58 532.4H1458.78C1459.68 532.4 1460.38 531.7 1460.38 530.8V529.6C1460.38 528.7 1459.68 528 1458.78 528H1455.58V532.4ZM1486.37 530.4C1486.37 531.42 1485.95 532.34 1485.27 533C1485.95 533.66 1486.37 534.58 1486.37 535.6V536.4C1486.37 538.4 1484.77 540 1482.77 540H1481.17C1479.19 540 1477.57 538.4 1477.57 536.4V535.7H1479.57V536.4C1479.57 537.28 1480.29 538 1481.17 538H1482.77C1483.67 538 1484.37 537.3 1484.37 536.4V535.6C1484.37 534.7 1483.67 534 1482.77 534H1481.37V532H1482.77C1483.67 532 1484.37 531.3 1484.37 530.4V529.6C1484.37 528.7 1483.67 528 1482.77 528H1481.17C1480.29 528 1479.57 528.72 1479.57 529.6V530.3H1477.57V529.6C1477.57 527.6 1479.19 526 1481.17 526H1482.77C1484.77 526 1486.37 527.6 1486.37 529.6V530.4ZM1505.41 534.36L1503.55 530.4V540H1501.55V526H1503.55L1505.95 531.22L1508.35 526H1510.35V540H1508.35V530.4L1506.49 534.36H1505.41ZM1518.75 537.98C1519.63 537.98 1520.35 537.26 1520.35 536.38V529.6C1520.35 528.7 1519.65 528 1518.75 528H1517.15C1516.25 528 1515.55 528.72 1515.55 529.6V536.38C1515.55 537.26 1516.27 537.98 1517.15 537.98H1518.75ZM1513.55 536.38V529.6C1513.55 527.6 1515.17 526 1517.15 526H1518.75C1520.75 526 1522.35 527.6 1522.35 529.6V536.38C1522.35 538.36 1520.75 540 1518.75 540H1517.15C1515.17 540 1513.55 538.36 1513.55 536.38ZM1532.34 526H1534.34V540H1531.44L1527.54 529.36V540H1525.54V526H1528.44L1532.34 536.64V526ZM1537.53 526H1546.33V528H1542.93V540H1540.93V528H1537.53V526ZM1551.52 526V531.6H1556.32V526H1558.32V540H1556.32V533.6H1551.52V540H1549.52V526H1551.52ZM1561.51 535.48H1563.51V536.28C1563.51 537.22 1564.29 538 1565.23 538H1566.57C1567.59 538 1568.31 537.36 1568.31 536.48C1568.31 533.72 1561.71 533.12 1561.71 529.32C1561.71 527.36 1563.25 526 1565.43 526H1566.37C1568.43 526 1570.11 527.66 1570.11 529.72V530.32H1568.11V529.72C1568.11 528.76 1567.33 528 1566.37 528H1565.43C1564.35 528 1563.71 528.5 1563.71 529.32C1563.71 531.44 1570.31 532.26 1570.31 536.48C1570.31 538.48 1568.69 540 1566.57 540H1565.23C1563.17 540 1561.51 538.34 1561.51 536.28V535.48Z"
        fill="#E2E2E2" />
    <path d="M214.48 26.6V29H203.92V26.6H208V14.984L203.92 17.384V14.6L208 12.2H210.4V26.6H214.48Z" fill="#001EBE" />
    <path
        d="M442.48 173.6V176H431.92V170.456L440.08 165.872V163.52C440.08 162.44 439.24 161.6 438.16 161.6H436.24C435.184 161.6 434.32 162.464 434.32 163.52V164.36H431.92V163.52C431.92 161.12 433.864 159.2 436.24 159.2H438.16C440.56 159.2 442.48 161.12 442.48 163.52V167.288L434.32 171.872V173.6H442.48Z"
        fill="#001EBE" />
    <path
        d="M554.48 330.48C554.48 331.704 553.976 332.808 553.16 333.6C553.976 334.392 554.48 335.496 554.48 336.72V337.68C554.48 340.08 552.56 342 550.16 342H548.24C545.864 342 543.92 340.08 543.92 337.68V336.84H546.32V337.68C546.32 338.736 547.184 339.6 548.24 339.6H550.16C551.24 339.6 552.08 338.76 552.08 337.68V336.72C552.08 335.64 551.24 334.8 550.16 334.8H548.48V332.4H550.16C551.24 332.4 552.08 331.56 552.08 330.48V329.52C552.08 328.44 551.24 327.6 550.16 327.6H548.24C547.184 327.6 546.32 328.464 546.32 329.52V330.36H543.92V329.52C543.92 327.12 545.864 325.2 548.24 325.2H550.16C552.56 325.2 554.48 327.12 554.48 329.52V330.48Z"
        fill="#001EBE" />
    <path
        d="M737.68 506.64H740.08V512.64H742.48V515.04H740.08V522H737.68V515.04H731.92V505.2H734.32V512.64H737.68V506.64Z"
        fill="#001EBE" />
    <path
        d="M977.92 349.872V340.2H987.04V342.6H980.32V346.968L982.312 345.624H984.16C986.536 345.624 988.48 347.544 988.48 349.944V352.68C988.48 355.08 986.56 357 984.16 357H982.24C979.864 357 977.92 355.08 977.92 352.68V352.44H980.32V352.68C980.32 353.736 981.184 354.6 982.24 354.6H984.16C985.24 354.6 986.08 353.76 986.08 352.68V349.944C986.08 348.888 985.216 348.024 984.16 348.024H983.056L980.32 349.872H977.92Z"
        fill="#001EBE" />
    <path
        d="M1276.32 200.68C1276.32 201.736 1277.18 202.6 1278.24 202.6H1280.16C1281.24 202.6 1282.08 201.76 1282.08 200.68V198.664C1282.08 197.608 1281.22 196.744 1280.16 196.744H1279.06L1276.32 198.592V200.68ZM1273.92 200.68V192.52C1273.92 190.12 1275.84 188.2 1278.24 188.2H1280.16C1282.56 188.2 1284.48 190.12 1284.48 192.52V193.24H1282.08V192.52C1282.08 191.44 1281.24 190.6 1280.16 190.6H1278.24C1277.16 190.6 1276.32 191.44 1276.32 192.52V195.688L1278.31 194.344H1280.16C1282.54 194.344 1284.48 196.264 1284.48 198.664V200.68C1284.48 203.08 1282.56 205 1280.16 205H1278.24C1275.86 205 1273.92 203.08 1273.92 200.68Z"
        fill="#001EBE" />
    <path
        d="M1638.28 430H1635.88V425.32L1643.08 417.88V415.6H1637.32V418.24H1634.92V413.2H1645.48V418.84L1638.28 426.28V430Z"
        fill="#001EBE" />
    <path
        d="M174.72 220H170.76L166.188 209.92H162.48V220H158.88V194.8H168.24C171.84 194.8 174.72 197.68 174.72 201.28V203.44C174.72 206.428 172.74 208.912 170.004 209.668L174.72 220ZM162.48 206.32H168.24C169.86 206.32 171.12 205.06 171.12 203.44V201.28C171.12 199.66 169.86 198.4 168.24 198.4H162.48V206.32ZM196.306 194.8V198.4H184.066V204.988H194.866V208.588H184.066V216.4H196.306V220H180.466V194.8H196.306ZM208.892 206.428H217.892V213.484C217.892 217.048 215.012 220 211.412 220H208.532C204.968 220 202.052 217.048 202.052 213.484V201.28C202.052 197.68 204.968 194.8 208.532 194.8H211.412C215.012 194.8 217.892 197.68 217.892 201.28V203.26H214.292V201.28C214.292 199.66 213.032 198.4 211.412 198.4H208.532C206.912 198.4 205.652 199.696 205.652 201.28V213.484C205.652 215.068 206.948 216.364 208.532 216.364H211.412C212.996 216.364 214.292 215.068 214.292 213.484V210.028H208.892V206.428ZM223.638 194.8H239.478V198.4H233.358V216.4H239.478V220H223.638V216.4H229.758V198.4H223.638V194.8ZM245.224 211.864H248.824V213.304C248.824 214.996 250.228 216.4 251.92 216.4H254.332C256.168 216.4 257.464 215.248 257.464 213.664C257.464 208.696 245.584 207.616 245.584 200.776C245.584 197.248 248.356 194.8 252.28 194.8H253.972C257.68 194.8 260.704 197.788 260.704 201.496V202.576H257.104V201.496C257.104 199.768 255.7 198.4 253.972 198.4H252.28C250.336 198.4 249.184 199.3 249.184 200.776C249.184 204.592 261.064 206.068 261.064 213.664C261.064 217.264 258.148 220 254.332 220H251.92C248.212 220 245.224 217.012 245.224 213.304V211.864ZM266.81 194.8H282.65V198.4H276.53V220H272.93V198.4H266.81V194.8ZM304.236 220H300.276L295.704 209.92H291.996V220H288.396V194.8H297.756C301.356 194.8 304.236 197.68 304.236 201.28V203.44C304.236 206.428 302.256 208.912 299.52 209.668L304.236 220ZM291.996 206.32H297.756C299.376 206.32 300.636 205.06 300.636 203.44V201.28C300.636 199.66 299.376 198.4 297.756 198.4H291.996V206.32ZM313.582 220H309.982V211.72L316.102 194.8H319.702L325.822 211.72V220H322.222V214.168H313.582V220ZM314.23 210.568H321.574L317.938 200.488H317.866L314.23 210.568ZM331.568 194.8H347.408V198.4H341.288V220H337.688V198.4H331.568V194.8ZM353.153 194.8H368.993V198.4H362.873V216.4H368.993V220H353.153V216.4H359.273V198.4H353.153V194.8ZM384.099 216.364C385.683 216.364 386.979 215.068 386.979 213.484V201.28C386.979 199.66 385.719 198.4 384.099 198.4H381.219C379.599 198.4 378.339 199.696 378.339 201.28V213.484C378.339 215.068 379.635 216.364 381.219 216.364H384.099ZM374.739 213.484V201.28C374.739 197.68 377.655 194.8 381.219 194.8H384.099C387.699 194.8 390.579 197.68 390.579 201.28V213.484C390.579 217.048 387.699 220 384.099 220H381.219C377.655 220 374.739 217.048 374.739 213.484ZM408.565 194.8H412.165V220H406.945L399.925 200.848V220H396.325V194.8H401.545L408.565 213.952V194.8Z"
        fill="#E2E2E2" />
    <path
        d="M320.88 383.864H324.48V385.304C324.48 386.996 325.884 388.4 327.576 388.4H329.988C331.824 388.4 333.12 387.248 333.12 385.664C333.12 380.696 321.24 379.616 321.24 372.776C321.24 369.248 324.012 366.8 327.936 366.8H329.628C333.336 366.8 336.36 369.788 336.36 373.496V374.576H332.76V373.496C332.76 371.768 331.356 370.4 329.628 370.4H327.936C325.992 370.4 324.84 371.3 324.84 372.776C324.84 376.592 336.72 378.068 336.72 385.664C336.72 389.264 333.804 392 329.988 392H327.576C323.868 392 320.88 389.012 320.88 385.304V383.864ZM358.306 385.484C358.306 389.048 355.39 392 351.826 392H348.946C345.346 392 342.466 389.048 342.466 385.484V366.8H346.066V385.484C346.066 387.068 347.362 388.364 348.946 388.364H351.826C353.41 388.364 354.706 387.068 354.706 385.484V366.8H358.306V385.484ZM379.172 374.72C379.172 376.376 378.56 377.924 377.516 379.04C378.956 380.228 379.892 382.028 379.892 384.08V385.52C379.892 389.12 377.012 392 373.412 392H364.052V366.8H372.692C376.292 366.8 379.172 369.68 379.172 373.28V374.72ZM367.652 388.4H373.412C375.032 388.4 376.292 387.14 376.292 385.52V384.08C376.292 382.46 375.032 381.2 373.412 381.2H367.652V388.4ZM367.652 377.6H372.692C374.312 377.6 375.572 376.34 375.572 374.72V373.28C375.572 371.66 374.312 370.4 372.692 370.4H367.652V377.6ZM392.586 381.848L389.238 374.72V392H385.638V366.8H389.238L393.558 376.196L397.878 366.8H401.478V392H397.878V374.72L394.53 381.848H392.586ZM407.224 366.8H423.064V370.4H416.944V388.4H423.064V392H407.224V388.4H413.344V370.4H407.224V366.8ZM428.81 383.864H432.41V385.304C432.41 386.996 433.814 388.4 435.506 388.4H437.918C439.754 388.4 441.05 387.248 441.05 385.664C441.05 380.696 429.17 379.616 429.17 372.776C429.17 369.248 431.942 366.8 435.866 366.8H437.558C441.266 366.8 444.29 369.788 444.29 373.496V374.576H440.69V373.496C440.69 371.768 439.286 370.4 437.558 370.4H435.866C433.922 370.4 432.77 371.3 432.77 372.776C432.77 376.592 444.65 378.068 444.65 385.664C444.65 389.264 441.734 392 437.918 392H435.506C431.798 392 428.81 389.012 428.81 385.304V383.864ZM450.396 383.864H453.996V385.304C453.996 386.996 455.4 388.4 457.092 388.4H459.504C461.34 388.4 462.636 387.248 462.636 385.664C462.636 380.696 450.756 379.616 450.756 372.776C450.756 369.248 453.528 366.8 457.452 366.8H459.144C462.852 366.8 465.876 369.788 465.876 373.496V374.576H462.276V373.496C462.276 371.768 460.872 370.4 459.144 370.4H457.452C455.508 370.4 454.356 371.3 454.356 372.776C454.356 376.592 466.236 378.068 466.236 385.664C466.236 389.264 463.32 392 459.504 392H457.092C453.384 392 450.396 389.012 450.396 385.304V383.864ZM471.982 366.8H487.822V370.4H481.702V388.4H487.822V392H471.982V388.4H478.102V370.4H471.982V366.8ZM502.928 388.364C504.512 388.364 505.808 387.068 505.808 385.484V373.28C505.808 371.66 504.548 370.4 502.928 370.4H500.048C498.428 370.4 497.168 371.696 497.168 373.28V385.484C497.168 387.068 498.464 388.364 500.048 388.364H502.928ZM493.568 385.484V373.28C493.568 369.68 496.484 366.8 500.048 366.8H502.928C506.528 366.8 509.408 369.68 509.408 373.28V385.484C509.408 389.048 506.528 392 502.928 392H500.048C496.484 392 493.568 389.048 493.568 385.484ZM527.393 366.8H530.993V392H525.773L518.753 372.848V392H515.153V366.8H520.373L527.393 385.952V366.8Z"
        fill="#E2E2E2" />
    <path
        d="M552.72 535.44C552.72 539.04 549.84 541.92 546.24 541.92H540.48V552H536.88V526.8H546.24C549.84 526.8 552.72 529.68 552.72 533.28V535.44ZM540.48 538.32H546.24C547.86 538.32 549.12 537.06 549.12 535.44V533.28C549.12 531.66 547.86 530.4 546.24 530.4H540.48V538.32ZM558.466 526.8H574.306V530.4H568.186V548.4H574.306V552H558.466V548.4H564.586V530.4H558.466V526.8ZM580.052 526.8H595.892V530.4H589.772V552H586.172V530.4H580.052V526.8ZM613.878 533.28C613.878 531.66 612.618 530.4 610.998 530.4H608.118C606.498 530.4 605.238 531.696 605.238 533.28V545.484C605.238 547.068 606.534 548.364 608.118 548.364H610.998C612.582 548.364 613.878 547.068 613.878 545.484V543.504H617.478V545.484C617.478 549.048 614.598 552 610.998 552H608.118C604.554 552 601.638 549.048 601.638 545.484V533.28C601.638 529.68 604.554 526.8 608.118 526.8H610.998C614.598 526.8 617.478 529.68 617.478 533.28V535.26H613.878V533.28ZM626.824 526.8V536.88H635.464V526.8H639.064V552H635.464V540.48H626.824V552H623.224V526.8H626.824ZM644.81 526.8H660.65V530.4H654.53V548.4H660.65V552H644.81V548.4H650.93V530.4H644.81V526.8ZM678.636 526.8H682.236V552H677.016L669.996 532.848V552H666.396V526.8H671.616L678.636 545.952V526.8ZM694.822 538.428H703.822V545.484C703.822 549.048 700.942 552 697.342 552H694.462C690.898 552 687.982 549.048 687.982 545.484V533.28C687.982 529.68 690.898 526.8 694.462 526.8H697.342C700.942 526.8 703.822 529.68 703.822 533.28V535.26H700.222V533.28C700.222 531.66 698.962 530.4 697.342 530.4H694.462C692.842 530.4 691.582 531.696 691.582 533.28V545.484C691.582 547.068 692.878 548.364 694.462 548.364H697.342C698.926 548.364 700.222 547.068 700.222 545.484V542.028H694.822V538.428Z"
        fill="#E2E2E2" />
    <path
        d="M810.276 355.28L812.256 366.62L813.12 356V348.8H816.72V357.08L814.56 374H811.68L808.8 363.236L805.92 374H803.04L800.88 357.08V348.8H804.48V356L805.344 366.62L807.324 355.28H810.276ZM822.466 348.8H838.306V352.4H832.186V370.4H838.306V374H822.466V370.4H828.586V352.4H822.466V348.8ZM856.292 348.8H859.892V374H854.672L847.652 354.848V374H844.052V348.8H849.272L856.292 367.952V348.8ZM877.878 348.8H881.478V374H876.258L869.238 354.848V374H865.638V348.8H870.858L877.878 367.952V348.8ZM903.064 348.8V352.4H890.824V358.988H901.624V362.588H890.824V370.4H903.064V374H887.224V348.8H903.064ZM924.65 374H920.69L916.118 363.92H912.41V374H908.81V348.8H918.17C921.77 348.8 924.65 351.68 924.65 355.28V357.44C924.65 360.428 922.67 362.912 919.934 363.668L924.65 374ZM912.41 360.32H918.17C919.79 360.32 921.05 359.06 921.05 357.44V355.28C921.05 353.66 919.79 352.4 918.17 352.4H912.41V360.32ZM804.48 417H800.88V408.72L807 391.8H810.6L816.72 408.72V417H813.12V411.168H804.48V417ZM805.128 407.568H812.472L808.836 397.488H808.764L805.128 407.568ZM834.706 391.8H838.306V417H833.086L826.066 397.848V417H822.466V391.8H827.686L834.706 410.952V391.8ZM856.292 391.8H859.892V417H854.672L847.652 397.848V417H844.052V391.8H849.272L856.292 410.952V391.8ZM877.878 391.8H881.478V417H876.258L869.238 397.848V417H865.638V391.8H870.858L877.878 410.952V391.8ZM896.584 413.364C898.168 413.364 899.464 412.068 899.464 410.484V398.28C899.464 396.66 898.204 395.4 896.584 395.4H893.704C892.084 395.4 890.824 396.696 890.824 398.28V410.484C890.824 412.068 892.12 413.364 893.704 413.364H896.584ZM887.224 410.484V398.28C887.224 394.68 890.14 391.8 893.704 391.8H896.584C900.184 391.8 903.064 394.68 903.064 398.28V410.484C903.064 414.048 900.184 417 896.584 417H893.704C890.14 417 887.224 414.048 887.224 410.484ZM924.65 410.484C924.65 414.048 921.734 417 918.17 417H915.29C911.69 417 908.81 414.048 908.81 410.484V391.8H912.41V410.484C912.41 412.068 913.706 413.364 915.29 413.364H918.17C919.754 413.364 921.05 412.068 921.05 410.484V391.8H924.65V410.484ZM942.636 391.8H946.236V417H941.016L933.996 397.848V417H930.396V391.8H935.616L942.636 410.952V391.8ZM964.222 398.28C964.222 396.66 962.962 395.4 961.342 395.4H958.462C956.842 395.4 955.582 396.696 955.582 398.28V410.484C955.582 412.068 956.878 413.364 958.462 413.364H961.342C962.926 413.364 964.222 412.068 964.222 410.484V408.504H967.822V410.484C967.822 414.048 964.942 417 961.342 417H958.462C954.898 417 951.982 414.048 951.982 410.484V398.28C951.982 394.68 954.898 391.8 958.462 391.8H961.342C964.942 391.8 967.822 394.68 967.822 398.28V400.26H964.222V398.28ZM989.408 391.8V395.4H977.168V401.988H987.968V405.588H977.168V413.4H989.408V417H973.568V391.8H989.408ZM1002.1 406.848L998.753 399.72V417H995.153V391.8H998.753L1003.07 401.196L1007.39 391.8H1010.99V417H1007.39V399.72L1004.05 406.848H1002.1ZM1032.58 391.8V395.4H1020.34V401.988H1031.14V405.588H1020.34V413.4H1032.58V417H1016.74V391.8H1032.58ZM1050.57 391.8H1054.17V417H1048.95L1041.93 397.848V417H1038.33V391.8H1043.55L1050.57 410.952V391.8ZM1059.91 391.8H1075.75V395.4H1069.63V417H1066.03V395.4H1059.91V391.8Z"
        fill="#E2E2E2" />
    <path
        d="M1222.72 238.8V242.4H1210.48V250.068H1221.28V253.668H1210.48V264H1206.88V238.8H1222.72ZM1244.31 257.484C1244.31 261.048 1241.39 264 1237.83 264H1234.95C1231.35 264 1228.47 261.048 1228.47 257.484V238.8H1232.07V257.484C1232.07 259.068 1233.36 260.364 1234.95 260.364H1237.83C1239.41 260.364 1240.71 259.068 1240.71 257.484V238.8H1244.31V257.484ZM1262.29 238.8H1265.89V264H1260.67L1253.65 244.848V264H1250.05V238.8H1255.27L1262.29 257.952V238.8ZM1281 238.8C1284.56 238.8 1287.48 241.68 1287.48 245.28V257.484C1287.48 261.048 1284.56 264 1281 264H1271.64V238.8H1281ZM1275.24 260.364H1281C1282.58 260.364 1283.88 259.068 1283.88 257.484V245.28C1283.88 243.696 1282.62 242.4 1281 242.4H1275.24V260.364ZM1293.22 238.8H1309.06V242.4H1302.94V260.4H1309.06V264H1293.22V260.4H1299.34V242.4H1293.22V238.8ZM1327.05 238.8H1330.65V264H1325.43L1318.41 244.848V264H1314.81V238.8H1320.03L1327.05 257.952V238.8ZM1343.24 250.428H1352.24V257.484C1352.24 261.048 1349.36 264 1345.76 264H1342.88C1339.31 264 1336.4 261.048 1336.4 257.484V245.28C1336.4 241.68 1339.31 238.8 1342.88 238.8H1345.76C1349.36 238.8 1352.24 241.68 1352.24 245.28V247.26H1348.64V245.28C1348.64 243.66 1347.38 242.4 1345.76 242.4H1342.88C1341.26 242.4 1340 243.696 1340 245.28V257.484C1340 259.068 1341.29 260.364 1342.88 260.364H1345.76C1347.34 260.364 1348.64 259.068 1348.64 257.484V254.028H1343.24V250.428Z"
        fill="#E2E2E2" />
    <path
        d="M1444.72 406.44C1444.72 410.04 1441.84 412.92 1438.24 412.92H1432.48V423H1428.88V397.8H1438.24C1441.84 397.8 1444.72 400.68 1444.72 404.28V406.44ZM1432.48 409.32H1438.24C1439.86 409.32 1441.12 408.06 1441.12 406.44V404.28C1441.12 402.66 1439.86 401.4 1438.24 401.4H1432.48V409.32ZM1466.31 423H1462.35L1457.77 412.92H1454.07V423H1450.47V397.8H1459.83C1463.43 397.8 1466.31 400.68 1466.31 404.28V406.44C1466.31 409.428 1464.33 411.912 1461.59 412.668L1466.31 423ZM1454.07 409.32H1459.83C1461.45 409.32 1462.71 408.06 1462.71 406.44V404.28C1462.71 402.66 1461.45 401.4 1459.83 401.4H1454.07V409.32ZM1481.41 419.364C1483 419.364 1484.29 418.068 1484.29 416.484V404.28C1484.29 402.66 1483.03 401.4 1481.41 401.4H1478.53C1476.91 401.4 1475.65 402.696 1475.65 404.28V416.484C1475.65 418.068 1476.95 419.364 1478.53 419.364H1481.41ZM1472.05 416.484V404.28C1472.05 400.68 1474.97 397.8 1478.53 397.8H1481.41C1485.01 397.8 1487.89 400.68 1487.89 404.28V416.484C1487.89 420.048 1485.01 423 1481.41 423H1478.53C1474.97 423 1472.05 420.048 1472.05 416.484ZM1500.48 409.428H1509.48V416.484C1509.48 420.048 1506.6 423 1503 423H1500.12C1496.55 423 1493.64 420.048 1493.64 416.484V404.28C1493.64 400.68 1496.55 397.8 1500.12 397.8H1503C1506.6 397.8 1509.48 400.68 1509.48 404.28V406.26H1505.88V404.28C1505.88 402.66 1504.62 401.4 1503 401.4H1500.12C1498.5 401.4 1497.24 402.696 1497.24 404.28V416.484C1497.24 418.068 1498.53 419.364 1500.12 419.364H1503C1504.58 419.364 1505.88 418.068 1505.88 416.484V413.028H1500.48V409.428ZM1531.06 423H1527.1L1522.53 412.92H1518.82V423H1515.22V397.8H1524.58C1528.18 397.8 1531.06 400.68 1531.06 404.28V406.44C1531.06 409.428 1529.08 411.912 1526.35 412.668L1531.06 423ZM1518.82 409.32H1524.58C1526.2 409.32 1527.46 408.06 1527.46 406.44V404.28C1527.46 402.66 1526.2 401.4 1524.58 401.4H1518.82V409.32ZM1552.65 397.8V401.4H1540.41V407.988H1551.21V411.588H1540.41V419.4H1552.65V423H1536.81V397.8H1552.65ZM1558.4 414.864H1562V416.304C1562 417.996 1563.4 419.4 1565.09 419.4H1567.5C1569.34 419.4 1570.64 418.248 1570.64 416.664C1570.64 411.696 1558.76 410.616 1558.76 403.776C1558.76 400.248 1561.53 397.8 1565.45 397.8H1567.14C1570.85 397.8 1573.88 400.788 1573.88 404.496V405.576H1570.28V404.496C1570.28 402.768 1568.87 401.4 1567.14 401.4H1565.45C1563.51 401.4 1562.36 402.3 1562.36 403.776C1562.36 407.592 1574.24 409.068 1574.24 416.664C1574.24 420.264 1571.32 423 1567.5 423H1565.09C1561.38 423 1558.4 420.012 1558.4 416.304V414.864ZM1579.98 414.864H1583.58V416.304C1583.58 417.996 1584.99 419.4 1586.68 419.4H1589.09C1590.93 419.4 1592.22 418.248 1592.22 416.664C1592.22 411.696 1580.34 410.616 1580.34 403.776C1580.34 400.248 1583.11 397.8 1587.04 397.8H1588.73C1592.44 397.8 1595.46 400.788 1595.46 404.496V405.576H1591.86V404.496C1591.86 402.768 1590.46 401.4 1588.73 401.4H1587.04C1585.09 401.4 1583.94 402.3 1583.94 403.776C1583.94 407.592 1595.82 409.068 1595.82 416.664C1595.82 420.264 1592.91 423 1589.09 423H1586.68C1582.97 423 1579.98 420.012 1579.98 416.304V414.864ZM1428.88 440.8H1444.72V444.4H1438.6V466H1435V444.4H1428.88V440.8ZM1466.31 466H1462.35L1457.77 455.92H1454.07V466H1450.47V440.8H1459.83C1463.43 440.8 1466.31 443.68 1466.31 447.28V449.44C1466.31 452.428 1464.33 454.912 1461.59 455.668L1466.31 466ZM1454.07 452.32H1459.83C1461.45 452.32 1462.71 451.06 1462.71 449.44V447.28C1462.71 445.66 1461.45 444.4 1459.83 444.4H1454.07V452.32ZM1475.65 466H1472.05V457.72L1478.17 440.8H1481.77L1487.89 457.72V466H1484.29V460.168H1475.65V466ZM1476.3 456.568H1483.64L1480.01 446.488H1479.94L1476.3 456.568ZM1505.88 447.28C1505.88 445.66 1504.62 444.4 1503 444.4H1500.12C1498.5 444.4 1497.24 445.696 1497.24 447.28V459.484C1497.24 461.068 1498.53 462.364 1500.12 462.364H1503C1504.58 462.364 1505.88 461.068 1505.88 459.484V457.504H1509.48V459.484C1509.48 463.048 1506.6 466 1503 466H1500.12C1496.55 466 1493.64 463.048 1493.64 459.484V447.28C1493.64 443.68 1496.55 440.8 1500.12 440.8H1503C1506.6 440.8 1509.48 443.68 1509.48 447.28V449.26H1505.88V447.28ZM1518.82 466H1515.22V440.8H1518.82V451.6H1520.19L1526.82 440.8H1531.06L1523.32 453.4L1531.06 466H1526.82L1520.19 455.2H1518.82V466ZM1536.81 440.8H1552.65V444.4H1546.53V462.4H1552.65V466H1536.81V462.4H1542.93V444.4H1536.81V440.8ZM1570.64 440.8H1574.24V466H1569.02L1562 446.848V466H1558.4V440.8H1563.62L1570.64 459.952V440.8ZM1586.82 452.428H1595.82V459.484C1595.82 463.048 1592.94 466 1589.34 466H1586.46C1582.9 466 1579.98 463.048 1579.98 459.484V447.28C1579.98 443.68 1582.9 440.8 1586.46 440.8H1589.34C1592.94 440.8 1595.82 443.68 1595.82 447.28V449.26H1592.22V447.28C1592.22 445.66 1590.96 444.4 1589.34 444.4H1586.46C1584.84 444.4 1583.58 445.696 1583.58 447.28V459.484C1583.58 461.068 1584.88 462.364 1586.46 462.364H1589.34C1590.93 462.364 1592.22 461.068 1592.22 459.484V456.028H1586.82V452.428Z"
        fill="#E2E2E2" />
    <path
        d="M8 152.5L6.5 152.5L6.5 153.121L6.93934 153.561L8 152.5ZM109 207.5C109 211.918 112.582 215.5 117 215.5C121.418 215.5 125 211.918 125 207.5C125 203.082 121.418 199.5 117 199.5C112.582 199.5 109 203.082 109 207.5ZM63 207.5L61.9394 208.561L62.3787 209L63 209L63 207.5ZM0 102C-3.86258e-07 106.418 3.58172 110 8 110C12.4183 110 16 106.418 16 102C16 97.5817 12.4183 94 8 94C3.58172 94 3.86258e-07 97.5817 0 102ZM6.93934 153.561L61.9394 208.561L64.0607 206.439L9.06066 151.439L6.93934 153.561ZM63 209L117 209L117 206L63 206L63 209ZM9.5 152.5L9.5 102L6.5 102L6.5 152.5L9.5 152.5Z"
        fill="#E2E2E2" />
    <path
        d="M177 322.5L175.5 322.5L175.5 323.121L175.939 323.561L177 322.5ZM278 377.5C278 381.918 281.582 385.5 286 385.5C290.418 385.5 294 381.918 294 377.5C294 373.082 290.418 369.5 286 369.5C281.582 369.5 278 373.082 278 377.5ZM232 377.5L230.939 378.561L231.379 379L232 379L232 377.5ZM169 272C169 276.418 172.582 280 177 280C181.418 280 185 276.418 185 272C185 267.582 181.418 264 177 264C172.582 264 169 267.582 169 272ZM175.939 323.561L230.939 378.561L233.061 376.439L178.061 321.439L175.939 323.561ZM232 379L286 379L286 376L232 376L232 379ZM178.5 322.5L178.5 272H175.5L175.5 322.5L178.5 322.5Z"
        fill="#E2E2E2" />
    <path
        d="M1121 249L1121 247.5L1120.38 247.5L1119.94 247.939L1121 249ZM1066 350C1061.58 350 1058 353.582 1058 358C1058 362.418 1061.58 366 1066 366C1070.42 366 1074 362.418 1074 358C1074 353.582 1070.42 350 1066 350ZM1066 304L1064.94 302.939L1064.5 303.379L1064.5 304L1066 304ZM1171.5 241C1167.08 241 1163.5 244.582 1163.5 249C1163.5 253.418 1167.08 257 1171.5 257C1175.92 257 1179.5 253.418 1179.5 249C1179.5 244.582 1175.92 241 1171.5 241ZM1119.94 247.939L1064.94 302.939L1067.06 305.061L1122.06 250.061L1119.94 247.939ZM1064.5 304L1064.5 358L1067.5 358L1067.5 304L1064.5 304ZM1121 250.5L1171.5 250.5L1171.5 247.5L1121 247.5L1121 250.5Z"
        fill="#E2E2E2" />
    <path
        d="M1501 306L1502.5 306L1502.5 305.379L1502.06 304.939L1501 306ZM1400 251C1400 246.582 1396.42 243 1392 243C1387.58 243 1384 246.582 1384 251C1384 255.418 1387.58 259 1392 259C1396.42 259 1400 255.418 1400 251ZM1446 251L1447.06 249.939L1446.62 249.5L1446 249.5L1446 251ZM1509 356.5C1509 352.082 1505.42 348.5 1501 348.5C1496.58 348.5 1493 352.082 1493 356.5C1493 360.918 1496.58 364.5 1501 364.5C1505.42 364.5 1509 360.918 1509 356.5ZM1502.06 304.939L1447.06 249.939L1444.94 252.061L1499.94 307.061L1502.06 304.939ZM1446 249.5L1392 249.5L1392 252.5L1446 252.5L1446 249.5ZM1499.5 306L1499.5 356.5H1502.5L1502.5 306L1499.5 306Z"
        fill="#E2E2E2" />
    <path
        d="M708 369L708 367.5L707.379 367.5L706.939 367.939L708 369ZM653 483.5C648.582 483.5 645 487.082 645 491.5C645 495.918 648.582 499.5 653 499.5C657.418 499.5 661 495.918 661 491.5C661 487.082 657.418 483.5 653 483.5ZM653 424L651.939 422.939L651.5 423.379L651.5 424L653 424ZM758.5 361C754.082 361 750.5 364.582 750.5 369C750.5 373.418 754.082 377 758.5 377C762.918 377 766.5 373.418 766.5 369C766.5 364.582 762.918 361 758.5 361ZM706.939 367.939L651.939 422.939L654.061 425.061L709.061 370.061L706.939 367.939ZM651.5 424L651.5 491.5L654.5 491.5L654.5 424L651.5 424ZM708 370.5L758.5 370.5L758.5 367.5L708 367.5L708 370.5Z"
        fill="#E2E2E2" />
    <path
        d="M336 487.5L334.5 487.5L334.5 488.121L334.939 488.561L336 487.5ZM484.5 542.5C484.5 546.918 488.082 550.5 492.5 550.5C496.918 550.5 500.5 546.918 500.5 542.5C500.5 538.082 496.918 534.5 492.5 534.5C488.082 534.5 484.5 538.082 484.5 542.5ZM391 542.5L389.939 543.561L390.379 544L391 544L391 542.5ZM328 437C328 441.418 331.582 445 336 445C340.418 445 344 441.418 344 437C344 432.582 340.418 429 336 429C331.582 429 328 432.582 328 437ZM334.939 488.561L389.939 543.561L392.061 541.439L337.061 486.439L334.939 488.561ZM391 544L492.5 544L492.5 541L391 541L391 544ZM337.5 487.5L337.5 437H334.5L334.5 487.5L337.5 487.5Z"
        fill="#E2E2E2" />
</svg>