<svg width="894" height="1209" viewBox="0 0 894 1209" fill="none" xmlns="http://www.w3.org/2000/svg">
    <path
        d="M600.447 411.22H603.506V412.443C603.506 413.881 604.699 415.074 606.137 415.074H608.186C609.746 415.074 610.847 414.095 610.847 412.749C610.847 408.528 600.753 407.61 600.753 401.798C600.753 398.801 603.108 396.72 606.443 396.72H607.88C611.031 396.72 613.6 399.259 613.6 402.41V403.328H610.542V402.41C610.542 400.942 609.349 399.779 607.88 399.779H606.443C604.791 399.779 603.812 400.544 603.812 401.798C603.812 405.041 613.906 406.295 613.906 412.749C613.906 415.808 611.429 418.133 608.186 418.133H606.137C602.986 418.133 600.447 415.594 600.447 412.443V411.22ZM632.248 412.596C632.248 415.625 629.77 418.133 626.742 418.133H624.295C621.236 418.133 618.789 415.625 618.789 412.596V396.72H621.848V412.596C621.848 413.942 622.949 415.043 624.295 415.043H626.742C628.088 415.043 629.189 413.942 629.189 412.596V396.72H632.248V412.596ZM649.978 403.45C649.978 404.857 649.458 406.172 648.57 407.121C649.794 408.13 650.589 409.66 650.589 411.403V412.627C650.589 415.686 648.142 418.133 645.083 418.133H637.13V396.72H644.472C647.53 396.72 649.978 399.168 649.978 402.226V403.45ZM640.189 415.074H645.083C646.46 415.074 647.53 414.003 647.53 412.627V411.403C647.53 410.027 646.46 408.956 645.083 408.956H640.189V415.074ZM640.189 405.897H644.472C645.848 405.897 646.919 404.827 646.919 403.45V402.226C646.919 400.85 645.848 399.779 644.472 399.779H640.189V405.897ZM661.375 409.507L658.531 403.45V418.133H655.472V396.72H658.531L662.201 404.704L665.872 396.72H668.931V418.133H665.872V403.45L663.027 409.507H661.375ZM673.813 396.72H687.272V399.779H682.072V415.074H687.272V418.133H673.813V415.074H679.013V399.779H673.813V396.72ZM692.155 411.22H695.214V412.443C695.214 413.881 696.407 415.074 697.844 415.074H699.894C701.454 415.074 702.555 414.095 702.555 412.749C702.555 408.528 692.461 407.61 692.461 401.798C692.461 398.801 694.816 396.72 698.15 396.72H699.588C702.738 396.72 705.308 399.259 705.308 402.41V403.328H702.249V402.41C702.249 400.942 701.056 399.779 699.588 399.779H698.15C696.498 399.779 695.519 400.544 695.519 401.798C695.519 405.041 705.614 406.295 705.614 412.749C705.614 415.808 703.136 418.133 699.894 418.133H697.844C694.694 418.133 692.155 415.594 692.155 412.443V411.22ZM710.496 411.22H713.555V412.443C713.555 413.881 714.748 415.074 716.186 415.074H718.235C719.795 415.074 720.896 414.095 720.896 412.749C720.896 408.528 710.802 407.61 710.802 401.798C710.802 398.801 713.157 396.72 716.492 396.72H717.929C721.08 396.72 723.649 399.259 723.649 402.41V403.328H720.591V402.41C720.591 400.942 719.398 399.779 717.929 399.779H716.492C714.84 399.779 713.861 400.544 713.861 401.798C713.861 405.041 723.955 406.295 723.955 412.749C723.955 415.808 721.478 418.133 718.235 418.133H716.186C713.035 418.133 710.496 415.594 710.496 412.443V411.22ZM728.838 396.72H742.297V399.779H737.097V415.074H742.297V418.133H728.838V415.074H734.038V399.779H728.838V396.72ZM755.132 415.043C756.478 415.043 757.579 413.942 757.579 412.596V402.226C757.579 400.85 756.509 399.779 755.132 399.779H752.685C751.309 399.779 750.238 400.881 750.238 402.226V412.596C750.238 413.942 751.339 415.043 752.685 415.043H755.132ZM747.179 412.596V402.226C747.179 399.168 749.657 396.72 752.685 396.72H755.132C758.191 396.72 760.638 399.168 760.638 402.226V412.596C760.638 415.625 758.191 418.133 755.132 418.133H752.685C749.657 418.133 747.179 415.625 747.179 412.596ZM775.921 396.72H778.98V418.133H774.544L768.58 401.859V418.133H765.521V396.72H769.956L775.921 412.994V396.72Z"
        fill="#E2E2E2" />
    <path
        d="M59.6813 41.6571C59.6813 43.0642 59.1612 44.3795 58.2742 45.3278C59.4977 46.3372 60.293 47.8667 60.293 49.6102V50.8338C60.293 53.8927 57.8459 56.3398 54.787 56.3398H46.8338V34.9275H54.1752C57.2341 34.9275 59.6813 37.3746 59.6813 40.4335V41.6571ZM49.8928 53.2809H54.787C56.1635 53.2809 57.2341 52.2103 57.2341 50.8338V49.6102C57.2341 48.2337 56.1635 47.1631 54.787 47.1631H49.8928V53.2809ZM49.8928 44.1042H54.1752C55.5517 44.1042 56.6224 43.0336 56.6224 41.6571V40.4335C56.6224 39.057 55.5517 37.9864 54.1752 37.9864H49.8928V44.1042ZM78.6346 56.3398H75.2698L71.3849 47.7749H68.2343V56.3398H65.1754V34.9275H73.1285C76.1874 34.9275 78.6346 37.3746 78.6346 40.4335V42.2689C78.6346 44.8078 76.9522 46.9184 74.6274 47.5608L78.6346 56.3398ZM68.2343 44.716H73.1285C74.505 44.716 75.5756 43.6454 75.5756 42.2689V40.4335C75.5756 39.057 74.505 37.9864 73.1285 37.9864H68.2343V44.716ZM83.5169 34.9275H96.9761V37.9864H91.7759V53.2809H96.9761V56.3398H83.5169V53.2809H88.717V37.9864H83.5169V34.9275ZM115.318 34.9275V37.9864H104.917V43.5842H114.094V46.6431H104.917V53.2809H115.318V56.3398H101.858V34.9275H115.318ZM133.659 34.9275V37.9864H123.259V44.5019H132.436V47.5608H123.259V56.3398H120.2V34.9275H133.659ZM138.541 34.9275H152.001V37.9864H146.8V53.2809H152.001V56.3398H138.541V53.2809H143.742V37.9864H138.541V34.9275ZM167.283 34.9275H170.342V56.3398H165.907L159.942 40.0664V56.3398H156.883V34.9275H161.318L167.283 51.2009V34.9275ZM181.036 44.8078H188.684V50.8032C188.684 53.8315 186.236 56.3398 183.178 56.3398H180.73C177.702 56.3398 175.224 53.8315 175.224 50.8032V40.4335C175.224 37.3746 177.702 34.9275 180.73 34.9275H183.178C186.236 34.9275 188.684 37.3746 188.684 40.4335V42.1159H185.625V40.4335C185.625 39.057 184.554 37.9864 183.178 37.9864H180.73C179.354 37.9864 178.283 39.0876 178.283 40.4335V50.8032C178.283 52.1491 179.384 53.2503 180.73 53.2503H183.178C184.523 53.2503 185.625 52.1491 185.625 50.8032V47.8667H181.036V44.8078Z"
        fill="#E2E2E2" />
    <path
        d="M72.0861 85.384H73.7855V86.0637C73.7855 86.8625 74.4482 87.5252 75.247 87.5252H76.3855C77.2522 87.5252 77.864 86.9814 77.864 86.2337C77.864 83.8885 72.256 83.3787 72.256 80.1498C72.256 78.4844 73.5646 77.3289 75.4169 77.3289H76.2156C77.966 77.3289 79.3935 78.7393 79.3935 80.4897V80.9995H77.6941V80.4897C77.6941 79.674 77.0313 79.0282 76.2156 79.0282H75.4169C74.4992 79.0282 73.9554 79.4531 73.9554 80.1498C73.9554 81.9512 79.5634 82.648 79.5634 86.2337C79.5634 87.9331 78.1869 89.2246 76.3855 89.2246H75.247C73.4966 89.2246 72.0861 87.8141 72.0861 86.0637V85.384ZM82.2758 77.3289H89.7531V79.0282H86.8642V89.2246H85.1648V79.0282H82.2758V77.3289ZM94.1649 89.2246H92.4655V85.316L95.3545 77.3289H97.0539L99.9429 85.316V89.2246H98.2435V86.4716H94.1649V89.2246ZM94.4708 84.7722H97.9376L96.2212 80.0139H96.1872L94.4708 84.7722ZM110.133 89.2246H108.263L106.105 84.4663H104.355V89.2246H102.655V77.3289H107.074C108.773 77.3289 110.133 78.6884 110.133 80.3878V81.4074C110.133 82.8179 109.198 83.9905 107.906 84.3473L110.133 89.2246ZM104.355 82.7669H107.074C107.838 82.7669 108.433 82.1721 108.433 81.4074V80.3878C108.433 79.623 107.838 79.0282 107.074 79.0282H104.355V82.7669ZM112.845 77.3289H120.322V79.0282H117.433V89.2246H115.734V79.0282H112.845V77.3289ZM137.643 87.5082C138.391 87.5082 139.002 86.8964 139.002 86.1487V80.3878C139.002 79.623 138.408 79.0282 137.643 79.0282H136.283C135.519 79.0282 134.924 79.64 134.924 80.3878V86.1487C134.924 86.8964 135.536 87.5082 136.283 87.5082H137.643ZM133.224 86.1487V80.3878C133.224 78.6884 134.601 77.3289 136.283 77.3289H137.643C139.342 77.3289 140.702 78.6884 140.702 80.3878V86.1487C140.702 87.8311 139.342 89.2246 137.643 89.2246H136.283C134.601 89.2246 133.224 87.8311 133.224 86.1487ZM150.891 77.3289V79.0282H145.114V82.648H150.212V84.3473H145.114V89.2246H143.414V77.3289H150.891ZM168.229 80.3878L169.164 85.7409L169.572 80.7276V77.3289H171.271V81.2375L170.251 89.2246H168.892L167.532 84.1434L166.173 89.2246H164.813L163.794 81.2375V77.3289H165.493V80.7276L165.901 85.7409L166.836 80.3878H168.229ZM181.461 77.3289V79.0282H175.683V82.1381H180.781V83.8375H175.683V87.5252H181.461V89.2246H173.983V77.3289H181.461ZM191.65 77.3289V79.0282H185.872V82.1381H190.971V83.8375H185.872V87.5252H191.65V89.2246H184.173V77.3289H191.65ZM196.062 89.2246H194.363V77.3289H196.062V82.427H196.708L199.835 77.3289H201.84L198.186 83.2767L201.84 89.2246H199.835L196.708 84.1264H196.062V89.2246ZM222.22 87.5252V89.2246H214.742V87.5252H217.631V79.3001L214.742 80.9995V79.0282L217.631 77.3289H219.331V87.5252H222.22ZM73.6155 97.3289H79.5634V106.149C79.5634 107.831 78.1869 109.225 76.5045 109.225H75.145C73.4456 109.225 72.0861 107.831 72.0861 106.149V104.704H73.7855V106.149C73.7855 106.896 74.3973 107.508 75.145 107.508H76.5045C77.2522 107.508 77.864 106.896 77.864 106.149V99.0282H73.6155V97.3289ZM89.7531 106.149C89.7531 107.831 88.3766 109.225 86.6942 109.225H85.3347C83.6353 109.225 82.2758 107.831 82.2758 106.149V97.3289H83.9752V106.149C83.9752 106.896 84.587 107.508 85.3347 107.508H86.6942C87.442 107.508 88.0537 106.896 88.0537 106.149V97.3289H89.7531V106.149ZM98.2435 97.3289H99.9429V109.225H97.4787L94.1649 100.184V109.225H92.4655V97.3289H94.9296L98.2435 106.37V97.3289ZM120.322 107.525V109.225H112.845V105.299L118.623 102.053V100.388C118.623 99.623 118.028 99.0282 117.263 99.0282H115.904C115.156 99.0282 114.544 99.64 114.544 100.388V100.983H112.845V100.388C112.845 98.6884 114.221 97.3289 115.904 97.3289H117.263C118.963 97.3289 120.322 98.6884 120.322 100.388V103.056L114.544 106.302V107.525H120.322ZM130.512 107.525V109.225H123.035V107.525H125.924V99.3001L123.035 101V99.0282L125.924 97.3289H127.623V107.525H130.512Z"
        fill="#E2E2E2" />
    <circle cx="232.268" cy="18.2685" r="18.2685" fill="#E2E2E2" />
    <circle cx="369.268" cy="194.268" r="18.2685" fill="#E2E2E2" />
    <circle cx="617.118" cy="356.268" r="18.2685" fill="#E2E2E2" />
    <path
        d="M599.36 449.159H601.059V449.839C601.059 450.638 601.722 451.301 602.52 451.301H603.659C604.526 451.301 605.137 450.757 605.137 450.009C605.137 447.664 599.529 447.154 599.529 443.925C599.529 442.26 600.838 441.104 602.69 441.104H603.489C605.239 441.104 606.667 442.515 606.667 444.265V444.775H604.968V444.265C604.968 443.449 604.305 442.804 603.489 442.804H602.69C601.773 442.804 601.229 443.228 601.229 443.925C601.229 445.727 606.837 446.423 606.837 450.009C606.837 451.708 605.46 453 603.659 453H602.52C600.77 453 599.36 451.59 599.36 449.839V449.159ZM609.549 441.104H617.027V442.804H614.138V453H612.438V442.804H609.549V441.104ZM621.438 453H619.739V449.091L622.628 441.104H624.327L627.216 449.091V453H625.517V450.247H621.438V453ZM621.744 448.548H625.211L623.495 443.789H623.461L621.744 448.548ZM637.406 453H635.537L633.378 448.242H631.628V453H629.929V441.104H634.347C636.047 441.104 637.406 442.464 637.406 444.163V445.183C637.406 446.593 636.471 447.766 635.18 448.123L637.406 453ZM631.628 446.542H634.347C635.112 446.542 635.707 445.948 635.707 445.183V444.163C635.707 443.398 635.112 442.804 634.347 442.804H631.628V446.542ZM640.118 441.104H647.596V442.804H644.707V453H643.007V442.804H640.118V441.104ZM664.916 451.284C665.664 451.284 666.276 450.672 666.276 449.924V444.163C666.276 443.398 665.681 442.804 664.916 442.804H663.557C662.792 442.804 662.197 443.415 662.197 444.163V449.924C662.197 450.672 662.809 451.284 663.557 451.284H664.916ZM660.498 449.924V444.163C660.498 442.464 661.874 441.104 663.557 441.104H664.916C666.616 441.104 667.975 442.464 667.975 444.163V449.924C667.975 451.606 666.616 453 664.916 453H663.557C661.874 453 660.498 451.606 660.498 449.924ZM678.165 441.104V442.804H672.387V446.423H677.485V448.123H672.387V453H670.688V441.104H678.165ZM695.502 444.163L696.437 449.516L696.845 444.503V441.104H698.544V445.013L697.525 453H696.165L694.806 447.919L693.446 453H692.087L691.067 445.013V441.104H692.766V444.503L693.174 449.516L694.109 444.163H695.502ZM708.734 441.104V442.804H702.956V445.914H708.054V447.613H702.956V451.301H708.734V453H701.257V441.104H708.734ZM718.924 441.104V442.804H713.146V445.914H718.244V447.613H713.146V451.301H718.924V453H711.446V441.104H718.924ZM723.336 453H721.636V441.104H723.336V446.202H723.981L727.108 441.104H729.114L725.46 447.052L729.114 453H727.108L723.981 447.902H723.336V453ZM749.493 451.301V453H742.016V449.074L747.794 445.829V444.163C747.794 443.398 747.199 442.804 746.434 442.804H745.075C744.327 442.804 743.715 443.415 743.715 444.163V444.758H742.016V444.163C742.016 442.464 743.392 441.104 745.075 441.104H746.434C748.133 441.104 749.493 442.464 749.493 444.163V446.831L743.715 450.077V451.301H749.493ZM763.075 447.613H769.193V449.312H763.075V447.613ZM606.837 461.104V462.804H601.059V465.914H606.157V467.613H601.059V471.301H606.837V473H599.36V461.104H606.837ZM615.327 461.104H617.027V473H614.562L611.249 463.959V473H609.549V461.104H612.013L615.327 470.145V461.104ZM624.157 461.104C625.84 461.104 627.216 462.464 627.216 464.163V469.924C627.216 471.606 625.84 473 624.157 473H619.739V461.104H624.157ZM621.438 471.284H624.157C624.905 471.284 625.517 470.672 625.517 469.924V464.163C625.517 463.415 624.922 462.804 624.157 462.804H621.438V471.284ZM644.537 471.284C645.285 471.284 645.896 470.672 645.896 469.924V464.163C645.896 463.398 645.302 462.804 644.537 462.804H643.177C642.413 462.804 641.818 463.415 641.818 464.163V469.924C641.818 470.672 642.43 471.284 643.177 471.284H644.537ZM640.118 469.924V464.163C640.118 462.464 641.495 461.104 643.177 461.104H644.537C646.236 461.104 647.596 462.464 647.596 464.163V469.924C647.596 471.606 646.236 473 644.537 473H643.177C641.495 473 640.118 471.606 640.118 469.924ZM657.785 461.104V462.804H652.008V466.423H657.106V468.123H652.008V473H650.308V461.104H657.785ZM675.123 464.163L676.058 469.516L676.466 464.503V461.104H678.165V465.013L677.145 473H675.786L674.426 467.919L673.067 473H671.707L670.688 465.013V461.104H672.387V464.503L672.795 469.516L673.73 464.163H675.123ZM688.355 461.104V462.804H682.577V465.914H687.675V467.613H682.577V471.301H688.355V473H680.877V461.104H688.355ZM698.544 461.104V462.804H692.766V465.914H697.865V467.613H692.766V471.301H698.544V473H691.067V461.104H698.544ZM702.956 473H701.257V461.104H702.956V466.202H703.602L706.729 461.104H708.734L705.08 467.052L708.734 473H706.729L703.602 467.902H702.956V473ZM729.114 464.843C729.114 465.71 728.757 466.491 728.179 467.052C728.757 467.613 729.114 468.395 729.114 469.261V469.941C729.114 471.64 727.754 473 726.055 473H724.695C723.013 473 721.636 471.64 721.636 469.941V469.346H723.336V469.941C723.336 470.689 723.947 471.301 724.695 471.301H726.055C726.819 471.301 727.414 470.706 727.414 469.941V469.261C727.414 468.497 726.819 467.902 726.055 467.902H724.865V466.202H726.055C726.819 466.202 727.414 465.608 727.414 464.843V464.163C727.414 463.398 726.819 462.804 726.055 462.804H724.695C723.947 462.804 723.336 463.415 723.336 464.163V464.758H721.636V464.163C721.636 462.464 723.013 461.104 724.695 461.104H726.055C727.754 461.104 729.114 462.464 729.114 464.163V464.843ZM600.889 481.104H606.837V489.924C606.837 491.606 605.46 493 603.778 493H602.418C600.719 493 599.36 491.606 599.36 489.924V488.48H601.059V489.924C601.059 490.672 601.671 491.284 602.418 491.284H603.778C604.526 491.284 605.137 490.672 605.137 489.924V482.804H600.889V481.104ZM617.027 489.924C617.027 491.606 615.65 493 613.968 493H612.608C610.909 493 609.549 491.606 609.549 489.924V481.104H611.249V489.924C611.249 490.672 611.86 491.284 612.608 491.284H613.968C614.715 491.284 615.327 490.672 615.327 489.924V481.104H617.027V489.924ZM625.517 481.104H627.216V493H624.752L621.438 483.959V493H619.739V481.104H622.203L625.517 490.145V481.104ZM647.596 491.301V493H640.118V489.074L645.896 485.829V484.163C645.896 483.398 645.302 482.804 644.537 482.804H643.177C642.43 482.804 641.818 483.415 641.818 484.163V484.758H640.118V484.163C640.118 482.464 641.495 481.104 643.177 481.104H644.537C646.236 481.104 647.596 482.464 647.596 484.163V486.831L641.818 490.077V491.301H647.596ZM654.727 491.301C655.474 491.301 656.086 490.689 656.086 489.924V489.091C656.086 488.327 655.491 487.732 654.727 487.732H653.367C652.602 487.732 652.008 488.344 652.008 489.091V489.924C652.008 490.689 652.619 491.318 653.367 491.301H654.727ZM650.308 489.924V489.091C650.308 488.174 650.716 487.358 651.345 486.797C650.818 486.236 650.478 485.489 650.478 484.656V484.163C650.478 482.464 651.855 481.104 653.537 481.104H654.557C656.256 481.104 657.616 482.464 657.616 484.163V484.656C657.616 485.489 657.293 486.236 656.749 486.797C657.395 487.358 657.785 488.174 657.785 489.091V489.924C657.785 491.606 656.426 493 654.727 493H653.367C651.685 493 650.308 491.606 650.308 489.924ZM652.177 484.656C652.177 485.404 652.755 486.015 653.486 486.032H654.557C655.304 486.032 655.916 485.421 655.916 484.656V484.163C655.916 483.398 655.321 482.804 654.557 482.804H653.537C652.772 482.804 652.177 483.415 652.177 484.163V484.656ZM671.367 487.613H677.485V489.312H671.367V487.613ZM692.596 481.104H698.544V489.924C698.544 491.606 697.168 493 695.485 493H694.126C692.427 493 691.067 491.606 691.067 489.924V488.48H692.766V489.924C692.766 490.672 693.378 491.284 694.126 491.284H695.485C696.233 491.284 696.845 490.672 696.845 489.924V482.804H692.596V481.104ZM708.734 489.924C708.734 491.606 707.358 493 705.675 493H704.316C702.616 493 701.257 491.606 701.257 489.924V481.104H702.956V489.924C702.956 490.672 703.568 491.284 704.316 491.284H705.675C706.423 491.284 707.035 490.672 707.035 489.924V481.104H708.734V489.924ZM713.146 481.104V491.301H718.924V493H711.446V481.104H713.146ZM739.303 491.301V493H731.826V491.301H734.715V483.076L731.826 484.775V482.804L734.715 481.104H736.414V491.301H739.303ZM749.493 491.301V493H742.016V489.074L747.794 485.829V484.163C747.794 483.398 747.199 482.804 746.434 482.804H745.075C744.327 482.804 743.715 483.415 743.715 484.163V484.758H742.016V484.163C742.016 482.464 743.392 481.104 745.075 481.104H746.434C748.133 481.104 749.493 482.464 749.493 484.163V486.831L743.715 490.077V491.301H749.493Z"
        fill="#E2E2E2" />
    <path
        d="M236.501 22.2088V24.248H227.528V22.2088H230.995V12.3387L227.528 14.378V12.0124L230.995 9.97314H233.034V22.2088H236.501Z"
        fill="#001EBE" />
    <path
        d="M373.501 198.209V200.248H364.528V195.537L371.461 191.642V189.644C371.461 188.726 370.748 188.012 369.83 188.012H368.199C367.301 188.012 366.567 188.747 366.567 189.644V190.358H364.528V189.644C364.528 187.605 366.18 185.973 368.199 185.973H369.83C371.869 185.973 373.501 187.605 373.501 189.644V192.845L366.567 196.74V198.209H373.501Z"
        fill="#001EBE" />
    <path
        d="M621.35 352.46C621.35 353.5 620.922 354.438 620.229 355.111C620.922 355.784 621.35 356.722 621.35 357.762V358.577C621.35 360.617 619.719 362.248 617.68 362.248H616.048C614.029 362.248 612.378 360.617 612.378 358.577V357.864H614.417V358.577C614.417 359.475 615.151 360.209 616.048 360.209H617.68C618.597 360.209 619.311 359.495 619.311 358.577V357.762C619.311 356.844 618.597 356.13 617.68 356.13H616.252V354.091H617.68C618.597 354.091 619.311 353.377 619.311 352.46V351.644C619.311 350.726 618.597 350.012 617.68 350.012H616.048C615.151 350.012 614.417 350.747 614.417 351.644V352.358H612.378V351.644C612.378 349.605 614.029 347.973 616.048 347.973H617.68C619.719 347.973 621.35 349.605 621.35 351.644V352.46Z"
        fill="#001EBE" />
    <path
        d="M142.36 291.474H144.059V292.154C144.059 292.952 144.722 293.615 145.52 293.615H146.659C147.526 293.615 148.137 293.071 148.137 292.324C148.137 289.978 142.529 289.469 142.529 286.24C142.529 284.574 143.838 283.419 145.69 283.419H146.489C148.239 283.419 149.667 284.829 149.667 286.58V287.089H147.968V286.58C147.968 285.764 147.305 285.118 146.489 285.118H145.69C144.773 285.118 144.229 285.543 144.229 286.24C144.229 288.041 149.837 288.738 149.837 292.324C149.837 294.023 148.46 295.314 146.659 295.314H145.52C143.77 295.314 142.36 293.904 142.36 292.154V291.474ZM152.549 283.419H160.027V285.118H157.138V295.314H155.438V285.118H152.549V283.419ZM164.438 295.314H162.739V291.406L165.628 283.419H167.327L170.216 291.406V295.314H168.517V292.561H164.438V295.314ZM164.744 290.862H168.211L166.495 286.104H166.461L164.744 290.862ZM180.406 295.314H178.537L176.378 290.556H174.628V295.314H172.929V283.419H177.347C179.047 283.419 180.406 284.778 180.406 286.478V287.497C180.406 288.908 179.471 290.08 178.18 290.437L180.406 295.314ZM174.628 288.857H177.347C178.112 288.857 178.707 288.262 178.707 287.497V286.478C178.707 285.713 178.112 285.118 177.347 285.118H174.628V288.857ZM183.118 283.419H190.596V285.118H187.707V295.314H186.007V285.118H183.118V283.419ZM207.916 293.598C208.664 293.598 209.276 292.986 209.276 292.239V286.478C209.276 285.713 208.681 285.118 207.916 285.118H206.557C205.792 285.118 205.197 285.73 205.197 286.478V292.239C205.197 292.986 205.809 293.598 206.557 293.598H207.916ZM203.498 292.239V286.478C203.498 284.778 204.874 283.419 206.557 283.419H207.916C209.616 283.419 210.975 284.778 210.975 286.478V292.239C210.975 293.921 209.616 295.314 207.916 295.314H206.557C204.874 295.314 203.498 293.921 203.498 292.239ZM221.165 283.419V285.118H215.387V288.738H220.485V290.437H215.387V295.314H213.688V283.419H221.165ZM238.502 286.478L239.437 291.831L239.845 286.817V283.419H241.544V287.327L240.525 295.314H239.165L237.806 290.233L236.446 295.314H235.087L234.067 287.327V283.419H235.766V286.817L236.174 291.831L237.109 286.478H238.502ZM251.734 283.419V285.118H245.956V288.228H251.054V289.927H245.956V293.615H251.734V295.314H244.257V283.419H251.734ZM261.924 283.419V285.118H256.146V288.228H261.244V289.927H256.146V293.615H261.924V295.314H254.446V283.419H261.924ZM266.336 295.314H264.636V283.419H266.336V288.517H266.981L270.108 283.419H272.114L268.46 289.367L272.114 295.314H270.108L266.981 290.216H266.336V295.314ZM292.493 293.615V295.314H285.016V293.615H287.905V285.39L285.016 287.089V285.118L287.905 283.419H289.604V293.615H292.493ZM306.075 289.927H312.193V291.627H306.075V289.927ZM149.837 303.419V305.118H144.059V308.228H149.157V309.927H144.059V313.615H149.837V315.314H142.36V303.419H149.837ZM158.327 303.419H160.027V315.314H157.562L154.249 306.274V315.314H152.549V303.419H155.013L158.327 312.459V303.419ZM167.157 303.419C168.84 303.419 170.216 304.778 170.216 306.478V312.239C170.216 313.921 168.84 315.314 167.157 315.314H162.739V303.419H167.157ZM164.438 313.598H167.157C167.905 313.598 168.517 312.986 168.517 312.239V306.478C168.517 305.73 167.922 305.118 167.157 305.118H164.438V313.598ZM187.537 313.598C188.285 313.598 188.896 312.986 188.896 312.239V306.478C188.896 305.713 188.302 305.118 187.537 305.118H186.177C185.413 305.118 184.818 305.73 184.818 306.478V312.239C184.818 312.986 185.43 313.598 186.177 313.598H187.537ZM183.118 312.239V306.478C183.118 304.778 184.495 303.419 186.177 303.419H187.537C189.236 303.419 190.596 304.778 190.596 306.478V312.239C190.596 313.921 189.236 315.314 187.537 315.314H186.177C184.495 315.314 183.118 313.921 183.118 312.239ZM200.785 303.419V305.118H195.008V308.738H200.106V310.437H195.008V315.314H193.308V303.419H200.785ZM218.123 306.478L219.058 311.831L219.466 306.817V303.419H221.165V307.327L220.145 315.314H218.786L217.426 310.233L216.067 315.314H214.707L213.688 307.327V303.419H215.387V306.817L215.795 311.831L216.73 306.478H218.123ZM231.355 303.419V305.118H225.577V308.228H230.675V309.927H225.577V313.615H231.355V315.314H223.877V303.419H231.355ZM241.544 303.419V305.118H235.766V308.228H240.865V309.927H235.766V313.615H241.544V315.314H234.067V303.419H241.544ZM245.956 315.314H244.257V303.419H245.956V308.517H246.602L249.729 303.419H251.734L248.08 309.367L251.734 315.314H249.729L246.602 310.216H245.956V315.314ZM272.114 313.615V315.314H264.636V313.615H267.525V305.39L264.636 307.089V305.118L267.525 303.419H269.225V313.615H272.114ZM143.889 323.419H149.837V332.239C149.837 333.921 148.46 335.314 146.778 335.314H145.418C143.719 335.314 142.36 333.921 142.36 332.239V330.794H144.059V332.239C144.059 332.986 144.671 333.598 145.418 333.598H146.778C147.526 333.598 148.137 332.986 148.137 332.239V325.118H143.889V323.419ZM160.027 332.239C160.027 333.921 158.65 335.314 156.968 335.314H155.608C153.909 335.314 152.549 333.921 152.549 332.239V323.419H154.249V332.239C154.249 332.986 154.86 333.598 155.608 333.598H156.968C157.715 333.598 158.327 332.986 158.327 332.239V323.419H160.027V332.239ZM168.517 323.419H170.216V335.314H167.752L164.438 326.274V335.314H162.739V323.419H165.203L168.517 332.459V323.419ZM190.596 333.615V335.314H183.118V331.389L188.896 328.143V326.478C188.896 325.713 188.302 325.118 187.537 325.118H186.177C185.43 325.118 184.818 325.73 184.818 326.478V327.072H183.118V326.478C183.118 324.778 184.495 323.419 186.177 323.419H187.537C189.236 323.419 190.596 324.778 190.596 326.478V329.146L184.818 332.391V333.615H190.596ZM200.785 333.615V335.314H193.308V333.615H196.197V325.39L193.308 327.089V325.118L196.197 323.419H197.897V333.615H200.785ZM214.367 329.927H220.485V331.627H214.367V329.927ZM235.596 323.419H241.544V332.239C241.544 333.921 240.168 335.314 238.485 335.314H237.126C235.427 335.314 234.067 333.921 234.067 332.239V330.794H235.766V332.239C235.766 332.986 236.378 333.598 237.126 333.598H238.485C239.233 333.598 239.845 332.986 239.845 332.239V325.118H235.596V323.419ZM251.734 332.239C251.734 333.921 250.358 335.314 248.675 335.314H247.316C245.616 335.314 244.257 333.921 244.257 332.239V323.419H245.956V332.239C245.956 332.986 246.568 333.598 247.316 333.598H248.675C249.423 333.598 250.035 332.986 250.035 332.239V323.419H251.734V332.239ZM260.224 323.419H261.924V335.314H259.46L256.146 326.274V335.314H254.446V323.419H256.911L260.224 332.459V323.419ZM282.303 333.615V335.314H274.826V331.389L280.604 328.143V326.478C280.604 325.713 280.009 325.118 279.244 325.118H277.885C277.137 325.118 276.525 325.73 276.525 326.478V327.072H274.826V326.478C274.826 324.778 276.202 323.419 277.885 323.419H279.244C280.944 323.419 282.303 324.778 282.303 326.478V329.146L276.525 332.391V333.615H282.303ZM289.434 333.615C290.182 333.615 290.794 333.003 290.794 332.239V331.406C290.794 330.641 290.199 330.046 289.434 330.046H288.075C287.31 330.046 286.715 330.658 286.715 331.406V332.239C286.715 333.003 287.327 333.632 288.075 333.615H289.434ZM285.016 332.239V331.406C285.016 330.488 285.424 329.672 286.052 329.112C285.525 328.551 285.186 327.803 285.186 326.97V326.478C285.186 324.778 286.562 323.419 288.245 323.419H289.264C290.964 323.419 292.323 324.778 292.323 326.478V326.97C292.323 327.803 292 328.551 291.456 329.112C292.102 329.672 292.493 330.488 292.493 331.406V332.239C292.493 333.921 291.133 335.314 289.434 335.314H288.075C286.392 335.314 285.016 333.921 285.016 332.239ZM286.885 326.97C286.885 327.718 287.463 328.33 288.194 328.347H289.264C290.012 328.347 290.624 327.735 290.624 326.97V326.478C290.624 325.713 290.029 325.118 289.264 325.118H288.245C287.48 325.118 286.885 325.73 286.885 326.478V326.97Z"
        fill="#E2E2E2" />
    <path
        d="M156.309 262.43H152.944L149.059 253.865H145.908V262.43H142.849V241.017H150.803C153.862 241.017 156.309 243.464 156.309 246.523V248.359C156.309 250.898 154.626 253.008 152.302 253.651L156.309 262.43ZM145.908 250.806H150.803C152.179 250.806 153.25 249.735 153.25 248.359V246.523C153.25 245.147 152.179 244.076 150.803 244.076H145.908V250.806ZM174.65 241.017V244.076H164.25V249.674H173.427V252.733H164.25V259.371H174.65V262.43H161.191V241.017H174.65ZM185.344 250.898H192.992V256.893C192.992 259.921 190.545 262.43 187.486 262.43H185.039C182.01 262.43 179.532 259.921 179.532 256.893V246.523C179.532 243.464 182.01 241.017 185.039 241.017H187.486C190.545 241.017 192.992 243.464 192.992 246.523V248.206H189.933V246.523C189.933 245.147 188.862 244.076 187.486 244.076H185.039C183.662 244.076 182.591 245.177 182.591 246.523V256.893C182.591 258.239 183.693 259.34 185.039 259.34H187.486C188.832 259.34 189.933 258.239 189.933 256.893V253.957H185.344V250.898ZM197.874 241.017H211.333V244.076H206.133V259.371H211.333V262.43H197.874V259.371H203.074V244.076H197.874V241.017ZM216.215 255.517H219.274V256.74C219.274 258.178 220.467 259.371 221.905 259.371H223.955C225.515 259.371 226.616 258.392 226.616 257.046C226.616 252.825 216.521 251.907 216.521 246.095C216.521 243.097 218.877 241.017 222.211 241.017H223.649C226.799 241.017 229.369 243.556 229.369 246.707V247.625H226.31V246.707C226.31 245.239 225.117 244.076 223.649 244.076H222.211C220.559 244.076 219.58 244.841 219.58 246.095C219.58 249.338 229.675 250.592 229.675 257.046C229.675 260.105 227.197 262.43 223.955 262.43H221.905C218.754 262.43 216.215 259.891 216.215 256.74V255.517ZM234.557 241.017H248.016V244.076H242.816V262.43H239.757V244.076H234.557V241.017ZM266.358 262.43H262.993L259.108 253.865H255.957V262.43H252.898V241.017H260.852C263.911 241.017 266.358 243.464 266.358 246.523V248.359C266.358 250.898 264.675 253.008 262.351 253.651L266.358 262.43ZM255.957 250.806H260.852C262.228 250.806 263.299 249.735 263.299 248.359V246.523C263.299 245.147 262.228 244.076 260.852 244.076H255.957V250.806ZM274.299 262.43H271.24V255.394L276.44 241.017H279.499L284.699 255.394V262.43H281.64V257.474H274.299V262.43ZM274.85 254.415H281.09L278 245.85H277.939L274.85 254.415ZM289.582 241.017H303.041V244.076H297.841V262.43H294.782V244.076H289.582V241.017ZM307.923 241.017H321.382V244.076H316.182V259.371H321.382V262.43H307.923V259.371H313.123V244.076H307.923V241.017ZM334.218 259.34C335.564 259.34 336.665 258.239 336.665 256.893V246.523C336.665 245.147 335.594 244.076 334.218 244.076H331.771C330.394 244.076 329.323 245.177 329.323 246.523V256.893C329.323 258.239 330.425 259.34 331.771 259.34H334.218ZM326.265 256.893V246.523C326.265 243.464 328.742 241.017 331.771 241.017H334.218C337.277 241.017 339.724 243.464 339.724 246.523V256.893C339.724 259.921 337.277 262.43 334.218 262.43H331.771C328.742 262.43 326.265 259.921 326.265 256.893ZM355.006 241.017H358.065V262.43H353.63L347.665 246.156V262.43H344.606V241.017H349.041L355.006 257.291V241.017Z"
        fill="#E2E2E2" />
    <path
        d="M7 129.58L5.72545 129.58L5.72545 130.108L6.09876 130.481L7 129.58ZM53.7334 176.313L52.8321 177.214L53.2054 177.587L53.7334 177.587L53.7334 176.313ZM92.8194 176.313C92.8194 180.067 95.8628 183.111 99.617 183.111C103.371 183.111 106.415 180.067 106.415 176.313C106.415 172.559 103.371 169.515 99.617 169.515C95.8628 169.515 92.8194 172.559 92.8194 176.313ZM0.202424 86.6699C0.202424 90.4241 3.2458 93.4675 7 93.4675C10.7542 93.4675 13.7976 90.4241 13.7976 86.6699C13.7976 82.9157 10.7542 79.8723 7 79.8723C3.2458 79.8723 0.202425 82.9157 0.202424 86.6699ZM6.09876 130.481L52.8321 177.214L54.6346 175.412L7.90124 128.678L6.09876 130.481ZM53.7334 177.587L99.617 177.587L99.617 175.038L53.7334 175.038L53.7334 177.587ZM8.27455 129.58L8.27455 86.6699L5.72545 86.6699L5.72545 129.58L8.27455 129.58Z"
        fill="#E2E2E2" />
    <circle cx="18.2685" cy="18.2685" r="18.2685" transform="matrix(-1 0 0 1 750.537 678)" fill="#E2E2E2" />
    <path
        d="M716.209 787.159H717.909V787.839C717.909 788.638 718.571 789.301 719.37 789.301H720.509C721.375 789.301 721.987 788.757 721.987 788.009C721.987 785.664 716.379 785.154 716.379 781.925C716.379 780.26 717.688 779.104 719.54 779.104H720.339C722.089 779.104 723.517 780.515 723.517 782.265V782.775H721.817V782.265C721.817 781.449 721.154 780.804 720.339 780.804H719.54C718.622 780.804 718.078 781.228 718.078 781.925C718.078 783.727 723.686 784.423 723.686 788.009C723.686 789.708 722.31 791 720.509 791H719.37C717.62 791 716.209 789.59 716.209 787.839V787.159ZM726.399 779.104H733.876V780.804H730.987V791H729.288V780.804H726.399V779.104ZM738.288 791H736.589V787.091L739.478 779.104H741.177L744.066 787.091V791H742.367V788.247H738.288V791ZM738.594 786.548H742.061L740.344 781.789H740.31L738.594 786.548ZM754.256 791H752.386L750.228 786.242H748.478V791H746.778V779.104H751.197C752.896 779.104 754.256 780.464 754.256 782.163V783.183C754.256 784.593 753.321 785.766 752.029 786.123L754.256 791ZM748.478 784.542H751.197C751.961 784.542 752.556 783.948 752.556 783.183V782.163C752.556 781.398 751.961 780.804 751.197 780.804H748.478V784.542ZM756.968 779.104H764.445V780.804H761.556V791H759.857V780.804H756.968V779.104ZM781.766 789.284C782.514 789.284 783.125 788.672 783.125 787.924V782.163C783.125 781.398 782.531 780.804 781.766 780.804H780.406C779.642 780.804 779.047 781.415 779.047 782.163V787.924C779.047 788.672 779.659 789.284 780.406 789.284H781.766ZM777.347 787.924V782.163C777.347 780.464 778.724 779.104 780.406 779.104H781.766C783.465 779.104 784.825 780.464 784.825 782.163V787.924C784.825 789.606 783.465 791 781.766 791H780.406C778.724 791 777.347 789.606 777.347 787.924ZM795.015 779.104V780.804H789.237V784.423H794.335V786.123H789.237V791H787.537V779.104H795.015ZM812.352 782.163L813.287 787.516L813.695 782.503V779.104H815.394V783.013L814.374 791H813.015L811.655 785.919L810.296 791H808.936L807.917 783.013V779.104H809.616V782.503L810.024 787.516L810.959 782.163H812.352ZM825.584 779.104V780.804H819.806V783.914H824.904V785.613H819.806V789.301H825.584V791H818.106V779.104H825.584ZM835.773 779.104V780.804H829.995V783.914H835.094V785.613H829.995V789.301H835.773V791H828.296V779.104H835.773ZM840.185 791H838.486V779.104H840.185V784.202H840.831L843.958 779.104H845.963L842.309 785.052L845.963 791H843.958L840.831 785.902H840.185V791ZM862.944 780.124H864.643V784.372H866.343V786.072H864.643V791H862.944V786.072H858.865V779.104H860.565V784.372H862.944V780.124ZM717.739 799.104H723.686V807.924C723.686 809.606 722.31 811 720.628 811H719.268C717.569 811 716.209 809.606 716.209 807.924V806.48H717.909V807.924C717.909 808.672 718.52 809.284 719.268 809.284H720.628C721.375 809.284 721.987 808.672 721.987 807.924V800.804H717.739V799.104ZM733.876 807.924C733.876 809.606 732.5 811 730.817 811H729.458C727.758 811 726.399 809.606 726.399 807.924V799.104H728.098V807.924C728.098 808.672 728.71 809.284 729.458 809.284H730.817C731.565 809.284 732.177 808.672 732.177 807.924V799.104H733.876V807.924ZM738.288 799.104V809.301H744.066V811H736.589V799.104H738.288ZM764.445 809.301V811H756.968V809.301H759.857V801.076L756.968 802.775V800.804L759.857 799.104H761.556V809.301H764.445ZM767.158 805.953V799.104H773.615V800.804H768.857V803.897L770.268 802.945H771.576C773.259 802.945 774.635 804.304 774.635 806.004V807.941C774.635 809.64 773.276 811 771.576 811H770.217C768.534 811 767.158 809.64 767.158 807.941V807.771H768.857V807.941C768.857 808.689 769.469 809.301 770.217 809.301H771.576C772.341 809.301 772.936 808.706 772.936 807.941V806.004C772.936 805.256 772.324 804.644 771.576 804.644H770.794L768.857 805.953H767.158Z"
        fill="#E2E2E2" />
    <path
        d="M732.42 689.197H734.459V694.295H736.499V696.334H734.459V702.248H732.42V696.334H727.526V687.973H729.565V694.295H732.42V689.197Z"
        fill="#001EBE" />
    <path
        d="M729.906 744.929C729.906 747.988 727.459 750.435 724.4 750.435H719.506V759H716.447V737.588H724.4C727.459 737.588 729.906 740.035 729.906 743.094V744.929ZM719.506 747.376H724.4C725.777 747.376 726.847 746.306 726.847 744.929V743.094C726.847 741.717 725.777 740.647 724.4 740.647H719.506V747.376ZM734.789 737.588H748.248V740.647H743.048V755.941H748.248V759H734.789V755.941H739.989V740.647H734.789V737.588ZM753.13 737.588H766.589V740.647H761.389V759H758.33V740.647H753.13V737.588ZM781.872 743.094C781.872 741.717 780.801 740.647 779.425 740.647H776.978C775.601 740.647 774.531 741.748 774.531 743.094V753.463C774.531 754.809 775.632 755.911 776.978 755.911H779.425C780.771 755.911 781.872 754.809 781.872 753.463V751.781H784.931V753.463C784.931 756.492 782.484 759 779.425 759H776.978C773.949 759 771.472 756.492 771.472 753.463V743.094C771.472 740.035 773.949 737.588 776.978 737.588H779.425C782.484 737.588 784.931 740.035 784.931 743.094V744.776H781.872V743.094ZM792.872 737.588V746.153H800.213V737.588H803.272V759H800.213V749.211H792.872V759H789.813V737.588H792.872ZM808.155 737.588H821.614V740.647H816.414V755.941H821.614V759H808.155V755.941H813.355V740.647H808.155V737.588ZM836.896 737.588H839.955V759H835.52L829.555 742.727V759H826.496V737.588H830.932L836.896 753.861V737.588ZM850.65 747.468H858.297V753.463C858.297 756.492 855.85 759 852.791 759H850.344C847.315 759 844.838 756.492 844.838 753.463V743.094C844.838 740.035 847.315 737.588 850.344 737.588H852.791C855.85 737.588 858.297 740.035 858.297 743.094V744.776H855.238V743.094C855.238 741.717 854.167 740.647 852.791 740.647H850.344C848.967 740.647 847.897 741.748 847.897 743.094V753.463C847.897 754.809 848.998 755.911 850.344 755.911H852.791C854.137 755.911 855.238 754.809 855.238 753.463V750.527H850.65V747.468Z"
        fill="#E2E2E2" />
    <path
        d="M839.91 530L839.91 528.725L840.438 528.725L840.811 529.099L839.91 530ZM886.643 678.202C890.397 678.202 893.441 681.246 893.441 685C893.441 688.754 890.397 691.798 886.643 691.798C882.889 691.798 879.845 688.754 879.845 685C879.845 681.246 882.889 678.202 886.643 678.202ZM886.643 576.733L887.544 575.832L887.918 576.205L887.918 576.733L886.643 576.733ZM797 523.202C800.754 523.202 803.798 526.246 803.798 530C803.798 533.754 800.754 536.798 797 536.798C793.246 536.798 790.202 533.754 790.202 530C790.202 526.246 793.246 523.202 797 523.202ZM840.811 529.099L887.544 575.832L885.742 577.635L839.008 530.901L840.811 529.099ZM887.918 576.733L887.918 685L885.368 685L885.368 576.733L887.918 576.733ZM839.91 531.275L797 531.275L797 528.725L839.91 528.725L839.91 531.275Z"
        fill="#E2E2E2" />
    <path
        d="M464.91 251L464.91 249.725L465.438 249.725L465.811 250.099L464.91 251ZM511.643 297.733L511.643 299.008L511.115 299.008L510.742 298.635L511.643 297.733ZM553 290.936C556.754 290.936 559.798 293.979 559.798 297.733C559.798 301.488 556.754 304.531 553 304.531C549.246 304.531 546.202 301.488 546.202 297.733C546.202 293.979 549.246 290.936 553 290.936ZM422 244.202C425.754 244.202 428.798 247.246 428.798 251C428.798 254.754 425.754 257.798 422 257.798C418.246 257.798 415.202 254.754 415.202 251C415.202 247.246 418.246 244.202 422 244.202ZM465.811 250.099L512.544 296.832L510.742 298.635L464.008 251.901L465.811 250.099ZM511.643 296.459L553 296.459L553 299.008L511.643 299.008L511.643 296.459ZM464.91 252.275L422 252.275L422 249.725L464.91 249.725L464.91 252.275Z"
        fill="#E2E2E2" />
    <path
        d="M629.09 758.732L629.09 760.007L628.562 760.007L628.189 759.634L629.09 758.732ZM458.5 718.797C454.746 718.797 451.702 715.753 451.702 711.999C451.702 708.245 454.746 705.201 458.5 705.201C462.254 705.201 465.298 708.245 465.298 711.999C465.298 715.753 462.254 718.797 458.5 718.797ZM582.357 711.999L582.357 710.725L582.885 710.725L583.258 711.098L582.357 711.999ZM672 765.53C668.246 765.53 665.202 762.487 665.202 758.732C665.202 754.978 668.246 751.935 672 751.935C675.754 751.935 678.798 754.978 678.798 758.732C678.798 762.487 675.754 765.53 672 765.53ZM628.189 759.634L581.456 712.9L583.258 711.098L629.992 757.831L628.189 759.634ZM582.357 713.274L458.5 713.274L458.5 710.725L582.357 710.725L582.357 713.274ZM629.09 757.458L672 757.458L672 760.007L629.09 760.007L629.09 757.458Z"
        fill="#E2E2E2" />
    <path
        d="M196.431 647.094L198.113 656.729L198.847 647.705V641.588H201.906V648.623L200.071 663H197.624L195.177 653.854L192.73 663H190.282L188.447 648.623V641.588H191.506V647.705L192.24 656.729L193.923 647.094H196.431ZM206.789 641.588H220.248V644.647H215.048V659.941H220.248V663H206.789V659.941H211.989V644.647H206.789V641.588ZM235.53 641.588H238.589V663H234.154L228.189 646.727V663H225.13V641.588H229.566L235.53 657.861V641.588ZM253.872 641.588H256.931V663H252.495L246.531 646.727V663H243.472V641.588H247.907L253.872 657.861V641.588ZM275.272 641.588V644.647H264.872V650.244H274.049V653.303H264.872V659.941H275.272V663H261.813V641.588H275.272ZM293.614 663H290.249L286.364 654.435H283.214V663H280.155V641.588H288.108C291.167 641.588 293.614 644.035 293.614 647.094V648.929C293.614 651.468 291.931 653.579 289.607 654.221L293.614 663ZM283.214 651.376H288.108C289.484 651.376 290.555 650.306 290.555 648.929V647.094C290.555 645.717 289.484 644.647 288.108 644.647H283.214V651.376ZM191.506 700H188.447V692.965L193.647 678.588H196.706L201.906 692.965V700H198.847V695.045H191.506V700ZM192.057 691.986H198.297L195.207 683.421H195.146L192.057 691.986ZM217.189 678.588H220.248V700H215.812L209.848 683.727V700H206.789V678.588H211.224L217.189 694.861V678.588ZM235.53 678.588H238.589V700H234.154L228.189 683.727V700H225.13V678.588H229.566L235.53 694.861V678.588ZM251.425 696.911C252.771 696.911 253.872 695.809 253.872 694.463V684.094C253.872 682.717 252.801 681.647 251.425 681.647H248.978C247.601 681.647 246.531 682.748 246.531 684.094V694.463C246.531 695.809 247.632 696.911 248.978 696.911H251.425ZM243.472 694.463V684.094C243.472 681.035 245.949 678.588 248.978 678.588H251.425C254.484 678.588 256.931 681.035 256.931 684.094V694.463C256.931 697.492 254.484 700 251.425 700H248.978C245.949 700 243.472 697.492 243.472 694.463ZM275.272 694.463C275.272 697.492 272.795 700 269.766 700H267.319C264.26 700 261.813 697.492 261.813 694.463V678.588H264.872V694.463C264.872 695.809 265.973 696.911 267.319 696.911H269.766C271.112 696.911 272.213 695.809 272.213 694.463V678.588H275.272V694.463ZM290.555 678.588H293.614V700H289.178L283.214 683.727V700H280.155V678.588H284.59L290.555 694.861V678.588ZM308.896 684.094C308.896 682.717 307.826 681.647 306.449 681.647H304.002C302.626 681.647 301.555 682.748 301.555 684.094V694.463C301.555 695.809 302.656 696.911 304.002 696.911H306.449C307.795 696.911 308.896 695.809 308.896 694.463V692.781H311.955V694.463C311.955 697.492 309.508 700 306.449 700H304.002C300.974 700 298.496 697.492 298.496 694.463V684.094C298.496 681.035 300.974 678.588 304.002 678.588H306.449C309.508 678.588 311.955 681.035 311.955 684.094V685.776H308.896V684.094ZM330.297 678.588V681.647H319.897V687.244H329.073V690.303H319.897V696.941H330.297V700H316.838V678.588H330.297ZM341.083 691.374L338.238 685.317V700H335.179V678.588H338.238L341.909 686.571L345.579 678.588H348.638V700H345.579V685.317L342.735 691.374H341.083ZM366.98 678.588V681.647H356.58V687.244H365.756V690.303H356.58V696.941H366.98V700H353.521V678.588H366.98ZM382.262 678.588H385.321V700H380.886L374.921 683.727V700H371.862V678.588H376.298L382.262 694.861V678.588ZM390.204 678.588H403.663V681.647H398.463V700H395.404V681.647H390.204V678.588Z"
        fill="#E2E2E2" />
    <path
        d="M190.639 727.208L189.059 723.843V732H187.36V720.104H189.059L191.098 724.54L193.137 720.104H194.837V732H193.137V723.843L191.557 727.208H190.639ZM197.549 720.104H205.027V721.804H202.138V730.301H205.027V732H197.549V730.301H200.438V721.804H197.549V720.104ZM212.157 720.104C213.84 720.104 215.216 721.464 215.216 723.163V728.924C215.216 730.606 213.84 732 212.157 732H207.739V720.104H212.157ZM209.438 730.284H212.157C212.905 730.284 213.517 729.672 213.517 728.924V723.163C213.517 722.415 212.922 721.804 212.157 721.804H209.438V730.284ZM232.554 723.163L233.488 728.516L233.896 723.503V720.104H235.596V724.013L234.576 732H233.217L231.857 726.919L230.498 732H229.138L228.118 724.013V720.104H229.818V723.503L230.226 728.516L231.16 723.163H232.554ZM245.785 720.104V721.804H240.008V724.914H245.106V726.613H240.008V730.301H245.785V732H238.308V720.104H245.785ZM255.975 720.104V721.804H250.197V724.914H255.295V726.613H250.197V730.301H255.975V732H248.498V720.104H255.975ZM260.387 732H258.688V720.104H260.387V725.202H261.033L264.16 720.104H266.165L262.511 726.052L266.165 732H264.16L261.033 726.902H260.387V732ZM283.146 721.124H284.845V725.372H286.544V727.072H284.845V732H283.146V727.072H279.067V720.104H280.766V725.372H283.146V721.124ZM188.889 740.104H194.837V748.924C194.837 750.606 193.46 752 191.778 752H190.418C188.719 752 187.36 750.606 187.36 748.924V747.48H189.059V748.924C189.059 749.672 189.671 750.284 190.418 750.284H191.778C192.526 750.284 193.137 749.672 193.137 748.924V741.804H188.889V740.104ZM205.027 748.924C205.027 750.606 203.65 752 201.968 752H200.608C198.909 752 197.549 750.606 197.549 748.924V740.104H199.249V748.924C199.249 749.672 199.86 750.284 200.608 750.284H201.968C202.715 750.284 203.327 749.672 203.327 748.924V740.104H205.027V748.924ZM209.438 740.104V750.301H215.216V752H207.739V740.104H209.438ZM235.596 750.301V752H228.118V750.301H231.007V742.076L228.118 743.775V741.804L231.007 740.104H232.707V750.301H235.596ZM240.687 752H238.988V748.686L244.086 743.418V741.804H240.008V743.673H238.308V740.104H245.785V744.098L240.687 749.366V752Z"
        fill="#E2E2E2" />
    <circle cx="129.268" cy="652.268" r="18.2685" fill="#E2E2E2" />
    <path
        d="M124.528 652.193V643.975H132.277V646.014H126.567V649.726L128.26 648.584H129.83C131.849 648.584 133.501 650.215 133.501 652.255V654.579C133.501 656.619 131.869 658.25 129.83 658.25H128.199C126.18 658.25 124.528 656.619 124.528 654.579V654.375H126.567V654.579C126.567 655.477 127.301 656.211 128.199 656.211H129.83C130.748 656.211 131.461 655.497 131.461 654.579V652.255C131.461 651.357 130.727 650.623 129.83 650.623H128.892L126.567 652.193H124.528Z"
        fill="#001EBE" />
    <path
        d="M168.733 803L168.733 801.725L168.205 801.725L167.832 802.099L168.733 803ZM122 849.733L121.098 848.832L120.725 849.205L120.725 849.733L122 849.733ZM122 944.702C118.245 944.702 115.202 947.746 115.202 951.5C115.202 955.254 118.245 958.298 122 958.298C125.754 958.298 128.797 955.254 128.797 951.5C128.797 947.746 125.754 944.702 122 944.702ZM211.643 796.202C207.888 796.202 204.845 799.246 204.845 803C204.845 806.754 207.888 809.798 211.643 809.798C215.397 809.798 218.44 806.754 218.44 803C218.44 799.246 215.397 796.202 211.643 796.202ZM167.832 802.099L121.098 848.832L122.901 850.635L169.634 803.901L167.832 802.099ZM120.725 849.733L120.725 951.5L123.274 951.5L123.274 849.733L120.725 849.733ZM168.733 804.275L211.643 804.275L211.643 801.725L168.733 801.725L168.733 804.275Z"
        fill="#E2E2E2" />
    <path
        d="M434.733 1147.62L434.733 1148.89L434.205 1148.89L433.832 1148.52L434.733 1147.62ZM388 1100.88L387.098 1101.79L386.725 1101.41L386.725 1100.88L388 1100.88ZM388 1061.8C384.245 1061.8 381.202 1058.75 381.202 1055C381.202 1051.25 384.245 1048.2 388 1048.2C391.754 1048.2 394.797 1051.25 394.797 1055C394.797 1058.75 391.754 1061.8 388 1061.8ZM477.643 1154.41C473.888 1154.41 470.845 1151.37 470.845 1147.62C470.845 1143.86 473.888 1140.82 477.643 1140.82C481.397 1140.82 484.44 1143.86 484.44 1147.62C484.44 1151.37 481.397 1154.41 477.643 1154.41ZM433.832 1148.52L387.098 1101.79L388.901 1099.98L435.634 1146.72L433.832 1148.52ZM386.725 1100.88L386.725 1055L389.274 1055L389.274 1100.88L386.725 1100.88ZM434.733 1146.34L477.643 1146.34L477.643 1148.89L434.733 1148.89L434.733 1146.34Z"
        fill="#E2E2E2" />
    <path
        d="M185.536 1073.1V1074.8H179.758V1077.91H184.856V1079.61H179.758V1083.3H185.536V1085H178.059V1073.1H185.536ZM194.026 1073.1H195.726V1085H193.262L189.948 1075.96V1085H188.248V1073.1H190.713L194.026 1082.15V1073.1ZM202.857 1073.1C204.539 1073.1 205.916 1074.46 205.916 1076.16V1081.92C205.916 1083.61 204.539 1085 202.857 1085H198.438V1073.1H202.857ZM200.138 1083.28H202.857C203.604 1083.28 204.216 1082.67 204.216 1081.92V1076.16C204.216 1075.42 203.621 1074.8 202.857 1074.8H200.138V1083.28ZM223.236 1083.28C223.984 1083.28 224.596 1082.67 224.596 1081.92V1076.16C224.596 1075.4 224.001 1074.8 223.236 1074.8H221.877C221.112 1074.8 220.517 1075.42 220.517 1076.16V1081.92C220.517 1082.67 221.129 1083.28 221.877 1083.28H223.236ZM218.818 1081.92V1076.16C218.818 1074.46 220.194 1073.1 221.877 1073.1H223.236C224.935 1073.1 226.295 1074.46 226.295 1076.16V1081.92C226.295 1083.61 224.935 1085 223.236 1085H221.877C220.194 1085 218.818 1083.61 218.818 1081.92ZM236.485 1073.1V1074.8H230.707V1078.42H235.805V1080.12H230.707V1085H229.007V1073.1H236.485ZM253.822 1076.16L254.757 1081.52L255.165 1076.5V1073.1H256.864V1077.01L255.845 1085H254.485L253.125 1079.92L251.766 1085H250.406L249.387 1077.01V1073.1H251.086V1076.5L251.494 1081.52L252.429 1076.16H253.822ZM267.054 1073.1V1074.8H261.276V1077.91H266.374V1079.61H261.276V1083.3H267.054V1085H259.577V1073.1H267.054ZM277.244 1073.1V1074.8H271.466V1077.91H276.564V1079.61H271.466V1083.3H277.244V1085H269.766V1073.1H277.244ZM281.655 1085H279.956V1073.1H281.655V1078.2H282.301L285.428 1073.1H287.433L283.78 1079.05L287.433 1085H285.428L282.301 1079.9H281.655V1085ZM304.414 1074.12H306.113V1078.37H307.813V1080.07H306.113V1085H304.414V1080.07H300.335V1073.1H302.035V1078.37H304.414V1074.12ZM179.588 1093.1H185.536V1101.92C185.536 1103.61 184.16 1105 182.477 1105H181.118C179.418 1105 178.059 1103.61 178.059 1101.92V1100.48H179.758V1101.92C179.758 1102.67 180.37 1103.28 181.118 1103.28H182.477C183.225 1103.28 183.837 1102.67 183.837 1101.92V1094.8H179.588V1093.1ZM195.726 1101.92C195.726 1103.61 194.349 1105 192.667 1105H191.307C189.608 1105 188.248 1103.61 188.248 1101.92V1093.1H189.948V1101.92C189.948 1102.67 190.56 1103.28 191.307 1103.28H192.667C193.415 1103.28 194.026 1102.67 194.026 1101.92V1093.1H195.726V1101.92ZM200.138 1093.1V1103.3H205.916V1105H198.438V1093.1H200.138ZM226.295 1103.3V1105H218.818V1103.3H221.707V1095.08L218.818 1096.77V1094.8L221.707 1093.1H223.406V1103.3H226.295ZM234.785 1096.16C234.785 1095.42 234.174 1094.8 233.426 1094.8H232.066C231.302 1094.8 230.707 1095.4 230.707 1096.16V1097.59C230.707 1098.34 231.319 1098.95 232.066 1098.95H232.848L234.785 1097.64V1096.16ZM229.007 1101.94V1101.43H230.707V1101.94C230.707 1102.71 231.302 1103.3 232.066 1103.3H233.426C234.191 1103.3 234.785 1102.71 234.785 1101.94V1099.7L233.375 1100.65H232.066C230.384 1100.65 229.007 1099.29 229.007 1097.59V1096.16C229.007 1094.46 230.367 1093.1 232.066 1093.1H233.426C235.108 1093.1 236.485 1094.46 236.485 1096.16V1101.94C236.485 1103.64 235.125 1105 233.426 1105H232.066C230.367 1105 229.007 1103.64 229.007 1101.94Z"
        fill="#E2E2E2" />
    <circle cx="193.268" cy="987.268" r="18.2685" fill="#E2E2E2" />
    <path
        d="M190.567 989.577C190.567 990.475 191.301 991.209 192.199 991.209H193.83C194.748 991.209 195.461 990.495 195.461 989.577V987.864C195.461 986.967 194.727 986.233 193.83 986.233H192.892L190.567 987.803V989.577ZM188.528 989.577V982.644C188.528 980.605 190.159 978.973 192.199 978.973H193.83C195.869 978.973 197.501 980.605 197.501 982.644V983.256H195.461V982.644C195.461 981.726 194.748 981.012 193.83 981.012H192.199C191.281 981.012 190.567 981.726 190.567 982.644V985.336L192.26 984.194H193.83C195.849 984.194 197.501 985.825 197.501 987.864V989.577C197.501 991.617 195.869 993.248 193.83 993.248H192.199C190.18 993.248 188.528 991.617 188.528 989.577Z"
        fill="#001EBE" />
    <path
        d="M190.906 1031.59V1034.65H180.506V1041.16H189.683V1044.22H180.506V1053H177.447V1031.59H190.906ZM209.248 1047.46C209.248 1050.49 206.77 1053 203.742 1053H201.295C198.236 1053 195.789 1050.49 195.789 1047.46V1031.59H198.848V1047.46C198.848 1048.81 199.949 1049.91 201.295 1049.91H203.742C205.088 1049.91 206.189 1048.81 206.189 1047.46V1031.59H209.248V1047.46ZM224.53 1031.59H227.589V1053H223.154L217.189 1036.73V1053H214.13V1031.59H218.566L224.53 1047.86V1031.59ZM240.425 1031.59C243.453 1031.59 245.931 1034.03 245.931 1037.09V1047.46C245.931 1050.49 243.453 1053 240.425 1053H232.472V1031.59H240.425ZM235.531 1049.91H240.425C241.771 1049.91 242.872 1048.81 242.872 1047.46V1037.09C242.872 1035.75 241.801 1034.65 240.425 1034.65H235.531V1049.91ZM250.813 1031.59H264.272V1034.65H259.072V1049.94H264.272V1053H250.813V1049.94H256.013V1034.65H250.813V1031.59ZM279.555 1031.59H282.614V1053H278.178L272.214 1036.73V1053H269.155V1031.59H273.59L279.555 1047.86V1031.59ZM293.308 1041.47H300.955V1047.46C300.955 1050.49 298.508 1053 295.449 1053H293.002C289.974 1053 287.496 1050.49 287.496 1047.46V1037.09C287.496 1034.03 289.974 1031.59 293.002 1031.59H295.449C298.508 1031.59 300.955 1034.03 300.955 1037.09V1038.78H297.896V1037.09C297.896 1035.72 296.826 1034.65 295.449 1034.65H293.002C291.626 1034.65 290.555 1035.75 290.555 1037.09V1047.46C290.555 1048.81 291.656 1049.91 293.002 1049.91H295.449C296.795 1049.91 297.896 1048.81 297.896 1047.46V1044.53H293.308V1041.47Z"
        fill="#E2E2E2" />
    <path
        d="M542.72 1100.57C542.72 1104.17 539.84 1107.05 536.24 1107.05H530.48V1117.13H526.88V1091.93H536.24C539.84 1091.93 542.72 1094.81 542.72 1098.41V1100.57ZM530.48 1103.45H536.24C537.86 1103.45 539.12 1102.19 539.12 1100.57V1098.41C539.12 1096.79 537.86 1095.53 536.24 1095.53H530.48V1103.45ZM564.306 1117.13H560.346L555.774 1107.05H552.066V1117.13H548.466V1091.93H557.826C561.426 1091.93 564.306 1094.81 564.306 1098.41V1100.57C564.306 1103.56 562.326 1106.04 559.59 1106.8L564.306 1117.13ZM552.066 1103.45H557.826C559.446 1103.45 560.706 1102.19 560.706 1100.57V1098.41C560.706 1096.79 559.446 1095.53 557.826 1095.53H552.066V1103.45ZM579.412 1113.49C580.996 1113.49 582.292 1112.2 582.292 1110.61V1098.41C582.292 1096.79 581.032 1095.53 579.412 1095.53H576.532C574.912 1095.53 573.652 1096.83 573.652 1098.41V1110.61C573.652 1112.2 574.948 1113.49 576.532 1113.49H579.412ZM570.052 1110.61V1098.41C570.052 1094.81 572.968 1091.93 576.532 1091.93H579.412C583.012 1091.93 585.892 1094.81 585.892 1098.41V1110.61C585.892 1114.18 583.012 1117.13 579.412 1117.13H576.532C572.968 1117.13 570.052 1114.18 570.052 1110.61ZM598.478 1103.56H607.478V1110.61C607.478 1114.18 604.598 1117.13 600.998 1117.13H598.118C594.554 1117.13 591.638 1114.18 591.638 1110.61V1098.41C591.638 1094.81 594.554 1091.93 598.118 1091.93H600.998C604.598 1091.93 607.478 1094.81 607.478 1098.41V1100.39H603.878V1098.41C603.878 1096.79 602.618 1095.53 600.998 1095.53H598.118C596.498 1095.53 595.238 1096.83 595.238 1098.41V1110.61C595.238 1112.2 596.534 1113.49 598.118 1113.49H600.998C602.582 1113.49 603.878 1112.2 603.878 1110.61V1107.16H598.478V1103.56ZM629.064 1117.13H625.104L620.532 1107.05H616.824V1117.13H613.224V1091.93H622.584C626.184 1091.93 629.064 1094.81 629.064 1098.41V1100.57C629.064 1103.56 627.084 1106.04 624.348 1106.8L629.064 1117.13ZM616.824 1103.45H622.584C624.204 1103.45 625.464 1102.19 625.464 1100.57V1098.41C625.464 1096.79 624.204 1095.53 622.584 1095.53H616.824V1103.45ZM650.65 1091.93V1095.53H638.41V1102.12H649.21V1105.72H638.41V1113.53H650.65V1117.13H634.81V1091.93H650.65ZM656.396 1108.99H659.996V1110.43C659.996 1112.13 661.4 1113.53 663.092 1113.53H665.504C667.34 1113.53 668.636 1112.38 668.636 1110.79C668.636 1105.83 656.756 1104.75 656.756 1097.91C656.756 1094.38 659.528 1091.93 663.452 1091.93H665.144C668.852 1091.93 671.876 1094.92 671.876 1098.63V1099.71H668.276V1098.63C668.276 1096.9 666.872 1095.53 665.144 1095.53H663.452C661.508 1095.53 660.356 1096.43 660.356 1097.91C660.356 1101.72 672.236 1103.2 672.236 1110.79C672.236 1114.39 669.32 1117.13 665.504 1117.13H663.092C659.384 1117.13 656.396 1114.14 656.396 1110.43V1108.99ZM677.982 1108.99H681.582V1110.43C681.582 1112.13 682.986 1113.53 684.678 1113.53H687.09C688.926 1113.53 690.222 1112.38 690.222 1110.79C690.222 1105.83 678.342 1104.75 678.342 1097.91C678.342 1094.38 681.114 1091.93 685.038 1091.93H686.73C690.438 1091.93 693.462 1094.92 693.462 1098.63V1099.71H689.862V1098.63C689.862 1096.9 688.458 1095.53 686.73 1095.53H685.038C683.094 1095.53 681.942 1096.43 681.942 1097.91C681.942 1101.72 693.822 1103.2 693.822 1110.79C693.822 1114.39 690.906 1117.13 687.09 1117.13H684.678C680.97 1117.13 677.982 1114.14 677.982 1110.43V1108.99ZM526.88 1134.93H542.72V1138.53H536.6V1160.13H533V1138.53H526.88V1134.93ZM564.306 1160.13H560.346L555.774 1150.05H552.066V1160.13H548.466V1134.93H557.826C561.426 1134.93 564.306 1137.81 564.306 1141.41V1143.57C564.306 1146.56 562.326 1149.04 559.59 1149.8L564.306 1160.13ZM552.066 1146.45H557.826C559.446 1146.45 560.706 1145.19 560.706 1143.57V1141.41C560.706 1139.79 559.446 1138.53 557.826 1138.53H552.066V1146.45ZM573.652 1160.13H570.052V1151.85L576.172 1134.93H579.772L585.892 1151.85V1160.13H582.292V1154.3H573.652V1160.13ZM574.3 1150.7H581.644L578.008 1140.62H577.936L574.3 1150.7ZM603.878 1141.41C603.878 1139.79 602.618 1138.53 600.998 1138.53H598.118C596.498 1138.53 595.238 1139.83 595.238 1141.41V1153.61C595.238 1155.2 596.534 1156.49 598.118 1156.49H600.998C602.582 1156.49 603.878 1155.2 603.878 1153.61V1151.63H607.478V1153.61C607.478 1157.18 604.598 1160.13 600.998 1160.13H598.118C594.554 1160.13 591.638 1157.18 591.638 1153.61V1141.41C591.638 1137.81 594.554 1134.93 598.118 1134.93H600.998C604.598 1134.93 607.478 1137.81 607.478 1141.41V1143.39H603.878V1141.41ZM616.824 1160.13H613.224V1134.93H616.824V1145.73H618.192L624.816 1134.93H629.064L621.324 1147.53L629.064 1160.13H624.816L618.192 1149.33H616.824V1160.13ZM634.81 1134.93H650.65V1138.53H644.53V1156.53H650.65V1160.13H634.81V1156.53H640.93V1138.53H634.81V1134.93ZM668.636 1134.93H672.236V1160.13H667.016L659.996 1140.98V1160.13H656.396V1134.93H661.616L668.636 1154.08V1134.93ZM684.822 1146.56H693.822V1153.61C693.822 1157.18 690.942 1160.13 687.342 1160.13H684.462C680.898 1160.13 677.982 1157.18 677.982 1153.61V1141.41C677.982 1137.81 680.898 1134.93 684.462 1134.93H687.342C690.942 1134.93 693.822 1137.81 693.822 1141.41V1143.39H690.222V1141.41C690.222 1139.79 688.962 1138.53 687.342 1138.53H684.462C682.842 1138.53 681.582 1139.83 681.582 1141.41V1153.61C681.582 1155.2 682.878 1156.49 684.462 1156.49H687.342C688.926 1156.49 690.222 1155.2 690.222 1153.61V1150.16H684.822V1146.56Z"
        fill="#E2E2E2" />
    <circle cx="542.268" cy="1050.27" r="18.2685" fill="#E2E2E2" />
    <path
        d="M534.837 1177.1V1178.8H529.059V1181.91H534.157V1183.61H529.059V1187.3H534.837V1189H527.36V1177.1H534.837ZM543.327 1177.1H545.027V1181.01L542.138 1189H540.438L537.549 1181.01V1177.1H539.249V1180.71L541.271 1186.31H541.305L543.327 1180.71V1177.1ZM555.216 1177.1V1178.8H549.438V1181.91H554.537V1183.61H549.438V1187.3H555.216V1189H547.739V1177.1H555.216ZM565.406 1189H563.537L561.378 1184.24H559.628V1189H557.929V1177.1H562.347C564.047 1177.1 565.406 1178.46 565.406 1180.16V1181.18C565.406 1182.59 564.471 1183.77 563.18 1184.12L565.406 1189ZM559.628 1182.54H562.347C563.112 1182.54 563.707 1181.95 563.707 1181.18V1180.16C563.707 1179.4 563.112 1178.8 562.347 1178.8H559.628V1182.54ZM571.007 1189V1184.77L568.118 1181.18V1177.1H569.818V1180.57L571.823 1183.07H571.857L573.896 1180.4V1177.1H575.596V1180.98L572.707 1184.77V1189H571.007ZM591.778 1184.21L590.197 1180.84V1189H588.498V1177.1H590.197L592.237 1181.54L594.276 1177.1H595.975V1189H594.276V1180.84L592.695 1184.21H591.778ZM603.106 1187.28C603.854 1187.28 604.466 1186.67 604.466 1185.92V1180.16C604.466 1179.4 603.871 1178.8 603.106 1178.8H601.746C600.982 1178.8 600.387 1179.42 600.387 1180.16V1185.92C600.387 1186.67 600.999 1187.28 601.746 1187.28H603.106ZM598.688 1185.92V1180.16C598.688 1178.46 600.064 1177.1 601.746 1177.1H603.106C604.805 1177.1 606.165 1178.46 606.165 1180.16V1185.92C606.165 1187.61 604.805 1189 603.106 1189H601.746C600.064 1189 598.688 1187.61 598.688 1185.92ZM614.655 1177.1H616.355V1189H613.891L610.577 1179.96V1189H608.877V1177.1H611.341L614.655 1186.15V1177.1ZM619.067 1177.1H626.544V1178.8H623.655V1189H621.956V1178.8H619.067V1177.1ZM630.956 1177.1V1181.86H635.035V1177.1H636.734V1189H635.035V1183.56H630.956V1189H629.257V1177.1H630.956ZM534.837 1197.1V1198.8H529.059V1202.42H534.157V1204.12H529.059V1209H527.36V1197.1H534.837ZM541.968 1207.28C542.715 1207.28 543.327 1206.67 543.327 1205.92V1200.16C543.327 1199.4 542.732 1198.8 541.968 1198.8H540.608C539.843 1198.8 539.249 1199.42 539.249 1200.16V1205.92C539.249 1206.67 539.86 1207.28 540.608 1207.28H541.968ZM537.549 1205.92V1200.16C537.549 1198.46 538.926 1197.1 540.608 1197.1H541.968C543.667 1197.1 545.027 1198.46 545.027 1200.16V1205.92C545.027 1207.61 543.667 1209 541.968 1209H540.608C538.926 1209 537.549 1207.61 537.549 1205.92ZM555.216 1209H553.347L551.189 1204.24H549.438V1209H547.739V1197.1H552.157C553.857 1197.1 555.216 1198.46 555.216 1200.16V1201.18C555.216 1202.59 554.282 1203.77 552.99 1204.12L555.216 1209ZM549.438 1202.54H552.157C552.922 1202.54 553.517 1201.95 553.517 1201.18V1200.16C553.517 1199.4 552.922 1198.8 552.157 1198.8H549.438V1202.54ZM575.596 1200.84C575.596 1201.71 575.239 1202.49 574.661 1203.05C575.239 1203.61 575.596 1204.39 575.596 1205.26V1205.94C575.596 1207.64 574.236 1209 572.537 1209H571.177C569.495 1209 568.118 1207.64 568.118 1205.94V1205.35H569.818V1205.94C569.818 1206.69 570.43 1207.3 571.177 1207.3H572.537C573.302 1207.3 573.896 1206.71 573.896 1205.94V1205.26C573.896 1204.5 573.302 1203.9 572.537 1203.9H571.347V1202.2H572.537C573.302 1202.2 573.896 1201.61 573.896 1200.84V1200.16C573.896 1199.4 573.302 1198.8 572.537 1198.8H571.177C570.43 1198.8 569.818 1199.42 569.818 1200.16V1200.76H568.118V1200.16C568.118 1198.46 569.495 1197.1 571.177 1197.1H572.537C574.236 1197.1 575.596 1198.46 575.596 1200.16V1200.84ZM591.778 1204.21L590.197 1200.84V1209H588.498V1197.1H590.197L592.237 1201.54L594.276 1197.1H595.975V1209H594.276V1200.84L592.695 1204.21H591.778ZM603.106 1207.28C603.854 1207.28 604.466 1206.67 604.466 1205.92V1200.16C604.466 1199.4 603.871 1198.8 603.106 1198.8H601.746C600.982 1198.8 600.387 1199.42 600.387 1200.16V1205.92C600.387 1206.67 600.999 1207.28 601.746 1207.28H603.106ZM598.688 1205.92V1200.16C598.688 1198.46 600.064 1197.1 601.746 1197.1H603.106C604.805 1197.1 606.165 1198.46 606.165 1200.16V1205.92C606.165 1207.61 604.805 1209 603.106 1209H601.746C600.064 1209 598.688 1207.61 598.688 1205.92ZM614.655 1197.1H616.355V1209H613.891L610.577 1199.96V1209H608.877V1197.1H611.341L614.655 1206.15V1197.1ZM619.067 1197.1H626.544V1198.8H623.655V1209H621.956V1198.8H619.067V1197.1ZM630.956 1197.1V1201.86H635.035V1197.1H636.734V1209H635.035V1203.56H630.956V1209H629.257V1197.1H630.956ZM639.446 1205.16H641.146V1205.84C641.146 1206.64 641.809 1207.3 642.607 1207.3H643.746C644.613 1207.3 645.224 1206.76 645.224 1206.01C645.224 1203.66 639.616 1203.15 639.616 1199.93C639.616 1198.26 640.925 1197.1 642.777 1197.1H643.576C645.326 1197.1 646.754 1198.51 646.754 1200.27V1200.77H645.054V1200.27C645.054 1199.45 644.392 1198.8 643.576 1198.8H642.777C641.86 1198.8 641.316 1199.23 641.316 1199.93C641.316 1201.73 646.924 1202.42 646.924 1206.01C646.924 1207.71 645.547 1209 643.746 1209H642.607C640.857 1209 639.446 1207.59 639.446 1205.84V1205.16Z"
        fill="#E2E2E2" />
    <path
        d="M540.383 1056.25H538.344V1052.27L544.461 1045.95V1044.01H539.567V1046.26H537.528V1041.97H546.501V1046.77L540.383 1053.09V1056.25Z"
        fill="#001EBE" />
</svg>