<svg width="47" height="47" viewBox="0 0 47 47" fill="none" xmlns="http://www.w3.org/2000/svg">
<path fill-rule="evenodd" clip-rule="evenodd" d="M23.3296 0C24.5009 0 25.4505 0.949547 25.4505 2.12087V4.35987C27.3657 4.57395 29.2282 5.07594 30.9772 5.84073L32.0981 3.90148C32.6843 2.88739 33.9816 2.54049 34.9957 3.12668C36.0098 3.71286 36.3567 5.01014 35.7705 6.02424L34.6507 7.96142C35.4174 8.5262 36.1452 9.15089 36.8267 9.83245C37.5084 10.5141 38.1332 11.242 38.6981 12.0088L40.6347 10.8894C41.6488 10.3032 42.946 10.6501 43.5322 11.6642C44.1184 12.6783 43.7715 13.9756 42.7574 14.5618L40.8187 15.6824C41.5833 17.4313 42.0853 19.2936 42.2993 21.2087H44.5383C45.7096 21.2087 46.6592 22.1583 46.6592 23.3296C46.6592 24.5009 45.7096 25.4505 44.5383 25.4505H42.2993C42.0852 27.3658 41.5832 29.2283 40.8184 30.9773L42.7574 32.0981C43.7715 32.6843 44.1184 33.9816 43.5322 34.9957C42.946 36.0098 41.6488 36.3567 40.6347 35.7705L38.6977 34.6509C38.1329 35.4175 37.5083 36.1452 36.8267 36.8267C36.1452 37.5083 35.4175 38.1329 34.6509 38.6977L35.7705 40.6347C36.3567 41.6488 36.0098 42.946 34.9957 43.5322C33.9816 44.1184 32.6843 43.7715 32.0981 42.7574L30.9773 40.8184C29.2283 41.5832 27.3658 42.0852 25.4505 42.2993V44.5383C25.4505 45.7096 24.5009 46.6592 23.3296 46.6592C22.1583 46.6592 21.2087 45.7096 21.2087 44.5383V42.2993C19.2931 42.0852 17.4302 41.583 15.681 40.818L14.5624 42.7559C13.9769 43.7703 12.6798 44.118 11.6654 43.5325C10.6509 42.9469 10.3032 41.6499 10.8887 40.6354L12.0075 38.6971C11.2412 38.1325 10.5137 37.508 9.83245 36.8267C9.15089 36.1452 8.5262 35.4174 7.96142 34.6507L6.02424 35.7705C5.01014 36.3567 3.71286 36.0098 3.12668 34.9957C2.54049 33.9816 2.88739 32.6843 3.90148 32.0981L5.84073 30.9772C5.07594 29.2282 4.57395 27.3657 4.35987 25.4505H2.12087C0.949547 25.4505 0 24.5009 0 23.3296C0 22.1583 0.949547 21.2087 2.12087 21.2087H4.35987C4.57393 19.2936 5.07584 17.4314 5.84048 15.6826L3.90148 14.5618C2.88739 13.9756 2.54049 12.6783 3.12668 11.6642C3.71286 10.6501 5.01014 10.3032 6.02424 10.8894L7.96106 12.0089C8.52593 11.2421 9.15074 10.5142 9.83245 9.83245C10.5138 9.15108 11.2414 8.52654 12.0078 7.96189L10.8887 6.02309C10.3032 5.00863 10.6509 3.71156 11.6654 3.12602C12.6798 2.54047 13.9769 2.88817 14.5624 3.90263L15.6813 5.84104C17.4305 5.07608 19.2932 4.57398 21.2087 4.35987V2.12087C21.2087 0.949547 22.1583 0 23.3296 0ZM17.8184 37.1149C19.5548 37.8091 21.4233 38.1757 23.3296 38.1757C27.267 38.1757 31.0432 36.6116 33.8274 33.8274C36.1068 31.548 37.5684 28.6038 38.0235 25.4505H29.3283C29.015 26.3368 28.5061 27.1512 27.8286 27.8286C26.6354 29.0219 25.0171 29.6922 23.3296 29.6922C22.9361 29.6922 22.5463 29.6558 22.1648 29.5847L17.8184 37.1149ZM18.4921 27.4626L14.1451 34.9938C13.687 34.633 13.2483 34.2439 12.8318 33.8274C10.0476 31.0432 8.48349 27.267 8.48349 23.3296C8.48349 19.3922 10.0476 15.616 12.8318 12.8318C13.2484 12.4152 13.6872 12.026 14.1454 11.6652L18.4923 19.1963C17.5114 20.3442 16.967 21.8088 16.967 23.3296C16.967 24.8502 17.5113 26.3147 18.4921 27.4626ZM22.3549 25.2132C22.3269 25.1953 22.2984 25.1779 22.2693 25.1611C22.241 25.1448 22.2125 25.1292 22.1837 25.1143C22.0569 25.0328 21.9382 24.9375 21.8299 24.8293C21.4322 24.4315 21.2087 23.8921 21.2087 23.3296C21.2087 22.7671 21.4322 22.2277 21.8299 21.8299C21.9398 21.72 22.0605 21.6234 22.1896 21.5412C22.2163 21.5272 22.2429 21.5126 22.2693 21.4974C22.2964 21.4817 22.323 21.4656 22.3491 21.449C22.6491 21.2926 22.985 21.2087 23.3296 21.2087C23.8921 21.2087 24.4315 21.4322 24.8293 21.8299C25.227 22.2277 25.4505 22.7671 25.4505 23.3296C25.4505 23.8921 25.227 24.4315 24.8293 24.8293C24.4315 25.227 23.8921 25.4505 23.3296 25.4505C22.9873 25.4505 22.6535 25.3677 22.3549 25.2132ZM33.8274 12.8318C36.1068 15.1112 37.5684 18.0554 38.0235 21.2087H29.3283C29.015 20.3224 28.5061 19.508 27.8286 18.8305C26.6354 17.6373 25.0171 16.967 23.3296 16.967C22.9362 16.967 22.5466 17.0034 22.1652 17.0744L17.8187 9.54419C19.5551 8.85007 21.4234 8.48349 23.3296 8.48349C27.267 8.48349 31.0432 10.0476 33.8274 12.8318Z" fill="#001EBE"/>
</svg>
