<svg width="43" height="43" viewBox="0 0 43 43" fill="none" xmlns="http://www.w3.org/2000/svg">
<path fill-rule="evenodd" clip-rule="evenodd" d="M4.24174 19.0879C4.24174 10.8886 10.8886 4.24174 19.0879 4.24174C27.2871 4.24174 33.934 10.8886 33.934 19.0879C33.934 27.2871 27.2871 33.934 19.0879 33.934C10.8886 33.934 4.24174 27.2871 4.24174 19.0879ZM19.0879 0C8.54592 0 0 8.54592 0 19.0879C0 29.6298 8.54592 38.1757 19.0879 38.1757C23.5942 38.1757 27.7358 36.6141 31.0011 34.0025L38.7952 41.7967C39.6235 42.6249 40.9663 42.6249 41.7946 41.7967C42.6229 40.9684 42.6229 39.6256 41.7946 38.7973L34.0007 31.0034C36.6134 27.7378 38.1757 23.5953 38.1757 19.0879C38.1757 8.54592 29.6298 0 19.0879 0Z" fill="#001EBE"/>
</svg>
