<svg width="55" height="21" viewBox="0 0 55 21" fill="none" xmlns="http://www.w3.org/2000/svg">
<path fill-rule="evenodd" clip-rule="evenodd" d="M13.748 3.43555H20.6228V6.8729H13.748V3.43555ZM37.8099 3.43555H44.6846V6.8729H37.8099V3.43555ZM20.6228 6.87335H13.748V10.3098V10.3107V13.7471H20.6228V10.3107V10.3098V6.87335ZM37.8099 6.87335H44.6846V10.3098V10.3107V13.7471H37.8099V10.3107V10.3098V6.87335ZM20.6228 13.7476H13.748V17.1849H20.6228V13.7476ZM37.8099 13.7476H44.6846V17.1849H37.8099V13.7476Z" fill="#001EBE"/>
<path d="M27.4978 3.43652H20.6231L20.623 13.748H27.4978L27.4978 3.43652Z" fill="#E2E2E2"/>
<path d="M27.4978 13.748H20.623V17.186H27.4978V13.748Z" fill="#E2E2E2"/>
<path d="M44.6854 3.43682H51.5601V17.1862H44.6854V3.43682Z" fill="#E2E2E2"/>
<path d="M10.3119 0H30.9361L30.9362 6.87417H34.3739V3.43796H37.8113L37.8109 10.3115H27.4989V3.43736H13.7493L13.7494 10.3115H3.43736V13.7486H0V6.87417H10.3119V0Z" fill="#E2E2E2"/>
<path d="M10.3119 10.3121L13.7494 10.3115L13.7493 13.7495H10.3119V10.3121Z" fill="#E2E2E2"/>
<path d="M30.9362 10.3121L27.4989 10.3115V17.1863H13.7495L13.7493 13.7495H10.3119L10.3121 20.6237H30.9363L30.9362 10.3121Z" fill="#E2E2E2"/>
<path d="M34.3737 10.3121L37.8109 10.3115L37.811 13.7495H34.3737V10.3121Z" fill="#E2E2E2"/>
<path d="M3.43736 13.7501H0V17.1874H3.43736V13.7501Z" fill="#E2E2E2"/>
<path d="M34.3737 13.7495H37.811V17.1862H51.5601V13.7502H54.9975L54.998 20.6236H34.3739L34.3737 13.7495Z" fill="#E2E2E2"/>
<path d="M54.998 0H34.3739L34.3739 3.43796L54.998 3.43736V0Z" fill="#E2E2E2"/>
<path d="M54.9975 3.4378H51.5601V10.3116H54.9975V3.4378Z" fill="#E2E2E2"/>
<path d="M54.9975 10.3116H51.5601V13.7494H54.9975V10.3116Z" fill="#E2E2E2"/>
</svg>
