<svg width="50" height="49" viewBox="0 0 50 49" fill="none" xmlns="http://www.w3.org/2000/svg">
<path fill-rule="evenodd" clip-rule="evenodd" d="M25.5441 2.42439C25.5441 1.34126 25.6625 -0.135848 27.0235 0.0100244C28.3846 0.155897 29.6814 1.29531 29.4919 3.50982C29.3024 5.72433 28.8556 10.0385 28.511 11.0722C27.9734 12.686 26.7077 14.5215 22.4992 12.8445C20.0545 11.8706 19.0503 8.3786 18.4705 6.36258C18.4137 6.16504 18.361 5.98166 18.3114 5.81622C17.8818 4.38391 17.8405 2.85742 18.5181 1.52389C18.973 0.629123 19.6449 -0.123214 20.6005 0.0295507C22.784 0.377578 23.2584 2.24521 22.784 5.0926C22.3097 7.94114 23.3216 9.18049 25.2202 8.25701C26.6561 7.55808 26.4523 6.87126 26.0801 5.61702C25.8456 4.82654 25.5441 3.81069 25.5441 2.42439ZM9.99768 12.5124C10.541 14.1598 10.789 14.9117 10.854 15.408V15.4069C10.8638 15.4822 10.8825 15.5926 10.9058 15.7309L10.9059 15.731L10.9059 15.7311C11.1084 16.9306 11.6641 20.2227 9.90523 20.8179C8.49517 21.2951 7.01984 19.648 6.21919 18.7541C5.9059 18.4044 5.69591 18.1699 5.63357 18.2232C5.63357 18.2232 5.09487 18.2554 5.88626 19.4258C6.6765 20.5974 6.89818 21.9895 5.79093 22.4007C5.65581 22.4509 5.52209 22.51 5.38892 22.5689C4.43078 22.9927 3.50072 23.4041 2.27849 20.3757C1.76162 19.095 1.43312 18.2244 1.22292 17.6363C0.870302 16.6439 0.858816 15.5585 1.21833 14.5684C1.6548 13.3669 2.60929 12.3585 4.68367 14.2686C4.68734 14.272 4.68049 14.2625 4.66517 14.2413L4.66511 14.2412L4.66507 14.2411L4.66506 14.2411L4.66503 14.2411C4.48303 13.9889 3.11333 12.0911 3.92444 10.4403C4.82954 8.59679 5.97585 7.67905 5.97585 7.67905C5.97585 7.67905 7.82511 5.79879 9.03114 9.55128C9.42544 10.7773 9.7438 11.7426 9.99768 12.5124ZM39.6253 6.08869C39.3405 4.03154 36.8687 2.03181 35.4088 2.59233C34.4026 2.97826 35.2193 6.89616 35.2193 6.89616C35.2193 6.89616 33.9225 1.48508 32.0549 1.10604C30.1884 0.72585 29.9518 3.20339 29.9518 3.20339C29.9518 3.20339 28.0279 13.944 31.1372 14.4907C35.3433 15.2304 34.0994 9.91928 33.8858 9.11756C34.0351 9.6218 34.8253 11.8662 37.18 12.3704C39.8378 12.9401 39.9102 8.14584 39.6253 6.08984V6.08869ZM38.3467 13.9049C37.5553 13.2373 36.8509 12.6432 36.0165 13.2892V13.2904C35.8461 13.4218 35.7761 13.4506 35.7414 13.4649C35.7294 13.4698 35.7216 13.473 35.7154 13.4781C35.7036 13.4876 35.6971 13.5037 35.6785 13.5498C35.661 13.5934 35.6326 13.6638 35.5788 13.7808C34.6933 15.7116 37.7623 18.5269 40.2307 19.4756C42.699 20.4244 44.0578 19.2355 44.0578 19.2355C45.0387 18.5073 45.0043 18.0881 44.144 16.6742C43.1068 14.9696 42.6967 14.1461 42.7967 13.589C42.8553 13.2651 43.0517 12.9802 43.3411 12.8252C43.8235 12.5679 44.639 12.6242 45.1881 15.282C45.3644 16.1376 45.6312 16.4876 45.8746 16.8069C45.9404 16.8931 46.0044 16.977 46.0645 17.0681C46.3045 17.4322 46.9696 17.2795 47.2981 16.8912C48.6017 15.3487 47.2016 11.7007 45.2179 9.54936C45.1117 9.43415 44.9761 9.2755 44.8181 9.09056C43.9455 8.06966 42.3885 6.24777 41.3081 6.5113C40.1377 6.79615 39.9458 8.99114 39.9389 9.73314C39.9298 10.6807 39.9252 11.5537 40.156 12.4657C40.2518 12.8443 40.3799 13.1098 40.4939 13.3461C40.693 13.7587 40.849 14.0823 40.7154 14.7629C40.6178 15.2579 39.491 14.8444 38.6537 14.161C38.5497 14.0761 38.4475 13.9899 38.3468 13.905L38.3467 13.9049ZM17.6599 4.91209C17.6599 4.91209 16.6491 2.82852 13.6696 2.4334C11.9972 2.21172 10.8704 3.27762 10.1641 4.31711C9.15558 5.80111 8.86154 7.64921 9.25781 9.39854C9.74711 11.5579 10.859 13.5714 10.859 13.5714C10.859 13.5714 13.6478 19.999 17.4359 14.6155C20.3763 10.4369 17.6599 4.91209 17.6599 4.91209ZM14.0372 10.1738C13.1929 10.1291 12.9356 8.99767 13.3147 8.19135C13.4651 7.87089 13.7845 7.65725 14.1394 7.66644C14.3714 7.67218 14.6195 7.77326 14.7677 8.11555C15.1065 8.89775 15.0284 10.2267 14.0383 10.1738H14.0372ZM19.0841 27.7397C19.2081 28.1142 19.4781 28.3083 20.0443 27.8373L20.0455 27.8385C21.8293 26.3556 23.2719 27.4928 23.226 28.5575C23.1941 29.2958 22.0384 29.885 20.6786 30.5782C20.0774 30.8848 19.4363 31.2116 18.8348 31.5807C17.0258 32.6902 15.9909 33.222 13.9946 30.7422C13.2472 29.8148 12.5067 27.9628 11.8408 26.2975L11.8408 26.2974C11.4485 25.3164 11.0821 24.4001 10.7556 23.7759C10.6728 23.6177 10.513 23.4593 10.3602 23.3077C10.0845 23.0343 9.83123 22.7832 10.0928 22.5963C10.6729 22.1828 11.9019 20.9492 11.6365 19.6375C11.4091 18.5187 17.4393 15.5852 17.8872 17.3345C18.4236 19.4273 18.5661 20.8021 16.5319 21.5372C14.2381 22.3665 15.7325 24.6615 17.0832 24.0355C17.4677 23.8573 17.8293 23.5932 18.1733 23.3418C19.0378 22.7103 19.7917 22.1595 20.5221 23.2556C20.7606 23.6133 21.1044 23.888 21.4039 24.1274C22.2182 24.7783 22.7052 25.1676 19.8594 26.25C19.2472 26.4831 18.8785 27.1172 19.0841 27.7397ZM28.1158 25.6846C27.1384 24.7462 26.5273 22.8613 26.5273 22.8613C26.5273 22.8613 27.5013 22.6936 27.8804 21.9804C29.1458 19.6011 28.3259 17.6932 27.6745 16.1774C27.5011 15.7738 27.3396 15.398 27.2326 15.0485C26.7616 13.5083 23.5995 13.7403 24.0555 15.0416C25.0801 17.9671 23.147 18.26 22.9655 17.5778C22.7565 16.7946 22.6701 16.1064 22.596 15.5151C22.4305 14.1961 22.3256 13.3603 21.0542 13.0327C20.2364 12.8225 19.5048 12.9443 19.0109 13.6679C18.2838 14.7327 17.9748 16.026 18.0954 17.3101C18.4951 21.568 21.1277 23.7814 22.761 24.3901C23.5375 24.6796 24.0555 23.987 24.0555 23.987C26.1368 27.612 25.8795 28.0657 24.9974 29.1247C23.9499 30.2802 22.5934 31.1118 21.0875 31.5195C19.4646 31.9594 18.3619 32.3121 19.0534 33.7467C19.7965 35.287 21.7009 35.0997 26.2321 32.2753C30.7634 29.4509 29.5861 27.0974 28.1147 25.6846H28.1158ZM40.7936 19.9708C40.7936 19.9708 41.747 19.8858 42.5177 21.5513L42.5188 21.5524C43.1263 22.8641 42.2054 26.2806 41.7228 28.0714C41.593 28.5528 41.4949 28.9167 41.4667 29.0907L41.4509 29.1891C41.33 29.9444 41.271 30.3135 40.3411 30.0854C39.3311 29.8379 39.408 29.3184 39.538 28.4413L39.538 28.4412C39.5866 28.1134 39.6425 27.7357 39.6519 27.3035C39.6749 26.2249 39.3958 26.3065 39.2143 26.4696C39.1304 26.5454 39.0673 26.6407 39.0225 26.7453C38.8295 27.2001 37.9692 29.0195 36.4955 29.2033C34.2018 29.4893 34.6968 26.5569 34.9403 25.9734C35.0977 25.5967 35.6559 23.5349 36.0304 22.1267C36.2072 21.464 36.3439 20.7909 36.4232 20.1086C36.5116 19.3517 36.7953 18.2709 37.7085 18.6085C39.3866 19.2288 39.2798 21.1539 39.0799 22.2129C39.7541 19.8088 40.7936 19.9708 40.7936 19.9708ZM35.6451 18.9172C35.1569 15.3692 33.3869 14.7145 31.192 15.244C29.2681 15.708 28.8603 18.9747 28.7431 20.2128C28.4686 23.1004 28.2906 25.6848 31.115 26.3912C33.9394 27.0976 36.3446 23.9998 35.6463 18.9184L35.6451 18.9172ZM31.8915 22.1643C31.4642 21.984 31.4435 21.5751 31.5078 21.2512C31.5722 20.9273 31.7766 20.6172 32.0821 20.4667C32.3164 20.3507 32.5933 20.3369 32.769 20.7412C33.1193 21.551 32.6518 22.4859 31.8926 22.1643H31.8915ZM11.4057 27.1083C11.2357 28.1869 9.64607 29.7765 9.64607 29.7765C11.2357 30.0602 13.0517 31.8773 9.92977 34.943C7.61763 37.2126 5.05739 36.837 3.88352 36.489C3.44015 36.3569 3.04618 36.0939 2.76133 35.7298C1.1372 33.6531 0.363042 29.5595 0.0345405 27.1623C-0.242273 25.1431 1.17511 23.2789 3.19665 23.017C3.79852 22.94 4.36593 22.9653 4.82078 23.0216C6.18302 23.1927 6.58044 25.9172 6.58044 25.9172C6.41045 24.4413 7.37528 23.4753 8.96494 23.3053C10.5546 23.1342 11.5757 26.0298 11.4057 27.1083ZM7.83127 27.8446C7.49358 26.9418 6.92962 28.126 6.92962 28.126H6.92847C6.92847 28.126 6.64706 29.3102 7.37987 29.4791C8.11268 29.649 8.17011 28.7462 7.83127 27.8446ZM7.15474 32.5987C7.15474 32.5987 6.70334 33.5382 7.15474 33.9896C7.605 34.4399 8.28152 33.1994 8.02998 32.5987C7.77844 31.9979 7.15474 32.5987 7.15474 32.5987ZM35.2657 36.4254C34.7922 36.103 34.0895 36.5836 33.5935 36.9228C33.5011 36.986 33.4158 37.0443 33.3406 37.0916L33.3332 37.0972C33.1375 37.244 32.9193 37.4077 32.6675 37.3305C32.4125 37.2524 32.285 36.9917 32.3298 36.7367C32.4316 36.2403 32.8422 36.0638 33.2603 35.884C33.5456 35.7613 33.8343 35.6372 34.0309 35.4089C34.828 34.6497 34.3858 33.5286 33.2395 33.7664C32.7951 33.8456 32.4618 34.0986 32.1127 34.3635L32.1126 34.3636L32.1126 34.3636C31.9961 34.452 31.8779 34.5417 31.7532 34.6267C31.6177 34.7186 31.4328 34.6083 31.4546 34.4464C31.5017 34.1052 31.7682 33.7802 32.0415 33.5401C32.0778 33.5082 32.1147 33.4763 32.1518 33.4441L32.1519 33.4441L32.1519 33.4441C32.5362 33.1114 32.9464 32.7563 32.9087 32.2169C32.5848 30.5871 30.3519 31.1441 29.3687 31.8299C27.3153 33.2919 27.5625 33.6114 28.1796 34.4092C28.3091 34.5766 28.4549 34.7651 28.5992 34.9897C29.1936 35.8363 29.6065 36.6382 30.0381 37.4763L30.0381 37.4763L30.0382 37.4765C30.2395 37.8674 30.4449 38.2663 30.6747 38.6813C30.8036 38.9066 30.8935 39.103 30.9679 39.2653C31.1149 39.5862 31.2008 39.7737 31.4052 39.7874C32.2458 39.7953 33.0791 39.2571 33.8421 38.7644C34.0831 38.6088 34.3171 38.4577 34.542 38.3298C35.1853 37.9921 36.01 37.0618 35.2645 36.4266L35.2657 36.4254ZM37.2116 42.2603C37.4689 42.1339 37.7572 42.0145 38.034 42.088L38.0329 42.0857C38.5038 42.2109 38.6681 42.8506 38.4602 43.2906C38.2523 43.7305 37.8043 44.0004 37.3678 44.214C36.5408 44.6195 35.5416 44.9124 34.7203 44.4943C34.2276 44.2427 33.8876 43.7764 33.566 43.3262C33.1295 42.7151 32.6884 42.0949 32.4185 41.3931C32.3312 41.1656 32.2623 40.9187 32.3151 40.6809C32.3576 40.4868 32.4794 40.3191 32.6046 40.1652C33.3592 39.2348 34.0093 38.7386 35.112 38.3895C35.2889 38.3343 35.4749 38.3114 35.6587 38.3343C35.8448 38.3573 36.0217 38.4228 36.163 38.5445C36.3984 38.7478 36.4811 39.1395 36.2801 39.3761C36.174 39.5018 36.0175 39.5624 35.8625 39.6225C35.8178 39.6398 35.7732 39.6571 35.7299 39.6759C35.3532 39.8401 35.0408 40.1514 34.8765 40.5282C34.8329 40.6269 34.7984 40.7395 34.8937 40.8463C34.9604 40.921 35.0614 40.9543 35.1614 40.9451C35.3237 40.9293 35.4524 40.8326 35.58 40.7367C35.6103 40.7139 35.6406 40.6911 35.6713 40.6694C35.9413 40.4799 36.2996 40.3731 36.6052 40.4994C36.9107 40.6258 37.0876 41.0485 36.8854 41.3092C36.7759 41.4505 36.5938 41.5146 36.4157 41.5774C36.2015 41.6528 35.993 41.7262 35.924 41.9295C35.8322 42.2017 36.1136 42.4808 36.3996 42.5049C36.6713 42.5289 36.9276 42.4015 37.1732 42.2794L37.2116 42.2603ZM45.4582 36.5232C45.1492 34.6188 44.6955 32.5112 43.5078 31.1305C43.1253 30.686 42.7727 30.4356 42.2892 30.6079C41.8848 30.7515 41.5897 30.9617 41.5701 31.5796C41.5514 32.2948 41.7594 32.9544 41.9668 33.6122C41.9886 33.6813 42.0104 33.7503 42.0319 33.8194C42.0445 33.8585 41.9986 33.8895 41.9664 33.8642C40.8591 32.9591 37.5856 30.8055 36.9424 30.4965C35.7674 29.9337 34.9151 30.0876 34.1065 30.2507C33.6275 30.3472 33.2795 30.701 33.1233 31.1638C32.951 31.6773 33.577 32.7202 33.8366 33.1234C34.3959 33.9909 34.9556 34.8582 35.5152 35.7256L35.5239 35.739C36.0876 36.6125 36.6512 37.486 37.2146 38.3599C37.5799 38.9261 37.9474 39.4947 38.3919 40.0012C38.8112 40.479 40.0299 41.7103 40.6363 41.901C40.8362 41.9642 41.0429 41.9424 41.2405 41.8757C41.7252 41.7115 42.2869 41.3853 41.9251 40.0977C41.6425 39.0915 41.1474 38.0681 40.5284 37.0619C40.3848 36.8288 40.6673 36.5634 40.889 36.7254C41.5345 37.2044 43.8191 37.7637 44.8724 37.7006C45.0435 37.6902 45.6339 37.6167 45.457 36.5244L45.4582 36.5232ZM31.1505 28.1362C31.073 28.2318 30.9917 28.3318 30.897 28.4395C30.6983 28.7036 30.4962 28.9759 30.4077 29.294C30.3193 29.6122 30.3721 29.9924 30.6214 30.2083C30.9441 30.4874 31.4369 30.3955 31.8423 30.26C32.2915 30.1107 32.7279 29.9269 33.1495 29.7133C33.3941 29.5892 33.6411 29.4468 33.7984 29.2217C33.9443 29.0126 33.9971 28.7496 34.0006 28.4946C34.0098 27.8835 33.6767 27.2105 33.0828 27.0703C32.6716 26.9727 32.2421 27.1507 31.8986 27.3965C31.5457 27.6494 31.3619 27.8759 31.1505 28.1362ZM25.0672 4.41408L24.4194 1.16353C24.3895 1.01536 24.3482 0.848808 24.2172 0.774148C24.1977 0.762662 24.1759 0.756919 24.1529 0.753473C24.0139 0.735096 23.8945 0.851105 23.8968 0.990086C23.9175 2.26733 23.8681 3.54573 23.7475 4.81839L23.7456 4.83792C23.7186 5.12584 23.6908 5.42194 23.7739 5.69937C23.8589 5.98307 24.0921 6.24381 24.3861 6.26448C24.7732 6.29205 25.0753 5.90267 25.1453 5.52133C25.2131 5.15493 25.1396 4.77933 25.0672 4.41408ZM24.561 6.56313C24.3371 6.65042 24.1544 6.82386 24.0177 7.02142L24.0545 6.99845C23.958 7.12824 23.8776 7.2879 23.9063 7.44755C23.9396 7.63363 24.1108 7.76572 24.2877 7.83348C24.5185 7.92193 24.7839 7.93112 25.0124 7.83578C25.241 7.74045 25.4282 7.53714 25.4822 7.29594C25.5362 7.05473 25.4478 6.78136 25.249 6.63319C25.0561 6.48962 24.785 6.47698 24.561 6.56313ZM10.2826 21.6773C10.1655 21.5418 9.98742 21.5027 9.81743 21.4878C9.60034 21.4694 9.37981 21.4855 9.16732 21.5337C9.1269 21.5431 9.08656 21.5536 9.0462 21.5641C8.91794 21.5976 8.78954 21.6311 8.65848 21.6268C8.23328 21.6131 7.94339 21.231 7.68004 20.8838L7.68 20.8838L7.67995 20.8837C7.65522 20.8511 7.63072 20.8188 7.60636 20.7871C7.50643 20.6574 7.38927 20.5264 7.23077 20.4874C7.2078 20.4816 7.18482 20.4793 7.1607 20.4793C6.97463 20.4805 6.8724 20.693 6.96314 20.8561C7.11935 21.134 7.15496 21.4315 7.12739 21.7669C7.11406 21.9232 7.0908 22.0786 7.06754 22.2339C7.03268 22.4667 6.99783 22.6994 6.99645 22.935C6.99645 23.0051 6.99875 23.0775 7.02632 23.1429C7.10672 23.3336 7.36975 23.3818 7.56271 23.3072C7.72031 23.2453 7.84496 23.1274 7.9692 23.01L7.96923 23.01C7.99711 22.9836 8.02497 22.9573 8.05317 22.9316C8.5218 22.5055 9.1409 22.2493 9.77378 22.2183C9.99776 22.2068 10.2826 22.1861 10.3527 21.9691C10.3848 21.868 10.3538 21.7566 10.2849 21.6762L10.2826 21.6773ZM31.4487 40.579C31.6566 40.7398 31.8622 40.9385 31.9104 41.197V41.1981C31.9575 41.4566 31.7623 41.769 31.5004 41.7414C31.4303 41.7334 31.3648 41.7047 31.3017 41.6725C30.8744 41.4577 30.5045 41.1303 30.2404 40.7318C30.1703 40.6261 30.1048 40.509 30.1025 40.3826C30.1002 40.2563 30.1025 40.1334 30.2335 40.0656C30.4287 39.9955 30.6435 40.0794 30.8273 40.1759C31.0467 40.2907 31.2534 40.4274 31.4487 40.579ZM30.1387 41.74L30.1387 41.7399C29.6855 41.3732 29.2284 41.0032 28.781 40.6518C28.9223 40.5335 29.0544 40.4014 29.1727 40.2544C30.5292 38.574 28.9085 35.8587 28.2963 35.0949C27.5175 34.122 25.2341 33.3145 22.103 35.1592C21.253 35.66 21.5126 36.5295 22.0456 37.631C22.5142 38.6004 22.9185 39.5997 23.2413 40.6265C23.5601 41.6412 23.8112 42.4203 24.0075 43.0296L24.0078 43.0306L24.0083 43.0321L24.0084 43.0323C24.3511 44.096 24.527 44.6418 24.6058 45.02C24.7337 45.6318 24.7691 46.1767 24.7992 46.6406V46.6407C24.8832 47.935 24.9264 48.5994 26.8238 48.3314C27.9862 48.1679 27.6686 47.1025 27.2285 45.6259L27.2285 45.6259L27.2284 45.6256L27.2284 45.6255L27.2284 45.6255C27.1306 45.2974 27.0267 44.9491 26.9317 44.5858C28.696 46.0399 30.1421 46.9186 30.9507 47.1977C32.1843 47.6239 35.8311 45.6241 33.3662 44.1608C32.4791 43.6342 31.3224 42.698 30.1387 41.74ZM25.8233 38.3282C25.4742 38.4856 25.295 37.8458 25.2169 37.4403C25.1813 37.2542 25.2915 37.0705 25.473 37.0142C25.8452 36.8982 26.4332 36.8005 26.4907 37.3174C26.5674 38.005 26.3632 38.0933 25.9593 38.268C25.9159 38.2868 25.8701 38.3066 25.8222 38.3282H25.8233ZM14.8541 41.292C15.4065 41.4432 15.8923 41.5762 16.4238 42.006H16.425C16.5938 42.1427 17.747 43.103 17.6563 44.3997C17.6138 44.9947 17.3082 45.6977 16.7477 46.071C14.8491 47.3379 10.5349 44.3653 10.9071 43.4257C10.9771 43.2477 11.1207 43.0915 11.3458 42.9697C11.7953 42.727 12.1653 42.6833 12.4644 42.648L12.4645 42.648C12.5674 42.6359 12.6618 42.6247 12.7483 42.6068C13.2548 42.5022 13.38 41.9199 12.8723 41.8246C12.5944 41.7729 12.2268 41.7867 11.7444 41.9015C11.4807 41.9644 11.2394 42.0248 11.0162 42.0807C9.1877 42.5387 8.58124 42.6906 6.97308 41.3445C5.16862 39.834 4.83093 37.7034 8.0252 36.5318C11.2195 35.3602 14.0864 35.0443 14.8617 36.2986C15.4115 37.1878 15.194 37.2357 14.5629 37.3747C14.1921 37.4564 13.6785 37.5695 13.094 37.9032C13.094 37.9032 11.8466 38.659 11.973 39.4895C12.0223 39.8157 12.2773 40.0638 12.692 40.3429C13.5844 40.9444 14.258 41.1288 14.8541 41.292ZM46.8063 30.3131C49.6331 29.9202 49.4714 24.0378 49.4456 23.0995L49.4442 23.0477L49.4435 23.0149C49.4366 22.6657 49.3585 22.0351 48.9369 21.4068C48.3041 20.4638 47.3013 20.2031 47.0165 20.1296C46.3278 19.9505 45.7734 20.0307 45.2889 20.1007L45.2878 20.1009C44.7939 20.1721 44.3517 20.2996 43.9635 20.4512C43.434 20.6579 43.1112 21.192 43.164 21.7583C43.2261 22.4337 43.2479 23.1906 43.1939 24.0141C43.0768 25.7704 42.6506 27.2486 42.2027 28.3766C41.9672 28.9681 42.244 29.6423 42.8321 29.8858L46.8063 30.3131ZM46.4743 25.2925C46.4226 25.6038 46.0482 25.8152 45.7542 25.698L45.8437 24.6987L45.9253 24.6746C46.24 24.6597 46.526 24.9813 46.4743 25.2925ZM16.4503 37.0413C15.3959 38.036 15.5395 39.2329 16.1253 40.3562C16.224 40.5446 16.3274 40.741 16.4354 40.9454C17.1946 42.3766 17.7735 43.3759 17.963 43.7021C18.1809 44.0763 18.3567 44.3849 18.5062 44.6471C19.0273 45.5614 19.2274 45.9125 19.7675 46.5231C20.7806 47.6682 22.987 48.3344 23.829 47.5396C24.6918 46.7251 24.0983 44.9181 23.6192 43.4595C23.4835 43.0462 23.357 42.6609 23.2753 42.3341C22.9055 40.8536 20.4693 41.8448 20.6347 42.5925C20.6979 42.8785 20.7725 43.0543 20.8552 43.1864C20.973 43.3752 21.0969 43.4959 21.1952 43.5917C21.3145 43.7079 21.3962 43.7874 21.3836 43.9077C21.3663 44.0697 21.1872 44.2086 21.0229 44.2316C20.8541 44.2546 20.6714 44.1765 20.5405 44.0019C20.0121 43.2955 19.5068 42.1871 19.5068 42.1871C19.1848 41.4989 18.8909 40.9628 18.6536 40.5296C18.15 39.6106 17.9004 39.1551 18.1744 38.6953L18.175 38.6943C18.21 38.6359 18.3075 38.4735 18.473 38.4426C18.7935 38.3841 19.2701 38.6402 19.6526 39.4465C19.8973 39.9622 20.4142 40.1127 20.8724 40.0932C21.2009 40.0794 21.7236 40.0415 21.9429 39.5545C22.1612 39.0709 21.982 38.3841 21.1872 37.1941C20.4888 36.1477 19.8778 35.7044 18.063 36.1833C17.8608 36.2362 17.5737 36.3556 17.3462 36.4567C17.0177 36.6026 16.7111 36.7955 16.4503 37.0413ZM16.043 33.4773L15.8811 33.7254L15.7191 33.9735L15.4905 33.8242L15.6525 33.5761L15.8145 33.328L14.4465 32.4332L14.2845 32.6813L14.1226 32.9294L13.438 32.4814L13.276 32.7295L13.1141 32.9776L12.9521 33.2257L13.1807 33.3751L13.3427 33.127L13.5046 32.8789L13.9606 33.1775L13.7987 33.4256L13.6367 33.6737L13.4747 33.9218L14.8427 34.8166L15.0047 34.5685L15.1666 34.3204L15.3286 34.0723L15.5572 34.2216L15.3952 34.4697L15.2333 34.7178L15.0713 34.9659L16.4393 35.8606L16.6012 35.6125L16.7632 35.3644L16.9252 35.1163L17.0871 34.8682L17.2491 34.6201L17.411 34.372L16.043 33.4773ZM13.8641 33.8207L14.0261 33.5726L14.188 33.3245L14.35 33.0764L14.5119 32.8283L14.9679 33.127L14.806 33.3751L14.644 33.6232L14.4821 33.8713L14.3201 34.1193L13.8641 33.8207ZM15.4607 34.8648L15.6226 34.6167L15.7846 34.3686L15.9465 34.1205L16.1085 33.8724L16.5645 34.171L16.4025 34.4191L16.2406 34.6672L16.0786 34.9153L15.9167 35.1634L15.4607 34.8648ZM45.5539 33.0892C45.2648 33.0996 45.0071 33.1089 44.9491 33.3981C44.9336 33.4781 44.9221 33.4852 44.9206 33.494C44.9192 33.5022 44.9263 33.5118 44.9468 33.5819C45.1122 34.1459 46.2769 34.1528 46.9718 33.8874C47.6678 33.621 47.7367 33.1213 47.7367 33.1213C47.8114 32.7871 47.7276 32.7067 47.2865 32.5757C46.7547 32.4184 46.5169 32.3253 46.4365 32.1909C46.3894 32.1128 46.3779 32.0175 46.4112 31.9314C46.4652 31.7878 46.6479 31.6465 47.2509 32.0933C47.445 32.2369 47.5653 32.2591 47.6748 32.2793C47.7046 32.2848 47.7337 32.2901 47.7632 32.2978C47.8815 32.3276 47.994 32.1714 47.9917 32.0301C47.9848 31.4673 47.0212 30.9757 46.2079 30.9022C46.1639 30.8983 46.1054 30.8908 46.0373 30.8822C45.6652 30.8347 45.0046 30.7504 44.825 31.0067C44.6298 31.2847 44.9916 31.774 45.126 31.9291C45.2982 32.1266 45.4568 32.307 45.6727 32.4528C45.7622 32.513 45.8378 32.5439 45.9051 32.5713C46.0227 32.6193 46.115 32.6569 46.2114 32.8227C46.2815 32.9433 45.9679 33.0696 45.6658 33.0846C45.6282 33.0865 45.5908 33.0879 45.5539 33.0892Z" fill="#E2E2E2"/>
</svg>
