<svg width="157" height="153" viewBox="0 0 157 153" fill="none" xmlns="http://www.w3.org/2000/svg">
    <rect width="157" height="153" fill="#1E1E1E" />
    <g clip-path="url(#clip0_0_1)">
        <rect width="1920" height="1405" transform="translate(-484 -236)" fill="#E2E2E2" />
        <path fill-rule="evenodd" clip-rule="evenodd"
            d="M80.7682 7.66545C80.7682 4.24079 81.1423 -0.429526 85.4458 0.0316953C89.7493 0.492916 93.8495 4.09552 93.2503 11.0974C92.651 18.0992 91.2383 31.7397 90.1488 35.0082C88.4492 40.1107 84.4471 45.9141 71.1407 40.6119C63.4109 37.5325 60.2359 26.4915 58.4029 20.1172L58.4028 20.1171L58.4027 20.1168L58.4025 20.1159C58.223 19.4918 58.0564 18.9125 57.8997 18.3897C56.5414 13.8611 56.4107 9.03459 58.5534 4.81823C59.9915 1.98916 62.116 -0.389578 65.1376 0.0934335C72.0414 1.19383 73.5412 7.09891 72.0413 16.1018C70.5415 25.1083 73.741 29.0269 79.7441 26.107C84.2841 23.8972 83.6397 21.7256 82.463 17.7599C81.7213 15.2606 80.7682 12.0487 80.7682 7.66545ZM31.6093 39.5617L31.6094 39.5618C33.3273 44.7706 34.1114 47.1479 34.3168 48.7172V48.7136C34.348 48.9517 34.407 49.3011 34.4808 49.7386L34.4809 49.7387C35.1211 53.5312 36.8784 63.9403 31.3171 65.8223C26.8587 67.3311 22.194 62.1232 19.6625 59.297C18.672 58.1911 18.008 57.4499 17.8109 57.6184C17.8109 57.6184 16.1077 57.7201 18.6099 61.4208C21.1085 65.125 21.8094 69.5266 18.3084 70.8268C17.8824 70.9849 17.4607 71.1714 17.0408 71.3571L17.0406 71.3572L17.0405 71.3573L17.0403 71.3573L17.0402 71.3574L17.04 71.3575L17.0399 71.3575L17.0397 71.3576L17.0395 71.3577L17.0394 71.3577L17.0392 71.3578L17.0391 71.3579L17.0389 71.3579L17.0388 71.358L17.0386 71.3581L17.0385 71.3582L17.0383 71.3582L17.0382 71.3583L17.038 71.3584L17.0378 71.3584L17.0377 71.3585L17.0375 71.3586L17.0374 71.3586C14.0079 72.6985 11.0673 73.9992 7.20282 64.4241C5.56858 60.3748 4.52992 57.622 3.86533 55.7626C2.75041 52.6249 2.71409 49.1929 3.8508 46.0625C5.23083 42.2637 8.24874 39.0751 14.8075 45.1146C14.8192 45.1254 14.7974 45.0952 14.7486 45.0276C14.1731 44.2303 9.84241 38.2298 12.407 33.0103C15.2687 27.1814 18.8931 24.2797 18.8931 24.2797C18.8931 24.2797 24.7401 18.3347 28.5534 30.1993C29.8001 34.0759 30.8066 37.1279 31.6093 39.5617ZM125.288 19.2514C124.387 12.747 116.572 6.42432 111.956 8.19657C108.774 9.41681 111.356 21.8044 111.356 21.8044C111.356 21.8044 107.256 4.69565 101.351 3.4972C95.4498 2.29512 94.7017 10.1286 94.7017 10.1286C94.7017 10.1286 88.6187 44.0883 98.4496 45.817C111.749 48.1558 107.816 31.3629 107.14 28.828C107.612 30.4223 110.111 37.5186 117.556 39.1129C125.959 40.9142 126.188 25.7557 125.288 19.255V19.2514ZM121.247 43.9639C118.745 41.8532 116.518 39.9748 113.88 42.0173V42.0209C113.341 42.4365 113.12 42.5275 113.01 42.5727C112.972 42.5883 112.947 42.5984 112.928 42.6145C112.89 42.6445 112.87 42.6953 112.811 42.8412L112.811 42.8412C112.756 42.979 112.666 43.2016 112.496 43.5716C109.696 49.6765 119.4 58.5777 127.204 61.5774C135.009 64.5772 139.305 60.8184 139.305 60.8184C142.406 58.5159 142.297 57.1904 139.577 52.7198C136.298 47.3304 135.001 44.7265 135.317 42.9651C135.502 41.941 136.124 41.0404 137.039 40.5501C138.564 39.7366 141.142 39.9146 142.878 48.3182C143.436 51.0234 144.28 52.1299 145.049 53.1394C145.257 53.412 145.459 53.6775 145.649 53.9655C146.408 55.1167 148.511 54.6337 149.55 53.4062C153.672 48.5289 149.245 36.9947 142.973 30.1926C142.637 29.8283 142.208 29.3267 141.709 28.742C138.95 25.5141 134.027 19.7536 130.611 20.5868C126.91 21.4875 126.303 28.4276 126.282 30.7737C126.253 33.7698 126.238 36.5298 126.968 39.4134C127.271 40.6104 127.676 41.45 128.036 42.1972C128.666 43.5017 129.159 44.5247 128.737 46.6767C128.428 48.242 124.865 46.9346 122.218 44.7737C121.89 44.5057 121.567 44.2339 121.25 43.9658L121.247 43.964L121.247 43.964L121.247 43.9639ZM55.8374 15.5324C55.8374 15.5324 52.6415 8.94455 43.221 7.69526C37.9333 6.99435 34.3706 10.3645 32.1371 13.6512C28.9485 18.3433 28.0188 24.1866 29.2718 29.7177C30.8188 36.5452 34.3343 42.9115 34.3343 42.9115C34.3343 42.9115 43.152 63.2343 55.1292 46.2127C64.4262 33.0007 55.8374 15.5324 55.8374 15.5324ZM44.3831 32.169C41.7138 32.0274 40.9003 28.4502 42.0988 25.9008C42.5745 24.8876 43.5841 24.2121 44.7063 24.2411C45.4399 24.2593 46.2244 24.5789 46.6928 25.6611C47.7642 28.1343 47.5172 32.3361 44.3867 32.169H44.3831ZM60.3381 87.7085C60.7303 88.8924 61.5837 89.5061 63.3741 88.0172L63.3778 88.0208C69.0177 83.3323 73.5791 86.9277 73.4338 90.2942C73.3331 92.6286 69.679 94.4915 65.3797 96.6833C63.4788 97.6525 61.4517 98.6859 59.55 99.8528C53.8301 103.361 50.558 105.042 44.2462 97.2016C41.8831 94.2696 39.5417 88.4138 37.4362 83.1484C36.1959 80.0464 35.0375 77.1493 34.0049 75.1756C33.7432 74.6756 33.2381 74.1747 32.7547 73.6954C31.883 72.831 31.0823 72.037 31.9094 71.4459C33.7434 70.1385 37.6293 66.2381 36.7904 62.0907C36.0713 58.5535 55.1375 49.2782 56.5539 54.8092C58.2499 61.4261 58.7002 65.7732 52.2685 68.0975C45.0161 70.7196 49.7409 77.9756 54.0117 75.9964C55.2275 75.4329 56.3706 74.5979 57.4583 73.8032C60.1916 71.8064 62.5754 70.065 64.8849 73.5305C65.6389 74.6614 66.7258 75.5302 67.6729 76.2872C70.2473 78.345 71.7873 79.5759 62.7894 82.9982C60.8538 83.7354 59.688 85.7401 60.3381 87.7085ZM88.8978 81.2106C85.8072 78.2435 83.8752 72.284 83.8752 72.284C83.8752 72.284 86.9548 71.7537 88.1533 69.4985C92.1542 61.9757 89.5618 55.9432 87.5023 51.1507L87.5023 51.1506C86.9539 49.8745 86.4433 48.6864 86.105 47.5814C84.6161 42.7113 74.6181 43.4449 76.0599 47.5596C79.2993 56.8094 73.1872 57.7355 72.6134 55.5783C71.9525 53.1022 71.6795 50.926 71.445 49.0567C70.9217 44.8861 70.5902 42.2435 66.5703 41.2078C63.9846 40.5432 61.6712 40.9282 60.1096 43.2161C57.8108 46.5827 56.8338 50.6719 57.2152 54.7321C58.479 68.1947 66.8027 75.1929 71.967 77.1177C74.422 78.0329 76.0599 75.843 76.0599 75.843C82.6404 87.3045 81.8269 88.739 79.0378 92.0874C75.7257 95.7409 71.4367 98.3702 66.6756 99.6594C61.5441 101.05 58.0577 102.165 60.244 106.701C62.5936 111.571 68.6149 110.979 82.9418 102.049C97.2688 93.1188 93.5463 85.6775 88.8941 81.2106H88.8978ZM128.982 63.1437C128.982 63.1437 131.996 62.8749 134.433 68.1408L134.437 68.1445C136.357 72.2918 133.446 83.094 131.92 88.7562L131.919 88.7568L131.919 88.757C131.509 90.2787 131.199 91.429 131.11 91.9791C131.093 92.0849 131.076 92.1886 131.06 92.2902C130.678 94.6783 130.491 95.8452 127.551 95.1241C124.357 94.3416 124.601 92.6989 125.012 89.9258C125.165 88.8892 125.342 87.6947 125.372 86.3282C125.445 82.9181 124.562 83.1759 123.988 83.6916C123.723 83.9313 123.523 84.2327 123.382 84.5632C122.772 86.0013 120.052 91.7539 115.392 92.335C108.14 93.2392 109.705 83.9676 110.475 82.1227C110.972 80.9315 112.737 74.4127 113.921 69.9603C114.481 67.8648 114.913 65.7367 115.163 63.5795C115.443 61.1862 116.34 57.7688 119.227 58.8365C124.533 60.7976 124.195 66.8843 123.563 70.2327C125.695 62.6316 128.982 63.1437 128.982 63.1437ZM112.705 59.8127C111.161 48.5945 105.565 46.5244 98.6248 48.1986C92.5418 49.6658 91.2525 59.9943 90.8821 63.9092C90.0142 73.0392 89.4512 81.2104 98.3815 83.4439C107.312 85.6774 114.916 75.8828 112.708 59.8163L112.705 59.8127ZM100.837 70.0794C99.4855 69.5092 99.4202 68.2164 99.6235 67.1922C99.8269 66.1681 100.473 65.1876 101.439 64.7118C102.18 64.345 103.055 64.3014 103.611 65.5798C104.719 68.1401 103.241 71.0963 100.84 70.0794H100.837ZM36.0627 85.7113C35.5252 89.1214 30.499 94.1477 30.499 94.1477C35.5252 95.0447 41.2668 100.79 31.396 110.483C24.0854 117.659 15.9905 116.471 12.2789 115.371C10.8771 114.953 9.63143 114.122 8.73078 112.971C3.59561 106.405 1.14787 93.4613 0.10921 85.882C-0.76602 79.4975 3.71545 73.6033 10.1072 72.7753C12.0102 72.532 13.8042 72.6119 15.2423 72.7898C19.5495 73.331 20.8061 81.9453 20.8061 81.9453C20.2686 77.2786 23.3192 74.2244 28.3454 73.6869C33.3716 73.1458 36.6002 82.3012 36.0627 85.7113ZM24.7609 88.0392C23.6932 85.1847 21.9101 88.929 21.9101 88.929H21.9064C21.9064 88.929 21.0167 92.6732 23.3337 93.2071C25.6507 93.7445 25.8323 90.8901 24.7609 88.0392ZM22.6219 103.071C22.6219 103.071 21.1946 106.041 22.6219 107.469C24.0455 108.892 26.1845 104.97 25.3892 103.071C24.5939 101.171 22.6219 103.071 22.6219 103.071ZM111.504 115.171C110.007 114.152 107.785 115.672 106.217 116.744L106.216 116.744C105.924 116.944 105.655 117.128 105.417 117.278L105.394 117.295C104.775 117.759 104.085 118.277 103.289 118.033C102.483 117.786 102.079 116.962 102.221 116.155C102.543 114.586 103.841 114.028 105.163 113.459C106.065 113.072 106.978 112.679 107.6 111.957C110.12 109.557 108.722 106.012 105.097 106.764C103.692 107.015 102.638 107.814 101.534 108.652C101.166 108.931 100.792 109.215 100.398 109.484C99.9694 109.775 99.3847 109.426 99.4537 108.914C99.6026 107.835 100.445 106.808 101.31 106.049C101.424 105.948 101.54 105.847 101.658 105.746L101.658 105.745C102.874 104.693 104.171 103.57 104.051 101.865C103.027 96.7116 95.9673 98.4729 92.8586 100.641C86.3661 105.264 87.1476 106.274 89.0987 108.796C89.5082 109.326 89.9693 109.922 90.4254 110.632C92.3051 113.309 93.6105 115.844 94.9752 118.494C95.6118 119.73 96.2612 120.992 96.9878 122.304C97.3953 123.016 97.6798 123.637 97.9149 124.15C98.3797 125.165 98.6512 125.758 99.2976 125.801C101.955 125.826 104.59 124.125 107.003 122.567L107.003 122.567C107.765 122.075 108.504 121.597 109.216 121.193C111.249 120.125 113.857 117.183 111.5 115.175L111.504 115.171ZM117.656 133.618C118.47 133.218 119.381 132.841 120.257 133.073L120.253 133.066C121.742 133.462 122.261 135.484 121.604 136.875C120.947 138.266 119.53 139.12 118.15 139.795C115.536 141.077 112.376 142.003 109.779 140.681C108.221 139.886 107.146 138.411 106.13 136.988C104.749 135.056 103.355 133.095 102.501 130.876C102.225 130.157 102.008 129.376 102.175 128.624C102.309 128.01 102.694 127.48 103.09 126.994C105.476 124.052 107.531 122.483 111.018 121.379C111.577 121.205 112.165 121.132 112.746 121.205C113.335 121.277 113.894 121.484 114.341 121.869C115.085 122.512 115.347 123.75 114.711 124.499C114.376 124.896 113.881 125.088 113.391 125.278C113.249 125.332 113.108 125.387 112.972 125.446C111.78 125.966 110.793 126.95 110.273 128.141C110.135 128.453 110.026 128.809 110.328 129.147C110.538 129.383 110.858 129.488 111.174 129.459C111.687 129.41 112.094 129.104 112.497 128.801C112.593 128.728 112.689 128.656 112.786 128.588C113.64 127.989 114.773 127.651 115.739 128.05C116.705 128.45 117.264 129.786 116.625 130.611C116.279 131.057 115.703 131.26 115.14 131.458C114.462 131.697 113.803 131.929 113.585 132.572C113.295 133.432 114.185 134.315 115.089 134.391C115.948 134.467 116.758 134.064 117.535 133.678L117.656 133.618ZM143.73 115.48C142.753 109.459 141.318 102.795 137.563 98.4296C136.354 97.0242 135.239 96.2325 133.71 96.7772C132.432 97.2312 131.498 97.8958 131.437 99.8496C131.377 102.111 132.035 104.196 132.691 106.276C132.76 106.494 132.829 106.713 132.897 106.931C132.937 107.055 132.791 107.153 132.69 107.073C129.189 104.211 118.838 97.4018 116.805 96.4249C113.089 94.6454 110.395 95.1321 107.838 95.6478C106.324 95.9528 105.223 97.0714 104.729 98.5349C104.185 100.158 106.164 103.456 106.985 104.731C108.764 107.491 110.545 110.25 112.325 113.009C114.105 115.768 115.886 118.527 117.665 121.287C118.82 123.078 119.982 124.875 121.388 126.477C122.713 127.988 126.567 131.881 128.484 132.484C129.116 132.683 129.77 132.614 130.394 132.404C131.927 131.884 133.703 130.853 132.559 126.782C131.665 123.601 130.1 120.365 128.143 117.184C127.689 116.446 128.582 115.607 129.283 116.119C131.324 117.634 138.547 119.402 141.878 119.203C142.419 119.17 144.285 118.938 143.726 115.484L143.73 115.48ZM98.4901 88.9607C98.2448 89.2628 97.9879 89.5793 97.6885 89.9196C97.0603 90.7548 96.4211 91.6155 96.1414 92.6215C95.8618 93.6275 96.0289 94.8296 96.8169 95.5123C97.8374 96.3948 99.3954 96.1043 100.677 95.6758C102.097 95.2036 103.477 94.6226 104.81 93.9471C105.584 93.5549 106.365 93.1045 106.862 92.3927C107.323 91.7318 107.49 90.9001 107.501 90.0939C107.53 88.1618 106.477 86.0337 104.6 85.5906C103.299 85.2819 101.941 85.8448 100.855 86.622C99.7396 87.4216 99.1582 88.1377 98.4901 88.9607ZM79.2586 13.9577C78.9172 12.2454 78.5758 10.5323 78.2345 8.81908L78.2339 8.81638C77.8927 7.10399 77.5515 5.39159 77.2103 3.68011C77.1159 3.21162 76.9851 2.68503 76.5711 2.44897C76.5094 2.41266 76.4404 2.3945 76.3678 2.3836C75.9283 2.3255 75.5506 2.69229 75.5579 3.13173C75.6233 7.17013 75.4671 11.2122 75.0858 15.2361L75.08 15.2977C74.9945 16.2081 74.9065 17.1443 75.1693 18.0215C75.438 18.9186 76.1753 19.743 77.105 19.8083C78.3288 19.8955 79.284 18.6643 79.5055 17.4586C79.7198 16.3001 79.4874 15.1126 79.2586 13.9577ZM77.657 20.75C76.9489 21.026 76.3714 21.5744 75.9393 22.1991L76.0555 22.1264C75.7504 22.5368 75.4962 23.0416 75.587 23.5464C75.6923 24.1347 76.2334 24.5524 76.7927 24.7666C77.5227 25.0463 78.3616 25.0753 79.0843 24.7739C79.807 24.4725 80.3989 23.8297 80.5696 23.067C80.7403 22.3044 80.4607 21.44 79.8324 20.9716C79.2223 20.5176 78.3652 20.4776 77.657 20.75ZM32.512 68.5399C32.1416 68.1114 31.5787 67.9879 31.0412 67.9407C30.3548 67.8826 29.6575 67.9335 28.9857 68.086C28.8579 68.1155 28.7303 68.1488 28.6027 68.1821C28.1972 68.288 27.7912 68.394 27.3768 68.3801C26.0324 68.337 25.1158 67.1287 24.2832 66.0311C24.2049 65.9278 24.1273 65.8256 24.0502 65.7254C23.7343 65.315 23.3638 64.901 22.8627 64.7775C22.79 64.7594 22.7174 64.7521 22.6411 64.7521C22.0528 64.7558 21.7296 65.4276 22.0165 65.9433C22.5104 66.8222 22.623 67.7628 22.5358 68.8232C22.4937 69.3174 22.4201 69.8087 22.3466 70.2998C22.2363 71.0359 22.1262 71.7717 22.1218 72.5166C22.1218 72.7381 22.1291 72.9669 22.2162 73.1739C22.4704 73.7768 23.3021 73.9293 23.9122 73.6933C24.4105 73.4975 24.8046 73.1249 25.1975 72.7536L25.1976 72.7534L25.1978 72.7533L25.198 72.7531L25.1982 72.7529L25.1983 72.7528C25.2862 72.6697 25.374 72.5867 25.4629 72.5057C26.9447 71.1584 28.9021 70.3485 30.9032 70.2505C31.6113 70.2141 32.512 70.1488 32.7335 69.4624C32.8352 69.1428 32.7372 68.7905 32.5193 68.5363L32.512 68.5399ZM99.4329 128.304C100.09 128.812 100.74 129.441 100.893 130.258V130.261C101.042 131.079 100.424 132.066 99.5963 131.979C99.3748 131.954 99.1678 131.863 98.968 131.761C97.617 131.082 96.4476 130.047 95.6124 128.787C95.3908 128.453 95.1838 128.082 95.1766 127.683C95.1693 127.284 95.1766 126.895 95.5906 126.681C96.208 126.459 96.8871 126.724 97.4682 127.029C98.1618 127.392 98.8155 127.825 99.4329 128.304ZM105.497 139.628C102.692 137.963 99.0343 135.002 95.2918 131.973L95.2915 131.973L95.2912 131.973L95.2909 131.973L95.2906 131.972L95.2903 131.972C93.858 130.813 92.4132 129.644 90.9991 128.533C91.4458 128.159 91.8634 127.741 92.2375 127.276C96.5265 121.963 91.4022 113.378 89.4665 110.963C87.0043 107.887 79.7845 105.334 69.8846 111.166C67.1972 112.75 68.0179 115.499 69.703 118.982C71.1848 122.047 72.4631 125.206 73.4836 128.453C74.4912 131.659 75.2846 134.122 75.9053 136.048L75.9064 136.052L75.9069 136.053L75.9081 136.057L75.9085 136.058L75.909 136.06L75.909 136.06L75.9094 136.061L75.9096 136.061L75.9097 136.062C76.993 139.424 77.5488 141.149 77.798 142.344C78.2024 144.279 78.3142 146.002 78.4095 147.469C78.6752 151.561 78.8116 153.662 84.8108 152.814C88.4862 152.297 87.4821 148.929 86.0904 144.26C85.7811 143.223 85.4526 142.121 85.1521 140.971C90.7304 145.569 95.3026 148.347 97.8593 149.23C101.76 150.577 113.29 144.255 105.497 139.628ZM81.6476 121.186C80.5435 121.684 79.977 119.661 79.7301 118.379C79.6175 117.791 79.9661 117.21 80.5399 117.032C81.7166 116.665 83.576 116.356 83.7576 117.99C84.0002 120.164 83.3547 120.444 82.0775 120.996C81.9402 121.055 81.7956 121.118 81.6439 121.186H81.6476ZM46.967 130.558C48.7136 131.036 50.2496 131.456 51.93 132.815H51.9336C52.4675 133.247 56.1137 136.284 55.8268 140.384C55.6924 142.265 54.7264 144.487 52.9541 145.668C46.951 149.673 33.3105 140.275 34.4871 137.304C34.7087 136.741 35.1626 136.247 35.8744 135.862C37.2956 135.095 38.4655 134.957 39.4111 134.845L39.4113 134.845L39.4116 134.845L39.412 134.845L39.4125 134.845C39.7373 134.807 40.0357 134.771 40.3087 134.715C41.9102 134.384 42.3061 132.543 40.7009 132.242C39.822 132.078 38.6599 132.122 37.1346 132.485C36.301 132.684 35.5378 132.875 34.8321 133.051C29.0509 134.499 27.1334 134.98 22.0487 130.723C16.3433 125.948 15.2756 119.211 25.3753 115.507C35.4749 111.802 44.5396 110.804 46.9909 114.77C48.7295 117.581 48.0415 117.732 46.0463 118.172C44.8738 118.43 43.25 118.788 41.4018 119.843C41.4018 119.843 37.4578 122.233 37.8573 124.858C38.0135 125.89 38.8197 126.674 40.1307 127.557C42.9523 129.458 45.0823 130.042 46.967 130.558ZM147.993 95.8432C156.931 94.6009 156.42 76.0021 156.339 73.0351L156.334 72.8808L156.333 72.8244C156.332 72.8039 156.332 72.7849 156.332 72.7676C156.31 71.6636 156.063 69.6698 154.73 67.6833C152.729 64.7017 149.559 63.8773 148.658 63.6449C146.481 63.0788 144.727 63.3322 143.196 63.5536L143.192 63.5541C141.631 63.7793 140.232 64.1824 139.005 64.6618C137.331 65.3155 136.31 67.0042 136.477 68.7946C136.673 70.93 136.742 73.3233 136.572 75.9272C136.201 81.48 134.854 86.1539 133.438 89.7202C132.693 91.5905 133.568 93.7223 135.428 94.4922L147.993 95.8432ZM146.944 79.9692C146.78 80.9534 145.596 81.6216 144.667 81.2512L144.95 78.0916L145.208 78.0154C146.203 77.9682 147.107 78.985 146.944 79.9692ZM52.0101 117.119C48.6763 120.264 49.1302 124.048 50.9824 127.6C51.2947 128.195 51.6215 128.816 51.9629 129.463C54.3634 133.988 56.1938 137.147 56.793 138.179C57.4818 139.362 58.0378 140.338 58.5103 141.167C60.1581 144.058 60.7909 145.168 62.4984 147.098C65.7015 150.719 72.6779 152.825 75.3399 150.312C78.068 147.737 76.1916 142.024 74.6768 137.412C74.2477 136.105 73.8476 134.887 73.5895 133.853C72.4201 129.172 64.7173 132.306 65.2403 134.671C65.44 135.575 65.6761 136.131 65.9375 136.548C66.31 137.145 66.7016 137.527 67.0125 137.83C67.3897 138.197 67.6479 138.449 67.6081 138.829C67.5536 139.341 66.9871 139.78 66.4678 139.853C65.9339 139.926 65.3565 139.679 64.9425 139.127C63.2719 136.893 61.674 133.389 61.674 133.389C60.6559 131.213 59.7269 129.518 58.9763 128.148C57.3842 125.242 56.5949 123.802 57.4612 122.348L57.4633 122.345C57.574 122.16 57.8821 121.647 58.4055 121.549C59.4187 121.364 60.9258 122.174 62.1352 124.723C62.9087 126.354 64.543 126.83 65.992 126.768C67.0307 126.725 68.6831 126.605 69.3767 125.065C70.0667 123.536 69.5002 121.364 66.9871 117.602C64.779 114.293 62.847 112.892 57.109 114.406C56.4698 114.573 55.5619 114.951 54.8428 115.27C53.8042 115.731 52.8345 116.342 52.0101 117.119ZM50.7221 105.85L50.2101 106.634L49.698 107.419L48.9753 106.947L49.4874 106.162L49.9994 105.378L45.6741 102.549L45.1621 103.333L44.65 104.118L42.4855 102.701L41.9735 103.486L41.4614 104.27L40.9493 105.054L41.672 105.527L42.1841 104.742L42.6962 103.958L44.1379 104.902L43.6259 105.686L43.1138 106.471L42.6017 107.255L46.927 110.084L47.4391 109.3L47.9512 108.515L48.4632 107.731L49.1859 108.203L48.6739 108.988L48.1618 109.772L47.6497 110.556L51.9751 113.386L52.4871 112.601L52.9992 111.817L53.5112 111.032L54.0233 110.248L54.5354 109.463L55.0474 108.679L50.7221 105.85ZM43.8329 106.936L44.3449 106.151L44.857 105.367L45.3691 104.582L45.8811 103.798L47.3229 104.742L46.8108 105.527L46.2988 106.311L45.7867 107.095L45.2746 107.88L43.8329 106.936ZM48.8809 110.237L49.3929 109.452L49.905 108.668L50.4171 107.884L50.9291 107.099L52.3709 108.043L51.8588 108.828L51.3468 109.612L50.8347 110.397L50.3227 111.181L48.8809 110.237ZM144.03 104.622C143.116 104.655 142.301 104.684 142.118 105.599C142.069 105.851 142.032 105.874 142.028 105.902C142.023 105.928 142.046 105.958 142.11 106.18C142.633 107.963 146.316 107.985 148.513 107.146C150.714 106.303 150.932 104.723 150.932 104.723C151.168 103.666 150.903 103.412 149.508 102.998C147.827 102.501 147.075 102.207 146.821 101.782C146.672 101.535 146.636 101.233 146.741 100.961C146.912 100.507 147.489 100.06 149.396 101.473C150.009 101.927 150.39 101.997 150.736 102.061C150.83 102.078 150.922 102.095 151.015 102.119C151.389 102.214 151.745 101.72 151.738 101.273C151.716 99.4937 148.669 97.9393 146.098 97.7069C145.959 97.6946 145.774 97.671 145.559 97.6435C144.382 97.4934 142.293 97.227 141.726 98.0374C141.108 98.9163 142.252 100.463 142.677 100.954C143.222 101.578 143.723 102.148 144.406 102.61C144.689 102.8 144.928 102.898 145.141 102.984C145.512 103.136 145.804 103.255 146.109 103.779C146.33 104.16 145.339 104.56 144.384 104.607C144.265 104.613 144.147 104.618 144.03 104.622Z"
            fill="#001EBE" />
    </g>
    <defs>
        <clipPath id="clip0_0_1">
            <rect width="1920" height="1405" fill="white" transform="translate(-484 -236)" />
        </clipPath>
    </defs>
</svg>