<svg width="47" height="47" viewBox="0 0 47 47" fill="none" xmlns="http://www.w3.org/2000/svg">
    <path fill-rule="evenodd" clip-rule="evenodd"
        d="M23.3296 0C10.4935 0 0 10.4935 0 23.3296C0 36.1657 10.4935 46.6592 23.3296 46.6592C26.5178 46.6592 28.9457 44.0738 28.9457 40.9583C28.9457 39.4476 28.328 38.1166 27.4852 37.1657C27.4562 37.1329 27.4261 37.101 27.3951 37.07C27.2183 36.8939 27.0899 36.6833 27.0899 36.1863L27.0896 36.1498C27.0864 35.9676 27.12 35.7867 27.1883 35.6178C27.2565 35.4489 27.3581 35.2954 27.4869 35.1666C27.6158 35.0378 27.7692 34.9362 27.9381 34.868C28.107 34.7997 28.288 34.7661 28.4701 34.7693L28.5066 34.7696H32.7399C40.3815 34.7696 46.6422 28.512 46.6423 20.8694L46.6422 20.8575C46.5772 9.22967 35.8436 0 23.3296 0ZM4.24174 23.3296C4.24174 12.8361 12.8361 4.24174 23.3296 4.24174C33.9774 4.24174 42.3473 12.0265 42.4005 20.8753C42.3972 26.1716 38.0379 30.5278 32.7399 30.5278H28.5227C27.7782 30.5177 27.0391 30.6562 26.3487 30.9353C25.6519 31.2169 25.019 31.6359 24.4876 32.1673C23.9562 32.6987 23.5372 33.3316 23.2556 34.0284C22.9763 34.7195 22.8378 35.4594 22.8482 36.2046C22.8521 37.6771 23.3324 38.9774 24.3401 40.013C24.5696 40.2869 24.7039 40.6292 24.7039 40.9583C24.7039 41.8385 24.0693 42.4174 23.3296 42.4174C12.8361 42.4174 4.24174 33.8231 4.24174 23.3296ZM23.3296 11.6648C23.3296 9.90781 24.7539 8.48349 26.5109 8.48349C28.2679 8.48349 29.6922 9.90781 29.6922 11.6648C29.6922 13.4218 28.2679 14.8461 26.5109 14.8461C24.7539 14.8461 23.3296 13.4218 23.3296 11.6648ZM31.8131 20.1483C31.8131 18.3913 33.2374 16.967 34.9944 16.967C36.7514 16.967 38.1757 18.3913 38.1757 20.1483C38.1757 21.9053 36.7514 23.3296 34.9944 23.3296C33.2374 23.3296 31.8131 21.9053 31.8131 20.1483ZM12.7252 13.7857C12.7252 12.0287 14.1496 10.6044 15.9065 10.6044C17.6635 10.6044 19.0879 12.0287 19.0879 13.7857C19.0879 15.5427 17.6635 16.967 15.9065 16.967C14.1496 16.967 12.7252 15.5427 12.7252 13.7857ZM8.48349 24.39C8.48349 22.633 9.90781 21.2087 11.6648 21.2087C13.4218 21.2087 14.8461 22.633 14.8461 24.39C14.8461 26.147 13.4218 27.5713 11.6648 27.5713C9.90781 27.5713 8.48349 26.147 8.48349 24.39Z"
        fill="#001EBE" />
</svg>