<svg width="47" height="47" viewBox="0 0 47 47" fill="none" xmlns="http://www.w3.org/2000/svg">
<path fill-rule="evenodd" clip-rule="evenodd" d="M12.729 0C10.8169 0 8.9827 0.757164 7.62742 2.1059L2.10952 7.62379L2.1059 7.62742C0.757164 8.9827 0 10.8169 0 12.729C0 14.641 0.757164 16.4752 2.1059 17.8305L2.10952 17.8341L9.73044 25.455L3.80669 31.3788C3.5457 31.6398 3.35735 31.9643 3.26023 32.3204L0.0789229 43.9852C-0.121333 44.7195 0.0872089 45.5048 0.625381 46.0429C1.16355 46.5811 1.94883 46.7897 2.6831 46.5894L14.3479 43.4081C14.704 43.311 15.0286 43.1226 15.2895 42.8616L21.2133 36.9379L28.8329 44.5575C31.6548 47.3794 36.2214 47.3794 39.0433 44.5575L44.5575 39.0433C47.3794 36.2214 47.3794 31.6548 44.5575 28.8329L41.8004 26.0758L36.9379 21.2133L44.2819 13.8693C45.8046 12.3466 46.66 10.2813 46.66 8.12789C46.66 5.97444 45.8046 3.90918 44.2819 2.38646C42.7591 0.86374 40.6939 0.00828466 38.5404 0.00828466C36.387 0.00828466 34.3217 0.863741 32.799 2.38646L28.2332 6.95226C28.2209 6.96398 28.2087 6.97588 28.1967 6.98795C28.1846 7.00002 28.1727 7.0122 28.161 7.02449L25.455 9.73044L20.5917 4.86708L17.8341 2.10952L17.8305 2.1059C16.4752 0.757164 14.641 0 12.729 0ZM32.4749 19.6776C32.4626 19.6893 32.4505 19.7011 32.4384 19.7132C32.4264 19.7252 32.4145 19.7374 32.4028 19.7496L19.7496 32.4028C19.7374 32.4145 19.7252 32.4264 19.7132 32.4384C19.7011 32.4505 19.6893 32.4626 19.6776 32.4749L12.6884 39.464L5.14777 41.5206L7.20432 33.9799L29.6968 11.4874L35.1809 16.9715L32.4749 19.6776ZM24.2127 33.9385L33.9385 24.2127L37.3013 27.5755L34.5593 30.3175C33.731 31.1458 33.731 32.4887 34.5593 33.3169C35.3875 34.1452 36.7304 34.1452 37.5587 33.3169L40.3007 30.5749L41.5582 31.8323C42.7235 32.9977 42.7235 34.8785 41.5582 36.0439L36.0439 41.5582C34.8785 42.7235 32.9977 42.7235 31.8323 41.5582L24.2127 33.9385ZM22.4557 12.7298L19.092 9.36613L16.3499 12.1082C15.5217 12.9364 14.1788 12.9364 13.3506 12.1082C12.5223 11.2799 12.5223 9.93707 13.3506 9.10882L16.0926 6.36676L14.8384 5.11251C14.2781 4.55574 13.5189 4.24174 12.729 4.24174C11.9391 4.24174 11.1813 4.55426 10.621 5.11101L10.6195 5.11251L5.11251 10.6195L5.11101 10.621C4.55426 11.1813 4.24174 11.9391 4.24174 12.729C4.24174 13.5189 4.55428 14.2767 5.11105 14.8369L12.7298 22.4557L22.4557 12.7298ZM38.1803 13.9722L41.2825 10.87C42.0097 10.1427 42.4183 9.15636 42.4183 8.12789C42.4183 7.09942 42.0097 6.11307 41.2825 5.38583C40.5553 4.65859 39.5689 4.25003 38.5404 4.25003C37.512 4.25003 36.5256 4.65859 35.7984 5.38583L32.6962 8.48806L38.1803 13.9722Z" fill="#001EBE"/>
</svg>
