<svg width="46" height="45" viewBox="0 0 46 45" fill="none" xmlns="http://www.w3.org/2000/svg">
<path fill-rule="evenodd" clip-rule="evenodd" d="M23 0C23.7958 0 24.5227 0.462572 24.8749 1.19324L30.8498 13.5866L44.2114 15.5863C44.9988 15.7041 45.6526 16.2693 45.898 17.0443C46.1434 17.8193 45.9379 18.6697 45.3679 19.2382L35.7012 28.8783L37.9826 42.4973C38.1171 43.3005 37.7946 44.1123 37.1507 44.5912C36.5067 45.0702 35.653 45.1333 34.9486 44.754L23 38.3203L11.0514 44.754C10.347 45.1333 9.49327 45.0702 8.84932 44.5912C8.20537 44.1123 7.88286 43.3005 8.0174 42.4973L10.2988 28.8783L0.632073 19.2382C0.0620542 18.6697 -0.143425 17.8193 0.102001 17.0443C0.347426 16.2693 1.00121 15.7041 1.78856 15.5863L15.1502 13.5866L21.1251 1.19324C21.4773 0.462572 22.2042 0 23 0ZM23 6.97747L18.414 16.4899C18.1097 17.1211 17.5218 17.5588 16.8415 17.6606L6.58309 19.1959L14.0044 26.5968C14.4976 27.0886 14.7227 27.7975 14.6063 28.4922L12.8553 38.9451L22.0268 34.0067C22.636 33.6787 23.364 33.6787 23.9732 34.0067L33.1447 38.9451L31.3937 28.4922C31.2773 27.7975 31.5024 27.0886 31.9956 26.5968L39.4169 19.1959L29.1585 17.6606C28.4782 17.5588 27.8903 17.1211 27.586 16.4899L23 6.97747Z" fill="#001EBE"/>
</svg>
