<svg width="964" height="502" viewBox="0 0 964 502" fill="none" xmlns="http://www.w3.org/2000/svg">
    <path d="M795.702 44.3164H436.287V111.648H782.5V146.965H436.287V240.042H400.971V9L795.702 9V44.3164Z"
        fill="white" />
    <path d="M348.023 9V44.3164H291.913V240.042H256.596V44.3164H200.486V9H348.023Z" fill="white" />
    <path
        d="M112.22 125.542V74.3518V9H147.537V84.2535V240.042H119.152L73.9335 125.542L28.3853 240.042H0.000152588V84.2535L0 9H35.3164L35.3165 74.3518L35.3164 125.542L59.4109 67.0904H88.4561L112.22 125.542Z"
        fill="white" />
    <path d="M826.316 361.096H903.22V270H938.537V501.042H903.22V396.743H826.316V501.042H791V270H826.316V361.096Z"
        fill="white" />
    <path
        d="M716.684 330.731C716.684 323.47 714.263 317.419 709.422 312.578C704.581 307.737 698.64 305.316 691.599 305.316L635.731 305.317C628.47 305.317 622.419 307.847 617.578 312.908C612.737 317.749 610.316 323.69 610.316 330.731V439.981C610.316 447.022 612.737 453.073 617.578 458.134C622.639 462.975 628.69 465.395 635.731 465.395L691.599 465.395C698.64 465.395 704.581 462.975 709.422 458.134C714.263 453.073 716.684 447.022 716.684 439.981V421.827H752V439.981C752 450.983 749.25 461.214 743.749 470.676C738.468 479.918 731.206 487.289 721.965 492.79C712.723 498.291 702.601 501.042 691.599 501.042L635.731 501.042C624.729 501.042 614.607 498.291 605.365 492.79C596.124 487.289 588.752 479.918 583.251 470.676C577.751 461.215 575 450.983 575 439.981V330.731C575 319.729 577.751 309.607 583.251 300.366C588.752 290.904 596.124 283.533 605.365 278.252C614.607 272.751 624.729 270 635.731 270L691.599 270C702.601 270 712.723 272.75 721.965 278.251C731.206 283.532 738.468 290.904 743.749 300.365C749.25 309.607 752 319.729 752 330.731V348.884H716.684V330.731Z"
        fill="white" />
    <path d="M525.702 305.316H227.316V362.087H512.5V397.733H227.316V465.725H525.702V501.042H192V270H525.702V305.316Z"
        fill="white" />
    <path d="M147.537 270V305.316H91.4265V501.042H56.1101V305.316H0V270H147.537Z" fill="white" />
    <path
        d="M874.883 22.0487L870.402 22.0487C867.73 22.0487 865.411 22.992 863.446 24.8785C861.559 26.8437 860.616 29.1625 860.616 31.8351L860.616 39.7349C860.616 42.6433 861.402 45.0014 862.974 46.8094C864.625 48.6173 866.708 49.5212 869.223 49.5212C871.503 49.5212 873.547 48.7745 875.355 47.281C877.241 45.7875 878.892 43.9403 880.307 41.7393C881.8 39.5384 883.647 36.5121 885.848 32.6604C888.521 27.8655 890.879 24.0139 892.923 21.1055C894.967 18.1971 897.443 15.721 900.351 13.6773C903.259 11.6336 906.639 10.6117 910.491 10.6117C914.343 10.6117 917.801 11.555 920.867 13.4415C923.933 15.4066 926.291 18.0792 927.941 21.4592C929.671 24.8392 930.535 28.6909 930.535 33.0142L930.535 38.5558C930.535 42.6433 929.514 46.377 927.47 49.7571C925.505 53.2157 922.793 55.9276 919.334 57.8927C915.954 59.9364 912.22 60.9583 908.133 60.9583L904.832 60.9583L904.832 48.3422L908.133 48.3422C910.884 48.3422 913.203 47.3989 915.089 45.5124C916.976 43.6259 917.919 41.307 917.919 38.5558L917.919 33.0142C917.919 29.9486 917.251 27.5511 915.915 25.8218C914.579 24.0925 912.771 23.2278 910.491 23.2278C908.369 23.2278 906.404 24.3283 904.596 26.5292C902.866 28.8088 900.626 32.3853 897.875 37.2588C894.967 42.3682 892.333 46.5735 889.975 49.875C887.696 53.255 884.787 56.1241 881.25 58.4822C877.791 60.919 873.782 62.1374 869.223 62.1374C865.293 62.1374 861.677 61.1548 858.376 59.1897C855.153 57.2245 852.598 54.5127 850.712 51.054C848.904 47.674 848 43.901 848 39.7349L848 31.8351C848 27.7476 848.983 23.9746 850.948 20.5159C852.991 17.1359 855.703 14.424 859.083 12.3803C862.542 10.4152 866.315 9.43261 870.402 9.43261L874.883 9.43261L874.883 22.0487ZM860.734 112.18C860.734 113.909 861.166 115.442 862.031 116.778L899.526 93.6685L869.813 93.6685C867.298 93.6685 865.136 94.5331 863.328 96.2624C861.599 98.0704 860.734 100.232 860.734 102.747L860.734 112.18ZM908.84 81.0523C912.771 81.0523 916.386 82.0349 919.688 84C923.068 85.9652 925.701 88.5984 927.588 91.8999C929.553 95.2013 930.535 98.8171 930.535 102.747L930.535 112.18C930.535 116.11 929.553 119.726 927.588 123.027C925.701 126.329 923.068 128.923 919.688 130.809C916.386 132.775 912.771 133.757 908.84 133.757L869.813 133.757C865.883 133.757 862.228 132.775 858.848 130.809C855.546 128.923 852.913 126.329 850.948 123.027C848.983 119.726 848 116.11 848 112.18L848 102.747C848 98.8171 848.983 95.2013 850.948 91.8999C852.913 88.5984 855.546 85.9652 858.848 84C862.228 82.0349 865.883 81.0523 869.813 81.0523L908.84 81.0523ZM879.128 121.141L908.84 121.141C911.434 121.141 913.596 120.276 915.325 118.547C917.055 116.818 917.919 114.695 917.919 112.18L917.919 102.747C917.919 101.097 917.487 99.5246 916.622 98.0311L879.128 121.141ZM848 205.377L848 152.672L860.616 152.672L860.616 172.716L915.679 172.716L903.888 152.672L918.509 152.672L930.535 173.07L930.535 185.333L860.616 185.333L860.616 205.377L848 205.377Z"
        fill="white" />
</svg>